<svg width="216" height="180" viewBox="0 0 216 180" fill="none" xmlns="http://www.w3.org/2000/svg">
<g clip-path="url(#clip0_2_7189)">
<path d="M88.8758 42.3568H87.8965V15.5279C87.8965 13.4887 87.4949 11.4695 86.7145 9.58561C85.9342 7.70167 84.7904 5.98989 83.3485 4.548C81.9066 3.1061 80.1948 1.96232 78.3109 1.18198C76.4269 0.40163 74.4077 -6.37954e-06 72.3686 0H15.5279C13.4888 -6.37954e-06 11.4696 0.40163 9.58563 1.18198C7.7017 1.96232 5.98991 3.1061 4.54801 4.548C3.10611 5.98989 1.96233 7.70168 1.18198 9.58561C0.401634 11.4695 -3.1898e-06 13.4887 0 15.5279V162.714C-1.91387e-06 164.753 0.401637 166.772 1.18199 168.656C1.96234 170.54 3.10612 172.251 4.54802 173.693C5.98992 175.135 7.7017 176.279 9.58563 177.059C11.4696 177.84 13.4888 178.241 15.5279 178.241H72.3686C74.4077 178.241 76.4269 177.84 78.3109 177.059C80.1948 176.279 81.9066 175.135 83.3485 173.693C84.7904 172.251 85.9342 170.54 86.7145 168.656C87.4949 166.772 87.8965 164.753 87.8965 162.714V61.4541H88.8758V42.3568Z" fill="#E6E6E6"/>
<path d="M72.9957 4.03979H65.5761C65.9173 4.87633 66.0475 5.78393 65.9553 6.68266C65.8631 7.58139 65.5513 8.44365 65.0474 9.19349C64.5435 9.94333 63.8629 10.5577 63.0656 10.9826C62.2683 11.4074 61.3787 11.6297 60.4752 11.6297H27.9119C27.0085 11.6297 26.1189 11.4074 25.3216 10.9826C24.5243 10.5577 23.8437 9.94333 23.3398 9.19349C22.8358 8.44365 22.524 7.58139 22.4319 6.68266C22.3397 5.78393 22.4699 4.87633 22.8111 4.03979H15.8812C14.3584 4.03979 12.8505 4.33973 11.4436 4.92248C10.0367 5.50524 8.75836 6.35939 7.68157 7.43618C6.60477 8.51297 5.75062 9.79131 5.16786 11.1982C4.5851 12.6051 4.28516 14.113 4.28516 15.6358V162.606C4.28516 164.128 4.5851 165.636 5.16786 167.043C5.75061 168.45 6.60477 169.728 7.68156 170.805C8.75836 171.882 10.0367 172.736 11.4436 173.319C12.8505 173.902 14.3584 174.202 15.8812 174.202H72.9957C74.5185 174.202 76.0264 173.902 77.4333 173.319C78.8402 172.736 80.1185 171.882 81.1953 170.805C82.2721 169.728 83.1263 168.45 83.709 167.043C84.2918 165.636 84.5917 164.128 84.5917 162.606V15.6358C84.5917 14.113 84.2918 12.6051 83.709 11.1982C83.1263 9.79131 82.2721 8.51297 81.1953 7.43618C80.1185 6.35939 78.8402 5.50524 77.4333 4.92248C76.0264 4.33973 74.5185 4.03979 72.9957 4.03979Z" fill="white"/>
<path d="M27.6103 33.9171H24.2002C24.0803 33.9171 23.9653 33.9648 23.8805 34.0495C23.7957 34.1343 23.748 34.2493 23.748 34.3692V35.866C23.748 35.9859 23.7957 36.1009 23.8805 36.1857C23.9653 36.2705 24.0803 36.3182 24.2002 36.3182H24.7653V38.5609H27.0452V36.3182H27.6103C27.7302 36.3182 27.8452 36.2705 27.93 36.1857C28.0148 36.1009 28.0624 35.9859 28.0624 35.866V34.3692C28.0624 34.2493 28.0148 34.1343 27.93 34.0495C27.8452 33.9648 27.7302 33.9171 27.6103 33.9171Z" fill="#E6E6E6"/>
<path d="M31.0264 47.616C28.9379 44.56 27.8703 40.9214 27.9764 37.2214C27.9783 37.1361 27.9506 37.0527 27.8979 36.9854C27.8453 36.9181 27.7711 36.8712 27.6877 36.8525V36.2057H24.0862V36.8435H24.0366C23.9386 36.8436 23.8446 36.8826 23.7754 36.952C23.7062 37.0214 23.6674 37.1155 23.6675 37.2135C23.6675 37.2225 23.6679 37.2314 23.6685 37.2404C23.9523 41.1956 22.9942 44.7425 20.7942 47.8812C20.6676 48.0616 20.6029 48.2782 20.6099 48.4984L21.0037 60.6801C21.0132 60.9519 21.1272 61.2094 21.322 61.399C21.5168 61.5887 21.7773 61.6958 22.0492 61.6979H30.1954C30.4703 61.6957 30.7336 61.5862 30.929 61.3927C31.1244 61.1992 31.2365 60.9371 31.2415 60.6622L31.3933 48.8347C31.3978 48.4006 31.2698 47.9755 31.0264 47.616Z" fill="#E6E6E6"/>
<path d="M29.7365 51.6622H22.6459C22.541 51.6622 22.4373 51.6849 22.3419 51.7288C22.2465 51.7726 22.1618 51.8365 22.0934 51.9162C22.0251 51.9959 21.9748 52.0894 21.946 52.1903C21.9171 52.2912 21.9105 52.3972 21.9264 52.5009L22.9979 59.4656H29.1506L30.4521 52.5244C30.4718 52.4192 30.4681 52.3111 30.4412 52.2075C30.4144 52.104 30.365 52.0076 30.2967 51.9253C30.2284 51.843 30.1428 51.7767 30.046 51.7313C29.9492 51.6858 29.8435 51.6622 29.7365 51.6622Z" fill="white"/>
<path d="M65.5732 70.4091H62.1631C62.0431 70.4091 61.9281 70.4567 61.8434 70.5415C61.7586 70.6263 61.7109 70.7413 61.7109 70.8612V72.358C61.7109 72.4779 61.7586 72.5929 61.8434 72.6777C61.9281 72.7625 62.0431 72.8101 62.1631 72.8101H62.7282V75.0528H65.0081V72.8101H65.5732C65.6931 72.8101 65.8081 72.7624 65.8929 72.6777C65.9777 72.5929 66.0253 72.4779 66.0253 72.358V70.8612C66.0253 70.7413 65.9777 70.6263 65.8929 70.5415C65.8081 70.4567 65.6931 70.4091 65.5732 70.4091Z" fill="#E6E6E6"/>
<path d="M68.9873 84.1078C66.8989 81.0518 65.8312 77.4132 65.9373 73.7133C65.9392 73.6279 65.9115 73.5445 65.8589 73.4772C65.8063 73.41 65.732 73.363 65.6487 73.3443V72.6975H62.0471V73.3353H61.9975C61.949 73.3354 61.9009 73.345 61.8561 73.3636C61.8113 73.3822 61.7706 73.4095 61.7363 73.4439C61.7021 73.4782 61.6749 73.519 61.6564 73.5639C61.6379 73.6087 61.6284 73.6568 61.6284 73.7053C61.6285 73.7143 61.6288 73.7233 61.6295 73.7322C61.9132 77.6874 60.9551 81.2343 58.7551 84.373C58.6285 84.5534 58.5639 84.77 58.5708 84.9902L58.9646 97.172C58.9741 97.4437 59.0881 97.7012 59.2829 97.8909C59.4778 98.0805 59.7383 98.1876 60.0102 98.1897H68.1563C68.4313 98.1875 68.6945 98.078 68.8899 97.8845C69.0853 97.6911 69.1975 97.4289 69.2025 97.154L69.3542 85.3266C69.3587 84.8924 69.2307 84.4673 68.9873 84.1078Z" fill="#E6E6E6"/>
<path d="M67.6975 88.1542H60.6069C60.5019 88.1542 60.3982 88.1769 60.3028 88.2207C60.2075 88.2645 60.1227 88.3285 60.0544 88.4081C59.986 88.4878 59.9357 88.5813 59.9069 88.6822C59.8781 88.7831 59.8714 88.8891 59.8874 88.9928L60.9589 95.9575H67.1115L68.413 89.0163C68.4327 88.9112 68.429 88.803 68.4022 88.6994C68.3753 88.5959 68.326 88.4996 68.2577 88.4172C68.1894 88.3349 68.1037 88.2687 68.0069 88.2232C67.9101 88.1778 67.8045 88.1542 67.6975 88.1542H67.6975Z" fill="white"/>
<path d="M22.8164 121.998H21.1988C21.142 121.998 21.0874 122.02 21.0472 122.06C21.007 122.101 20.9844 122.155 20.9844 122.212V122.922C20.9844 122.979 21.007 123.034 21.0472 123.074C21.0874 123.114 21.142 123.137 21.1988 123.137H21.4669V124.2H22.5484V123.137H22.8164C22.8733 123.137 22.9278 123.114 22.9681 123.074C23.0083 123.034 23.0309 122.979 23.0309 122.922V122.212C23.0309 122.155 23.0083 122.101 22.9681 122.06C22.9278 122.02 22.8733 121.998 22.8164 121.998Z" fill="#E6E6E6"/>
<path d="M24.4374 128.496C23.4467 127.046 22.9403 125.32 22.9906 123.565C22.9915 123.525 22.9783 123.485 22.9534 123.453C22.9284 123.421 22.8932 123.399 22.8537 123.39V123.083H21.1453V123.386H21.1218C21.0987 123.386 21.076 123.39 21.0547 123.399C21.0334 123.408 21.0141 123.421 20.9979 123.437C20.9816 123.454 20.9687 123.473 20.96 123.494C20.9512 123.515 20.9467 123.538 20.9467 123.561C20.9467 123.566 20.9469 123.57 20.9472 123.574C21.1049 125.365 20.6217 127.154 19.5838 128.622C19.5237 128.707 19.493 128.81 19.4963 128.914L19.6831 134.693C19.6876 134.822 19.7417 134.944 19.8341 135.034C19.9265 135.124 20.0501 135.174 20.1791 135.175H24.0432C24.1736 135.174 24.2985 135.122 24.3911 135.031C24.4838 134.939 24.537 134.815 24.5394 134.684L24.6114 129.074C24.6135 128.868 24.5528 128.666 24.4374 128.496Z" fill="#E6E6E6"/>
<path d="M23.8803 130.62H20.1934V132.463H23.8803V130.62Z" fill="white"/>
<path d="M30.3457 121.998H28.7281C28.6713 121.998 28.6167 122.02 28.5765 122.06C28.5363 122.101 28.5137 122.155 28.5137 122.212V122.922C28.5137 122.979 28.5363 123.034 28.5765 123.074C28.6167 123.114 28.6713 123.137 28.7281 123.137H28.9962V124.2H30.0777V123.137H30.3457C30.4026 123.137 30.4571 123.114 30.4974 123.074C30.5376 123.034 30.5602 122.979 30.5602 122.922V122.212C30.5602 122.155 30.5376 122.101 30.4974 122.06C30.4571 122.02 30.4026 121.998 30.3457 121.998Z" fill="#E6E6E6"/>
<path d="M31.9667 128.496C30.976 127.046 30.4696 125.32 30.5199 123.565C30.5208 123.525 30.5076 123.485 30.4827 123.453C30.4577 123.421 30.4225 123.399 30.383 123.39V123.083H28.6746V123.386H28.6511C28.628 123.386 28.6053 123.39 28.584 123.399C28.5627 123.408 28.5434 123.421 28.5272 123.437C28.5109 123.454 28.498 123.473 28.4893 123.494C28.4805 123.515 28.476 123.538 28.476 123.561C28.476 123.566 28.4762 123.57 28.4765 123.574C28.6342 125.365 28.151 127.154 27.1131 128.622C27.053 128.707 27.0223 128.81 27.0256 128.914L27.2124 134.693C27.2169 134.822 27.271 134.944 27.3634 135.034C27.4558 135.124 27.5794 135.174 27.7084 135.175H31.5725C31.7029 135.174 31.8278 135.122 31.9204 135.031C32.0131 134.939 32.0663 134.815 32.0687 134.684L32.1407 129.074C32.1428 128.868 32.0821 128.666 31.9667 128.496Z" fill="#E6E6E6"/>
<path d="M31.4116 130.62H27.7246V132.463H31.4116V130.62Z" fill="white"/>
<path d="M37.877 121.998H36.2594C36.2025 121.998 36.148 122.02 36.1077 122.06C36.0675 122.101 36.0449 122.155 36.0449 122.212V122.922C36.0449 122.979 36.0675 123.034 36.1077 123.074C36.148 123.114 36.2025 123.137 36.2594 123.137H36.5274V124.2H37.6089V123.137H37.877C37.9338 123.137 37.9884 123.114 38.0286 123.074C38.0688 123.034 38.0914 122.979 38.0914 122.922V122.212C38.0914 122.155 38.0688 122.101 38.0286 122.06C37.9884 122.02 37.9338 121.998 37.877 121.998Z" fill="#E6E6E6"/>
<path d="M39.496 128.496C38.5053 127.046 37.9989 125.32 38.0492 123.565C38.0501 123.525 38.0369 123.485 38.012 123.453C37.987 123.421 37.9518 123.399 37.9123 123.39V123.083H36.2039V123.386H36.1804C36.1573 123.386 36.1346 123.39 36.1133 123.399C36.092 123.408 36.0727 123.421 36.0565 123.437C36.0402 123.454 36.0273 123.473 36.0185 123.494C36.0098 123.515 36.0053 123.538 36.0053 123.561C36.0053 123.566 36.0055 123.57 36.0058 123.574C36.1635 125.365 35.6803 127.154 34.6424 128.622C34.5823 128.707 34.5516 128.81 34.5549 128.914L34.7417 134.693C34.7462 134.822 34.8003 134.944 34.8927 135.034C34.9851 135.124 35.1087 135.174 35.2377 135.175H39.1018C39.2322 135.174 39.357 135.122 39.4497 135.031C39.5424 134.939 39.5956 134.815 39.598 134.684L39.67 129.074C39.6721 128.868 39.6114 128.666 39.496 128.496Z" fill="#E6E6E6"/>
<path d="M38.9409 130.62H35.2539V132.463H38.9409V130.62Z" fill="white"/>
<path d="M59.6474 107.88H56.2373C56.1779 107.88 56.1191 107.892 56.0643 107.915C56.0094 107.938 55.9596 107.971 55.9176 108.013C55.8756 108.055 55.8423 108.105 55.8196 108.16C55.7969 108.214 55.7852 108.273 55.7852 108.333V109.829C55.7852 109.949 55.8328 110.064 55.9176 110.149C56.0024 110.234 56.1174 110.282 56.2373 110.282H56.8024V112.524H59.0823V110.282H59.6474C59.7673 110.282 59.8823 110.234 59.9671 110.149C60.0519 110.064 60.0995 109.949 60.0995 109.829V108.333C60.0995 108.273 60.0878 108.214 60.0651 108.16C60.0424 108.105 60.0091 108.055 59.9671 108.013C59.9251 107.971 59.8753 107.938 59.8204 107.915C59.7656 107.892 59.7068 107.88 59.6474 107.88Z" fill="#E6E6E6"/>
<path d="M63.0635 121.579C60.975 118.523 59.9074 114.885 60.0135 111.185C60.0154 111.099 59.9877 111.016 59.9351 110.949C59.8824 110.881 59.8082 110.834 59.7249 110.816V110.169H56.1233V110.807H56.0737C56.0252 110.807 55.9771 110.816 55.9323 110.835C55.8875 110.854 55.8468 110.881 55.8125 110.915C55.7782 110.95 55.7511 110.99 55.7326 111.035C55.714 111.08 55.7046 111.128 55.7046 111.177C55.7046 111.186 55.705 111.195 55.7056 111.204C55.9894 115.159 55.0313 118.706 52.8313 121.844C52.7047 122.025 52.64 122.241 52.647 122.462L53.0408 134.643C53.0503 134.915 53.1643 135.173 53.3591 135.362C53.5539 135.552 53.8145 135.659 54.0863 135.661H62.2325C62.5075 135.659 62.7707 135.549 62.9661 135.356C63.1615 135.162 63.2736 134.9 63.2786 134.625L63.4304 122.798C63.4349 122.364 63.3069 121.939 63.0635 121.579Z" fill="#E6E6E6"/>
<path d="M61.7737 125.626H54.6831C54.5781 125.626 54.4744 125.648 54.379 125.692C54.2836 125.736 54.1989 125.8 54.1305 125.88C54.0622 125.959 54.0119 126.053 53.9831 126.154C53.9542 126.255 53.9476 126.361 53.9635 126.464L55.035 133.429H61.1877L62.4892 126.488C62.5089 126.383 62.5052 126.274 62.4783 126.171C62.4515 126.067 62.4022 125.971 62.3338 125.889C62.2655 125.806 62.1799 125.74 62.0831 125.695C61.9863 125.649 61.8806 125.626 61.7737 125.626Z" fill="white"/>
<path d="M61.5093 63.2661H41.1816C42.6028 55.5824 42.2759 46.304 41.1816 36.3258H61.5093C60.4442 46.3041 60.1259 55.5824 61.5093 63.2661Z" fill="#E6E6E6"/>
<path d="M51.4685 53.9594C54.1738 53.9594 56.3668 51.7664 56.3668 49.0612C56.3668 46.356 54.1738 44.163 51.4685 44.163C48.7633 44.163 46.5703 46.356 46.5703 49.0612C46.5703 51.7664 48.7633 53.9594 51.4685 53.9594Z" fill="white"/>
<path d="M42.896 99.0232H22.5684C23.9895 91.3395 23.6626 82.0611 22.5684 72.0829H42.896C41.8309 82.0611 41.5126 91.3395 42.896 99.0232Z" fill="#E6E6E6"/>
<path d="M32.8553 89.7166C35.5605 89.7166 37.7535 87.5236 37.7535 84.8184C37.7535 82.1132 35.5605 79.9202 32.8553 79.9202C30.15 79.9202 27.957 82.1132 27.957 84.8184C27.957 87.5236 30.15 89.7166 32.8553 89.7166Z" fill="white"/>
<path d="M73.021 64.9804H52.6934C54.1145 57.2967 53.7876 48.0184 52.6934 38.0402H73.021C71.9559 48.0184 71.6376 57.2967 73.021 64.9804Z" fill="#E6E6E6"/>
<path d="M62.9783 55.6738C65.6835 55.6738 67.8766 53.4808 67.8766 50.7756C67.8766 48.0703 65.6835 45.8773 62.9783 45.8773C60.2731 45.8773 58.0801 48.0703 58.0801 50.7756C58.0801 53.4808 60.2731 55.6738 62.9783 55.6738Z" fill="white"/>
<path d="M73.021 63.756H52.6934C54.1145 56.0722 53.7876 46.7939 52.6934 36.8157H73.021C71.9559 46.7939 71.6376 56.0723 73.021 63.756Z" fill="#E6E6E6"/>
<path d="M62.9783 54.4493C65.6835 54.4493 67.8766 52.2563 67.8766 49.5511C67.8766 46.8458 65.6835 44.6528 62.9783 44.6528C60.2731 44.6528 58.0801 46.8458 58.0801 49.5511C58.0801 52.2563 60.2731 54.4493 62.9783 54.4493Z" fill="white"/>
<path d="M73.021 64.9804H52.6934C54.1145 57.2967 53.7876 48.0184 52.6934 38.0402H73.021C71.9559 48.0184 71.6376 57.2967 73.021 64.9804Z" fill="#E6E6E6"/>
<path d="M62.9783 55.6738C65.6835 55.6738 67.8766 53.4808 67.8766 50.7756C67.8766 48.0703 65.6835 45.8773 62.9783 45.8773C60.2731 45.8773 58.0801 48.0703 58.0801 50.7756C58.0801 53.4808 60.2731 55.6738 62.9783 55.6738Z" fill="white"/>
<path d="M77.6746 61.7966H11.0586V69.144H77.6746V61.7966Z" fill="#E6E6E6"/>
<path d="M77.6746 98.2885H11.0586V105.636H77.6746V98.2885Z" fill="#E6E6E6"/>
<path d="M77.6746 134.78H11.0586V142.128H77.6746V134.78Z" fill="#E6E6E6"/>
<path d="M193.555 164.588L176.959 152.85C182.556 147.397 187.647 139.634 192.516 130.855L209.112 142.593C202.48 150.125 196.863 157.516 193.555 164.588Z" fill="#D2AB68"/>
<path d="M193.56 152.091C196.266 152.091 198.459 149.898 198.459 147.193C198.459 144.487 196.266 142.294 193.56 142.294C190.855 142.294 188.662 144.487 188.662 147.193C188.662 149.898 190.855 152.091 193.56 152.091Z" fill="white"/>
<path d="M113.497 111.024H111.675C111.611 111.024 111.55 111.049 111.504 111.095C111.459 111.14 111.434 111.201 111.434 111.265V112.065C111.434 112.097 111.44 112.128 111.452 112.158C111.464 112.187 111.482 112.213 111.504 112.236C111.527 112.258 111.553 112.276 111.583 112.288C111.612 112.3 111.643 112.307 111.675 112.307H111.977V113.505H113.195V112.307H113.497C113.561 112.307 113.622 112.281 113.668 112.236C113.713 112.191 113.738 112.129 113.738 112.065V111.265C113.738 111.201 113.713 111.14 113.668 111.095C113.622 111.049 113.561 111.024 113.497 111.024Z" fill="#E6E6E6"/>
<path opacity="0.2" d="M113.118 111.284C113.118 111.423 113.063 111.555 112.966 111.653C112.868 111.751 112.735 111.806 112.597 111.806C112.459 111.806 112.327 111.751 112.229 111.653C112.131 111.555 112.076 111.423 112.076 111.284" fill="#2B2B2B"/>
<path d="M171.147 136.447H167.737C167.617 136.447 167.502 136.494 167.418 136.579C167.333 136.664 167.285 136.779 167.285 136.899V138.396C167.285 138.515 167.333 138.63 167.418 138.715C167.502 138.8 167.617 138.848 167.737 138.848H168.302V141.09H170.582V138.848H171.147C171.267 138.848 171.382 138.8 171.467 138.715C171.552 138.63 171.6 138.515 171.6 138.396V136.899C171.6 136.779 171.552 136.664 171.467 136.579C171.382 136.494 171.267 136.447 171.147 136.447Z" fill="#E6E6E6"/>
<path d="M174.563 150.145C172.475 147.089 171.407 143.451 171.513 139.751C171.515 139.665 171.488 139.582 171.435 139.515C171.382 139.448 171.308 139.401 171.225 139.382V138.735H167.623V139.373H167.574C167.525 139.373 167.477 139.383 167.432 139.401C167.387 139.42 167.347 139.447 167.313 139.481C167.278 139.516 167.251 139.557 167.233 139.601C167.214 139.646 167.205 139.694 167.205 139.743C167.205 139.752 167.205 139.761 167.206 139.77C167.489 143.725 166.531 147.272 164.331 150.411C164.205 150.591 164.14 150.808 164.147 151.028L164.541 163.21C164.55 163.481 164.664 163.739 164.859 163.928C165.054 164.118 165.314 164.225 165.586 164.227H173.732C174.007 164.225 174.271 164.116 174.466 163.922C174.661 163.729 174.774 163.467 174.779 163.192L174.93 151.364C174.935 150.93 174.807 150.505 174.563 150.145Z" fill="#D2AB68"/>
<path opacity="0.2" d="M170.437 136.934C170.437 137.193 170.334 137.441 170.151 137.624C169.969 137.807 169.72 137.91 169.462 137.91C169.203 137.91 168.955 137.807 168.772 137.624C168.589 137.441 168.486 137.193 168.486 136.934" fill="#2B2B2B"/>
<path d="M173.274 154.192H166.183C166.078 154.192 165.974 154.214 165.879 154.258C165.784 154.302 165.699 154.366 165.631 154.446C165.562 154.525 165.512 154.619 165.483 154.72C165.454 154.821 165.448 154.927 165.464 155.03L166.535 161.995H172.688L173.989 155.054C174.009 154.949 174.005 154.841 173.978 154.737C173.951 154.634 173.902 154.537 173.834 154.455C173.766 154.373 173.68 154.306 173.583 154.261C173.486 154.215 173.381 154.192 173.274 154.192Z" fill="white"/>
<path d="M161.418 164.569H141.09C142.511 156.885 142.184 147.607 141.09 137.629H161.418C160.352 147.607 160.034 156.885 161.418 164.569Z" fill="#D2AB68"/>
<path d="M151.377 155.262C154.082 155.262 156.275 153.069 156.275 150.364C156.275 147.659 154.082 145.466 151.377 145.466C148.672 145.466 146.479 147.659 146.479 150.364C146.479 153.069 148.672 155.262 151.377 155.262Z" fill="white"/>
<path d="M78.2734 79.7841L82.8368 79.3693L85.7409 72.3169L80.5552 69.4128L78.2734 79.7841Z" fill="#EAC3C1"/>
<path d="M120.153 99.1451C120.304 98.7667 120.364 98.3576 120.327 97.9516C120.289 97.5456 120.156 97.1543 119.938 96.81C119.719 96.4656 119.422 96.1781 119.071 95.971C118.72 95.7639 118.325 95.6433 117.918 95.619L110.832 95.1965L109.789 98.6656L117.083 100.669C117.693 100.836 118.342 100.773 118.908 100.492C119.475 100.211 119.918 99.7318 120.153 99.1451Z" fill="#EAC3C1"/>
<path d="M112.545 100.727L112.467 94.2175L96.7286 91.7063L84.6042 77.8009C83.9734 77.0774 83.1018 76.6071 82.1507 76.477C81.1997 76.347 80.2338 76.566 79.4319 77.0936C78.9464 77.413 78.5369 77.8352 78.2325 78.3303C77.9281 78.8253 77.7361 79.3812 77.6702 79.9586C77.6042 80.5361 77.6659 81.1209 77.8508 81.6719C78.0358 82.2228 78.3395 82.7265 78.7405 83.1471L88.743 95.4567L112.545 100.727Z" fill="#193B61"/>
<path d="M74.7461 173.956H78.8946L89.1846 127.433L99.8448 141.805L106.068 172.919H110.009L109.179 139.523L95.2814 103.846H81.5912C77.85 110.616 74.9152 117.596 78.2724 124.796L74.7461 173.956Z" fill="#585656"/>
<path d="M103.524 176.782C103.478 176.929 103.464 177.084 103.483 177.236C103.501 177.389 103.552 177.536 103.632 177.667C103.712 177.799 103.819 177.912 103.946 177.998C104.073 178.085 104.217 178.144 104.368 178.171L114.52 179.973C114.921 180.046 115.335 179.97 115.684 179.759C116.033 179.548 116.293 179.217 116.414 178.828C116.533 178.456 116.516 178.054 116.368 177.693C116.219 177.332 115.948 177.035 115.603 176.854C113.371 175.708 111.45 174.038 110.004 171.987C108.889 173.026 107.641 172.928 106.317 172.162L104.913 172.338L103.524 176.782Z" fill="#2B2B2B"/>
<path d="M72.8247 176.782C72.7788 176.929 72.7647 177.084 72.7834 177.236C72.802 177.389 72.853 177.536 72.9329 177.667C73.0128 177.799 73.1197 177.912 73.2466 177.998C73.3735 178.085 73.5175 178.144 73.6689 178.171L83.8204 179.973C84.2216 180.046 84.6357 179.97 84.9847 179.759C85.3338 179.548 85.5936 179.217 85.7152 178.828C85.8336 178.456 85.817 178.054 85.6686 177.693C85.5201 177.332 85.2492 177.035 84.9034 176.854C82.6713 175.708 80.7503 174.038 79.305 171.987C78.1893 173.026 76.9423 172.928 75.618 172.162L74.2135 172.338L72.8247 176.782Z" fill="#2B2B2B"/>
<path d="M85.8431 74.9097C89.0508 74.9097 91.6511 72.3093 91.6511 69.1017C91.6511 65.894 89.0508 63.2937 85.8431 63.2937C82.6355 63.2937 80.0352 65.894 80.0352 69.1017C80.0352 72.3093 82.6355 74.9097 85.8431 74.9097Z" fill="#EAC3C1"/>
<path d="M86.9188 62.4219C84.7114 60.8992 82.7676 60.6673 81.1709 61.0992C80.9639 60.778 80.6737 60.5195 80.3313 60.3514C79.0859 57.204 75.2961 55.3139 72.0438 56.2327C68.7704 57.1575 66.5118 60.7944 67.1277 64.149C67.5094 66.2283 68.8141 68.0289 69.3389 70.0767C70.3548 74.0407 67.8767 78.5816 64 79.8594C67.6705 80.5986 71.7108 78.3498 73.0276 74.8347C73.6672 73.1273 73.7057 71.2632 73.7871 69.4412C73.8084 68.1835 73.9621 66.9316 74.2454 65.7063C74.386 65.1565 74.5846 64.6234 74.838 64.1159C75.3898 63.0005 76.3063 62.1086 77.4346 61.5891C77.3335 61.9026 77.3083 62.2356 77.3609 62.5608C77.4134 62.8859 77.5424 63.1939 77.737 63.4592C76.8762 64.5408 76.4076 65.7104 76.4076 66.4109C74.6194 69.689 77.1766 72.5047 80.4449 74.2983C81.7485 75.0174 83.2537 75.2806 84.7229 75.0463L84.8597 74.4609L85.0449 74.9882L85.6634 76.7562C86.3768 77.1024 87.084 77.4819 87.7851 77.8946C87.5187 76.6401 87.3033 75.3879 87.155 74.1635C86.9497 72.4971 87.6653 70.0162 88.1815 68.5076C88.5015 67.5778 88.6658 66.6012 88.6676 65.6175V65.5745L89.1702 67.1938L91 66.4109C90.6596 64.4524 91 62.2291 86.9188 62.4219Z" fill="#2B2B2B"/>
<path d="M80.6581 105.402L95.8003 104.987L91.3534 90.9909C94.1169 86.5606 91.3356 82.1348 87.3995 77.71L84.2881 75.6357L79.3098 75.2208C77.1544 77.5272 75.9751 80.5781 76.0188 83.7345C76.1173 90.4936 77.3141 97.8515 80.6581 105.402Z" fill="#193B61"/>
<path d="M115.449 114.822C115.737 114.534 115.953 114.181 116.078 113.793C116.204 113.405 116.235 112.993 116.17 112.591C116.105 112.188 115.945 111.807 115.703 111.479C115.462 111.15 115.146 110.884 114.781 110.701L108.433 107.525L106.109 110.304L112.027 115.015C112.522 115.409 113.144 115.607 113.775 115.571C114.406 115.536 115.002 115.269 115.449 114.822Z" fill="#EAC3C1"/>
<path d="M107.831 113.284L110.32 107.268L96.8391 98.7683L91.1625 81.2145C90.8671 80.3012 90.2508 79.5259 89.4276 79.0322C88.6044 78.5385 87.6302 78.3599 86.6854 78.5295C86.1134 78.6321 85.5709 78.8592 85.0962 79.1946C84.6216 79.53 84.2264 79.9655 83.9387 80.4705C83.6509 80.9754 83.4775 81.5374 83.4308 82.1167C83.3841 82.6959 83.4652 83.2784 83.6684 83.8229L88.022 99.0749L107.831 113.284Z" fill="#193B61"/>
<path d="M85.9471 71.1759C86.4626 71.1759 86.8805 70.6187 86.8805 69.9313C86.8805 69.244 86.4626 68.6868 85.9471 68.6868C85.4316 68.6868 85.0137 69.244 85.0137 69.9313C85.0137 70.6187 85.4316 71.1759 85.9471 71.1759Z" fill="#EAC3C1"/>
<path d="M203.489 166.348H138.909L125.234 101.7H113.562V98.7997H127.585L141.26 163.447H203.489V166.348Z" fill="#2B2B2B"/>
<path d="M148.372 178.159C151.805 178.159 154.588 175.376 154.588 171.943C154.588 168.51 151.805 165.727 148.372 165.727C144.939 165.727 142.156 168.51 142.156 171.943C142.156 175.376 144.939 178.159 148.372 178.159Z" fill="#2B2B2B"/>
<path d="M194.786 178.159C198.22 178.159 201.003 175.376 201.003 171.943C201.003 168.51 198.22 165.727 194.786 165.727C191.353 165.727 188.57 168.51 188.57 171.943C188.57 175.376 191.353 178.159 194.786 178.159Z" fill="#2B2B2B"/>
<path d="M202.312 164.982H139.479L128.393 110.196H212.715C213.146 110.196 213.571 110.289 213.962 110.469C214.352 110.649 214.7 110.912 214.979 111.239C215.259 111.566 215.464 111.949 215.582 112.363C215.699 112.777 215.725 113.212 215.658 113.637L205.254 162.466C205.147 163.168 204.791 163.809 204.25 164.271C203.71 164.733 203.022 164.985 202.312 164.982ZM140.161 164.153H202.312C202.824 164.155 203.321 163.973 203.711 163.64C204.101 163.306 204.358 162.844 204.435 162.337L214.839 113.508C214.887 113.201 214.869 112.888 214.784 112.589C214.7 112.29 214.551 112.013 214.349 111.777C214.148 111.541 213.897 111.352 213.615 111.222C213.333 111.092 213.026 111.025 212.715 111.025H129.399L140.161 164.153Z" fill="#2B2B2B"/>
<path d="M151.694 164.807L144.434 110.678L145.251 110.543L152.511 164.672L151.694 164.807Z" fill="#2B2B2B"/>
<path d="M192.062 164.391L191.244 164.259L198.292 110.544L199.111 110.676L192.062 164.391Z" fill="#2B2B2B"/>
<path d="M172.829 110.61H172V164.739H172.829V110.61Z" fill="#2B2B2B"/>
<path d="M132.627 125.115L132.625 125.943L212.853 126.138L212.855 125.309L132.627 125.115Z" fill="#2B2B2B"/>
<path d="M207.193 150.718L136.711 151.199L136.717 152.028L207.199 151.546L207.193 150.718Z" fill="#2B2B2B"/>
<path d="M114.807 102.322C117.324 102.322 119.365 101.209 119.365 99.8356C119.365 98.4623 117.324 97.3491 114.807 97.3491C112.289 97.3491 110.248 98.4623 110.248 99.8356C110.248 101.209 112.289 102.322 114.807 102.322Z" fill="#2B2B2B"/>
</g>
<defs>
<clipPath id="clip0_2_7189">
<rect width="215.694" height="180" fill="white"/>
</clipPath>
</defs>
</svg>
