<svg width="245" height="180" viewBox="0 0 245 180" fill="none" xmlns="http://www.w3.org/2000/svg">
<g clip-path="url(#clip0_2_7349)">
<path d="M243.075 10.6723H1.35396C0.994987 10.6719 0.65083 10.5291 0.396999 10.2753C0.143167 10.0214 0.000392358 9.67727 0 9.3183V1.35395C0.000392358 0.994982 0.143167 0.650825 0.396999 0.396994C0.65083 0.143163 0.994987 0.000391551 1.35396 0H243.075C243.434 0.000392358 243.779 0.143168 244.032 0.396999C244.286 0.65083 244.429 0.994983 244.429 1.35395V9.31831C244.429 9.67728 244.286 10.0214 244.032 10.2753C243.779 10.5291 243.434 10.6719 243.075 10.6723Z" fill="#F2F2F2"/>
<path d="M7.85783 6.86996C8.91948 6.86996 9.78011 6.00932 9.78011 4.94767C9.78011 3.88603 8.91948 3.02539 7.85783 3.02539C6.79618 3.02539 5.93555 3.88603 5.93555 4.94767C5.93555 6.00932 6.79618 6.86996 7.85783 6.86996Z" fill="white"/>
<path d="M15.1547 6.86996C16.2164 6.86996 17.077 6.00932 17.077 4.94767C17.077 3.88603 16.2164 3.02539 15.1547 3.02539C14.0931 3.02539 13.2324 3.88603 13.2324 4.94767C13.2324 6.00932 14.0931 6.86996 15.1547 6.86996Z" fill="white"/>
<path d="M22.4516 6.86996C23.5132 6.86996 24.3739 6.00932 24.3739 4.94767C24.3739 3.88603 23.5132 3.02539 22.4516 3.02539C21.3899 3.02539 20.5293 3.88603 20.5293 4.94767C20.5293 6.00932 21.3899 6.86996 22.4516 6.86996Z" fill="white"/>
<path d="M235.927 3.62462H227.525C227.36 3.62426 227.203 3.55853 227.086 3.44185C226.97 3.32517 226.904 3.16708 226.904 3.00225C226.904 2.83743 226.97 2.67934 227.086 2.56266C227.203 2.44598 227.36 2.38025 227.525 2.37988H235.927C236.092 2.37976 236.25 2.44512 236.367 2.5616C236.484 2.67808 236.55 2.83615 236.55 3.00109C236.55 3.16602 236.485 3.32434 236.369 3.44125C236.253 3.55817 236.095 3.62412 235.93 3.62462H235.927Z" fill="white"/>
<path d="M235.927 5.95849H227.525C227.36 5.95812 227.203 5.89239 227.086 5.77571C226.97 5.65903 226.904 5.50094 226.904 5.33612C226.904 5.17129 226.97 5.0132 227.086 4.89652C227.203 4.77984 227.36 4.71411 227.525 4.71375H235.927C236.092 4.71363 236.25 4.77899 236.367 4.89546C236.484 5.01194 236.55 5.17001 236.55 5.33495C236.55 5.49989 236.485 5.6582 236.369 5.77512C236.253 5.89203 236.095 5.95798 235.93 5.95849H235.927Z" fill="white"/>
<path d="M235.927 8.29235H227.525C227.36 8.29235 227.201 8.22678 227.085 8.11006C226.968 7.99334 226.902 7.83504 226.902 7.66998C226.902 7.50492 226.968 7.34661 227.085 7.2299C227.201 7.11318 227.36 7.04761 227.525 7.04761H235.927C236.092 7.0473 236.25 7.11257 236.367 7.22907C236.484 7.34557 236.55 7.50375 236.55 7.66881C236.551 7.83387 236.485 7.9923 236.369 8.10924C236.252 8.22617 236.094 8.29204 235.929 8.29235H235.927Z" fill="white"/>
<path d="M68.9245 158.264C69.814 151.112 74.2465 144.065 81.0676 141.737C78.3775 149.099 78.3781 157.175 81.0692 164.536C82.1174 167.371 83.5784 170.416 82.5925 173.273C81.979 175.051 80.4784 176.411 78.801 177.262C77.1234 178.113 75.2617 178.518 73.4233 178.915L73.0615 179.214C70.143 172.624 68.035 165.417 68.9245 158.264Z" fill="#F0F0F0"/>
<path d="M81.1348 141.873C77.1626 146.323 74.6937 151.913 74.0789 157.847C73.9238 159.122 73.9707 160.413 74.2179 161.674C74.4983 162.894 75.1004 164.017 75.9614 164.925C76.7473 165.789 77.6511 166.581 78.2134 167.62C78.4933 168.157 78.6567 168.746 78.6929 169.35C78.729 169.954 78.6371 170.559 78.4231 171.124C77.9267 172.548 76.9482 173.709 75.9519 174.811C74.8458 176.034 73.6774 177.287 73.2072 178.909C73.1502 179.105 72.8487 179.005 72.9055 178.809C73.7236 175.987 76.4625 174.385 77.7687 171.844C78.3781 170.658 78.6339 169.281 78.0626 168.03C77.5629 166.935 76.6316 166.117 75.8283 165.25C74.9753 164.376 74.3494 163.306 74.0051 162.134C73.6945 160.89 73.598 159.603 73.7194 158.326C73.947 155.449 74.6257 152.625 75.7305 149.958C76.9746 146.908 78.7313 144.093 80.9247 141.634C81.0605 141.482 81.2698 141.722 81.1349 141.873L81.1348 141.873Z" fill="white"/>
<path d="M74.1639 155.924C73.1823 155.686 72.3174 155.106 71.7236 154.289C71.1298 153.472 70.8459 152.471 70.9224 151.463C70.9259 151.422 70.9452 151.384 70.9762 151.357C71.0072 151.33 71.0476 151.316 71.0887 151.318C71.1299 151.32 71.1686 151.338 71.1968 151.368C71.2249 151.398 71.2404 151.438 71.2397 151.479C71.1667 152.417 71.4314 153.35 71.9858 154.11C72.5403 154.87 73.3481 155.406 74.2634 155.623C74.4623 155.67 74.3616 155.971 74.1639 155.924Z" fill="white"/>
<path d="M75.5058 164.54C77.2787 163.481 78.5874 161.793 79.171 159.813C79.2287 159.617 79.5303 159.716 79.4727 159.912C78.8615 161.972 77.496 163.726 75.6487 164.824C75.4725 164.928 75.3306 164.644 75.5058 164.54Z" fill="white"/>
<path d="M77.2698 147.209C77.6304 147.38 78.0279 147.459 78.4266 147.439C78.8253 147.419 79.2127 147.3 79.5541 147.093C79.7288 146.986 79.8706 147.27 79.697 147.376C79.3187 147.603 78.8907 147.734 78.4502 147.758C78.0098 147.781 77.5703 147.696 77.1702 147.51C77.1311 147.496 77.0988 147.467 77.08 147.43C77.0613 147.393 77.0574 147.35 77.0692 147.31C77.0826 147.27 77.1112 147.237 77.1488 147.218C77.1863 147.199 77.2298 147.196 77.2698 147.209Z" fill="white"/>
<path d="M101.858 154.512C101.751 154.582 101.644 154.652 101.537 154.724C100.1 155.669 98.7428 156.728 97.4779 157.893C97.3787 157.981 97.2794 158.072 97.1829 158.164C94.1654 161.002 91.701 164.375 89.9149 168.113C89.2056 169.601 88.6105 171.14 88.1348 172.718C87.4779 174.898 86.9391 177.314 85.6388 179.096C85.5052 179.284 85.3601 179.463 85.2044 179.633H73.4538C73.4271 179.619 73.4003 179.608 73.3735 179.595L72.9043 179.617C72.9231 179.533 72.9445 179.448 72.9633 179.365C72.9741 179.316 72.9874 179.268 72.9982 179.22C73.0062 179.188 73.0143 179.155 73.0196 179.126C73.0223 179.115 73.025 179.104 73.0276 179.096C73.033 179.067 73.0411 179.04 73.0465 179.013C73.1644 178.533 73.2859 178.054 73.411 177.574C73.411 177.571 73.411 177.571 73.4137 177.568C74.3319 173.902 75.6819 170.358 77.4351 167.011C77.4887 166.912 77.5423 166.81 77.6013 166.71C78.4132 165.229 79.3448 163.815 80.3869 162.485C80.9598 161.759 81.5692 161.062 82.2126 160.397C83.8784 158.682 85.8036 157.24 87.9176 156.123C92.1321 153.898 97.0113 153.046 101.515 154.405C101.631 154.44 101.743 154.475 101.858 154.512Z" fill="#F0F0F0"/>
<path d="M101.832 154.661C95.9808 155.823 90.6444 158.8 86.5809 163.167C85.6894 164.092 84.9493 165.152 84.3877 166.307C83.8771 167.45 83.6818 168.709 83.8222 169.953C83.9298 171.115 84.1745 172.292 83.9977 173.46C83.8983 174.057 83.6739 174.626 83.3392 175.13C83.0044 175.634 82.5669 176.062 82.0554 176.385C80.8017 177.223 79.3218 177.56 77.863 177.84C76.2433 178.151 74.556 178.448 73.2042 179.459C73.0404 179.582 72.8598 179.321 73.0233 179.198C75.3752 177.438 78.5269 177.807 81.0998 176.565C82.3004 175.985 83.3335 175.04 83.6309 173.696C83.891 172.522 83.6396 171.308 83.5205 170.132C83.3657 168.92 83.51 167.689 83.9406 166.546C84.4416 165.366 85.1396 164.28 86.005 163.334C87.9192 161.174 90.1613 159.328 92.649 157.863C95.4789 156.177 98.5765 154.987 101.808 154.345C102.008 154.305 102.031 154.622 101.832 154.661H101.832Z" fill="white"/>
<path d="M87.8065 161.684C87.1663 160.903 86.8246 159.919 86.8425 158.91C86.8603 157.9 87.2366 156.929 87.9041 156.171C88.0397 156.018 88.2837 156.221 88.1479 156.375C87.5251 157.079 87.1747 157.984 87.1599 158.924C87.1452 159.865 87.4672 160.779 88.0677 161.503C88.198 161.661 87.9361 161.841 87.8065 161.684Z" fill="white"/>
<path d="M83.6895 169.371C85.7423 169.593 87.8034 169.033 89.4619 167.803C89.6261 167.681 89.8068 167.942 89.6428 168.064C87.9145 169.341 85.7684 169.919 83.6327 169.683C83.4292 169.66 83.487 169.348 83.6895 169.371Z" fill="white"/>
<path d="M95.5335 156.595C95.7182 156.948 95.988 157.251 96.3185 157.475C96.649 157.699 97.03 157.837 97.4272 157.877C97.6309 157.897 97.5729 158.21 97.3705 158.19C96.9318 158.143 96.5113 157.99 96.1456 157.743C95.7798 157.497 95.48 157.165 95.2724 156.775C95.2497 156.74 95.2413 156.698 95.2487 156.657C95.2562 156.616 95.279 156.579 95.3125 156.554C95.3472 156.531 95.3899 156.521 95.4313 156.529C95.4727 156.537 95.5094 156.56 95.5335 156.595L95.5335 156.595Z" fill="white"/>
<path d="M79.2262 55.5317H40.3497C39.1483 55.5303 37.9965 55.0524 37.147 54.2029C36.2975 53.3534 35.8197 52.2016 35.8184 51.0002V29.8262C35.8197 28.6249 36.2976 27.4731 37.147 26.6236C37.9965 25.7742 39.1483 25.2964 40.3497 25.295H79.2262C80.4275 25.2964 81.5793 25.7742 82.4288 26.6236C83.2783 27.4731 83.7561 28.6248 83.7575 29.8262V51.0002C83.7561 52.2016 83.2783 53.3534 82.4288 54.2029C81.5793 55.0524 80.4276 55.5303 79.2262 55.5317Z" fill="#F2F2F2"/>
<path d="M138.58 55.5317H99.7032C98.5018 55.5303 97.35 55.0524 96.5005 54.2029C95.651 53.3534 95.1732 52.2016 95.1719 51.0002V29.8262C95.1732 28.6249 95.6511 27.4731 96.5006 26.6236C97.35 25.7742 98.5018 25.2964 99.7032 25.295H138.58C139.781 25.2964 140.933 25.7742 141.782 26.6236C142.632 27.4731 143.11 28.6248 143.111 29.8262V51.0002C143.11 52.2016 142.632 53.3534 141.782 54.2029C140.933 55.0524 139.781 55.5303 138.58 55.5317Z" fill="#DADADA"/>
<path d="M197.933 55.5317H159.057C157.855 55.5303 156.704 55.0524 155.854 54.2029C155.005 53.3534 154.527 52.2016 154.525 51.0002V29.8262C154.527 28.6249 155.005 27.4731 155.854 26.6236C156.704 25.7742 157.855 25.2964 159.057 25.295H197.933C199.135 25.2964 200.286 25.7742 201.136 26.6236C201.985 27.4731 202.463 28.6248 202.464 29.8262V51.0002C202.463 52.2016 201.985 53.3534 201.136 54.2029C200.286 55.0524 199.135 55.5303 197.933 55.5317Z" fill="#F2F2F2"/>
<path d="M79.2262 102.71H40.3497C39.1483 102.708 37.9965 102.231 37.147 101.381C36.2975 100.532 35.8197 99.3797 35.8184 98.1783V77.0043C35.8197 75.803 36.2976 74.6512 37.147 73.8017C37.9965 72.9523 39.1483 72.4745 40.3497 72.4731H79.2262C80.4275 72.4745 81.5793 72.9523 82.4288 73.8017C83.2783 74.6512 83.7561 75.803 83.7575 77.0043V98.1783C83.7561 99.3797 83.2783 100.532 82.4288 101.381C81.5793 102.231 80.4276 102.708 79.2262 102.71Z" fill="#F2F2F2"/>
<path d="M138.58 102.71H99.7032C98.5018 102.708 97.35 102.231 96.5005 101.381C95.651 100.532 95.1732 99.3797 95.1719 98.1783V77.0043C95.1732 75.803 95.6511 74.6512 96.5006 73.8017C97.35 72.9523 98.5018 72.4745 99.7032 72.4731H138.58C139.781 72.4745 140.933 72.9523 141.782 73.8017C142.632 74.6512 143.11 75.803 143.111 77.0043V98.1783C143.11 99.3797 142.632 100.532 141.782 101.381C140.933 102.231 139.781 102.708 138.58 102.71Z" fill="#F2F2F2"/>
<path d="M141.324 106.606C145.159 106.606 148.268 103.497 148.268 99.6626C148.268 95.8278 145.159 92.7191 141.324 92.7191C137.49 92.7191 134.381 95.8278 134.381 99.6626C134.381 103.497 137.49 106.606 141.324 106.606Z" fill="#D2AB68"/>
<path d="M144.208 99.0795H141.848V96.7187C141.848 96.6458 141.833 96.5735 141.805 96.5061C141.777 96.4387 141.736 96.3775 141.685 96.3259C141.633 96.2743 141.572 96.2334 141.505 96.2055C141.437 96.1776 141.365 96.1632 141.292 96.1632C141.219 96.1632 141.147 96.1776 141.08 96.2055C141.012 96.2334 140.951 96.2743 140.899 96.3259C140.848 96.3775 140.807 96.4387 140.779 96.5061C140.751 96.5735 140.737 96.6458 140.737 96.7187V99.0795H138.376C138.303 99.0795 138.231 99.0939 138.163 99.1218C138.096 99.1497 138.035 99.1906 137.983 99.2422C137.931 99.2938 137.891 99.355 137.863 99.4224C137.835 99.4898 137.82 99.5621 137.82 99.635C137.82 99.708 137.835 99.7802 137.863 99.8476C137.891 99.915 137.931 99.9763 137.983 100.028C138.035 100.079 138.096 100.12 138.163 100.148C138.231 100.176 138.303 100.191 138.376 100.191H140.737V102.551C140.737 102.624 140.751 102.697 140.779 102.764C140.807 102.831 140.848 102.893 140.899 102.944C140.951 102.996 141.012 103.037 141.08 103.065C141.147 103.092 141.219 103.107 141.292 103.107C141.439 103.107 141.581 103.048 141.685 102.944C141.789 102.84 141.848 102.699 141.848 102.551V100.191H144.208C144.281 100.191 144.354 100.176 144.421 100.148C144.488 100.12 144.55 100.079 144.601 100.028C144.653 99.9762 144.694 99.915 144.722 99.8476C144.75 99.7802 144.764 99.708 144.764 99.635C144.764 99.5621 144.75 99.4898 144.722 99.4224C144.694 99.355 144.653 99.2938 144.601 99.2422C144.55 99.1906 144.488 99.1497 144.421 99.1218C144.354 99.0939 144.281 99.0795 144.208 99.0795L144.208 99.0795Z" fill="white"/>
<path d="M201.592 60.6454C205.427 60.6454 208.535 57.5367 208.535 53.7019C208.535 49.8671 205.427 46.7584 201.592 46.7584C197.757 46.7584 194.648 49.8671 194.648 53.7019C194.648 57.5367 197.757 60.6454 201.592 60.6454Z" fill="#D2AB68"/>
<path d="M204.476 53.1188H202.115V50.758C202.115 50.6851 202.101 50.6128 202.073 50.5454C202.045 50.478 202.004 50.4168 201.952 50.3652C201.901 50.3136 201.84 50.2727 201.772 50.2448C201.705 50.2169 201.633 50.2025 201.56 50.2025C201.487 50.2025 201.414 50.2169 201.347 50.2448C201.28 50.2727 201.218 50.3136 201.167 50.3652C201.115 50.4168 201.074 50.478 201.046 50.5454C201.019 50.6128 201.004 50.6851 201.004 50.758V53.1188H198.643C198.57 53.1188 198.498 53.1332 198.431 53.1611C198.363 53.189 198.302 53.2299 198.251 53.2815C198.199 53.3331 198.158 53.3943 198.13 53.4617C198.102 53.5291 198.088 53.6014 198.088 53.6743C198.088 53.7473 198.102 53.8195 198.13 53.8869C198.158 53.9543 198.199 54.0156 198.251 54.0671C198.302 54.1187 198.363 54.1596 198.431 54.1876C198.498 54.2155 198.57 54.2298 198.643 54.2298H201.004V56.5906C201.004 56.6636 201.019 56.7358 201.046 56.8032C201.074 56.8706 201.115 56.9318 201.167 56.9834C201.218 57.035 201.28 57.0759 201.347 57.1038C201.414 57.1318 201.487 57.1461 201.56 57.1461C201.707 57.1461 201.848 57.0876 201.952 56.9834C202.057 56.8792 202.115 56.738 202.115 56.5906V54.2298H204.476C204.549 54.2298 204.621 54.2155 204.689 54.1875C204.756 54.1596 204.817 54.1187 204.869 54.0671C204.92 54.0155 204.961 53.9543 204.989 53.8869C205.017 53.8195 205.031 53.7473 205.031 53.6743C205.031 53.6014 205.017 53.5291 204.989 53.4617C204.961 53.3943 204.92 53.3331 204.869 53.2815C204.817 53.2299 204.756 53.189 204.689 53.1611C204.621 53.1332 204.549 53.1188 204.476 53.1188L204.476 53.1188Z" fill="white"/>
<path d="M81.9728 60.0366C85.8076 60.0366 88.9163 56.9279 88.9163 53.0931C88.9163 49.2584 85.8076 46.1497 81.9728 46.1497C78.138 46.1497 75.0293 49.2584 75.0293 53.0931C75.0293 56.9279 78.138 60.0366 81.9728 60.0366Z" fill="#D2AB68"/>
<path d="M84.8568 52.5101H82.4961V50.1493C82.4961 50.0763 82.4817 50.0041 82.4538 49.9367C82.4259 49.8693 82.3849 49.808 82.3334 49.7565C82.2818 49.7049 82.2205 49.664 82.1531 49.636C82.0857 49.6081 82.0135 49.5938 81.9406 49.5938C81.8676 49.5937 81.7954 49.6081 81.728 49.636C81.6606 49.664 81.5993 49.7049 81.5478 49.7565C81.4962 49.808 81.4553 49.8693 81.4273 49.9367C81.3994 50.0041 81.385 50.0763 81.385 50.1493V52.5101H79.0243C78.9513 52.5101 78.8791 52.5244 78.8117 52.5523C78.7443 52.5803 78.683 52.6212 78.6315 52.6728C78.5799 52.7243 78.539 52.7856 78.511 52.853C78.4831 52.9204 78.4688 52.9926 78.4688 53.0656C78.4687 53.2129 78.5273 53.3542 78.6315 53.4584C78.7356 53.5626 78.8769 53.6211 79.0243 53.6211H81.385V55.9818C81.385 56.0548 81.3994 56.127 81.4273 56.1944C81.4552 56.2618 81.4962 56.3231 81.5477 56.3747C81.5993 56.4262 81.6606 56.4672 81.728 56.4951C81.7954 56.523 81.8676 56.5374 81.9406 56.5374C82.0135 56.5374 82.0857 56.523 82.1531 56.4951C82.2205 56.4672 82.2818 56.4262 82.3334 56.3747C82.3849 56.3231 82.4259 56.2618 82.4538 56.1945C82.4817 56.1271 82.4961 56.0548 82.4961 55.9819V53.6211H84.8568C84.9298 53.6211 85.002 53.6067 85.0694 53.5788C85.1368 53.5509 85.1981 53.5099 85.2497 53.4584C85.3012 53.4068 85.3422 53.3455 85.3701 53.2781C85.398 53.2107 85.4124 53.1385 85.4124 53.0655C85.4124 52.9182 85.3538 52.7769 85.2497 52.6727C85.1455 52.5686 85.0042 52.51 84.8568 52.51V52.5101Z" fill="white"/>
<path d="M133.956 43.5013C134.082 43.8845 134.123 44.2908 134.076 44.6916C134.029 45.0924 133.894 45.4779 133.682 45.821C133.469 46.1642 133.184 46.4566 132.846 46.6776C132.509 46.8986 132.127 47.043 131.727 47.1004L128.517 69.0156L123.25 66.4434L128.547 44.5678C128.495 43.8903 128.694 43.2173 129.105 42.6763C129.516 42.1353 130.111 41.7639 130.778 41.6324C131.444 41.5009 132.136 41.6186 132.722 41.963C133.307 42.3075 133.746 42.8548 133.956 43.5013L133.956 43.5013Z" fill="#EAC3C1"/>
<path d="M95.6096 113.69C95.844 113.362 96.0036 112.986 96.0771 112.589C96.1505 112.192 96.1361 111.784 96.0347 111.393C95.9334 111.003 95.7476 110.639 95.4905 110.328C95.2335 110.017 94.9113 109.766 94.5467 109.593L96.7127 86.2817L92.1761 88.6071L90.7595 111.07C90.5093 111.702 90.4995 112.404 90.732 113.042C90.9644 113.681 91.423 114.212 92.0209 114.534C92.6187 114.857 93.3142 114.95 93.9756 114.794C94.6371 114.639 95.2184 114.246 95.6095 113.69H95.6096Z" fill="#EAC3C1"/>
<path d="M98.7078 101.9L118.176 101.151L119.299 80.9343H96.8359L98.7078 101.9Z" fill="#EAC3C1"/>
<path d="M95.0944 173.298L98.4212 173.297L100.004 160.466H95.0938L95.0944 173.298Z" fill="#EAC3C1"/>
<path d="M94.2705 171.656L99.5294 171.343V173.596L104.529 177.049C104.776 177.219 104.962 177.464 105.06 177.748C105.158 178.032 105.163 178.339 105.073 178.626C104.984 178.912 104.805 179.163 104.564 179.341C104.322 179.518 104.03 179.614 103.73 179.614H97.4686L96.3894 177.386L95.968 179.614H93.6074L94.2705 171.656Z" fill="#2B2B2B"/>
<path d="M109.891 173.298L113.218 173.297L114.801 160.466H109.891L109.891 173.298Z" fill="#EAC3C1"/>
<path d="M95.7712 118.652C92.6135 101.857 98.4385 97.154 98.4385 97.154L118.572 95.9412C123.874 108.104 123.147 118.44 123.147 118.44L119.364 144.404L114.515 167.72L108.655 167.446L110.906 137.991L110.164 113.27L99.963 165.857L94.4668 165.146L95.8349 119.657C95.8349 119.657 95.2904 118.709 95.7712 118.652Z" fill="#585656"/>
<path d="M100.812 64.1321C100.812 64.1321 93.4545 65.5871 92.1868 71.8616C90.9191 78.136 90.1035 92.3347 90.1035 92.3347L90.3811 94.312L97.498 95.9623L102.04 76.0675L100.812 64.1321Z" fill="#193B61"/>
<path d="M117.602 66.2501C117.602 66.2501 118.347 65.205 122.524 65.0438C122.696 65.0372 122.483 64.6961 122.483 64.6961L124.491 54.8792L131.185 58.585L130.055 68.8768L119.056 81.3869L117.602 66.2501Z" fill="#193B61"/>
<path d="M113.218 99.4479C110.067 99.4481 105.324 99.1004 98.1833 98.0403C97.7234 97.971 97.2976 97.7563 96.9683 97.4278C96.639 97.0993 96.4234 96.6742 96.3529 96.2144C96.1197 95.9682 95.968 95.6561 95.9183 95.3207C95.8687 94.9852 95.9236 94.6426 96.0755 94.3394L96.0821 94.3264L95.9203 94.1357C95.6701 93.8418 95.5231 93.4739 95.5019 93.0885C95.4806 92.703 95.5862 92.3213 95.8026 92.0016L93.8033 72.2498C93.5789 70.6788 93.9224 69.0794 94.7721 67.739C95.6217 66.3987 96.9217 65.4056 98.4383 64.9383L99.2546 64.6841L102.342 60.6461L102.403 60.6468L112.313 60.7788L115.53 64.8629L120.728 66.0888L120.742 66.168L121.949 73.1424C122.577 76.7699 121.137 78.1969 119.299 81.3868L119.627 94.2779L119.871 94.7225C120.007 94.9686 120.053 95.2545 120 95.5306C119.947 95.8067 119.8 96.0557 119.583 96.2346C119.747 96.7032 119.758 97.2118 119.615 97.6871L119.488 98.1074C119.488 98.1195 119.454 98.2903 119.179 98.4987C118.685 98.8746 117.263 99.4479 113.218 99.4479Z" fill="#193B61"/>
<path d="M109.067 171.656L114.326 171.343V173.596L119.326 177.049C119.573 177.219 119.759 177.464 119.857 177.748C119.955 178.032 119.959 178.339 119.87 178.626C119.781 178.912 119.602 179.163 119.361 179.341C119.119 179.518 118.827 179.614 118.526 179.614H112.265L111.186 177.386L110.765 179.614H108.404L109.067 171.656Z" fill="#2B2B2B"/>
<path d="M114.591 51.8466C115.278 47.6109 112.402 43.62 108.166 42.9327C103.931 42.2454 99.9397 45.1218 99.2524 49.3575C98.565 53.5932 101.441 57.5841 105.677 58.2714C109.913 58.9587 113.904 56.0823 114.591 51.8466Z" fill="#EAC3C1"/>
<path d="M111.464 43.0101C108.617 41.0516 106.109 40.7533 104.049 41.3087C103.782 40.8957 103.407 40.5632 102.966 40.3469C101.359 36.2987 96.4698 33.8675 92.2738 35.0493C88.0508 36.2388 85.137 40.9167 85.9316 45.2315C86.424 47.906 88.1073 50.222 88.7843 52.8559C90.0948 57.9546 86.8978 63.7952 81.8965 65.4388C86.6318 66.3896 91.8443 63.4971 93.5431 58.9758C94.3682 56.7798 94.418 54.3821 94.5229 52.0385C94.5505 50.4208 94.7487 48.8106 95.1142 47.2345C95.2955 46.5274 95.5518 45.8417 95.8787 45.189C96.5906 43.7543 97.773 42.6071 99.2286 41.9389C99.0983 42.3421 99.0657 42.7705 99.1335 43.1887C99.2013 43.6069 99.3677 44.003 99.6188 44.3443C98.5082 45.7354 97.9037 47.2399 97.9037 48.1408C95.5968 52.3572 98.8958 55.979 103.112 58.2859C104.794 59.2108 106.736 59.5494 108.631 59.2481L108.808 58.495L109.047 59.1733L109.845 61.4474C110.765 61.8927 111.677 62.3807 112.582 62.9116C112.238 61.298 111.96 59.6873 111.769 58.1125C111.504 55.9691 112.427 52.7782 113.093 50.8377C113.506 49.6417 113.718 48.3856 113.72 47.1204V47.0651L114.369 49.1479L116.73 48.1408C116.29 45.6218 116.73 42.7621 111.464 43.0101Z" fill="#2B2B2B"/>
<path d="M81.1779 107.518C85.0126 107.518 88.1213 104.41 88.1213 100.575C88.1213 96.7402 85.0126 93.6315 81.1779 93.6315C77.3431 93.6315 74.2344 96.7402 74.2344 100.575C74.2344 104.41 77.3431 107.518 81.1779 107.518Z" fill="#F2F2F2"/>
<path d="M185.65 96.5845H161.296C160.543 96.5836 159.822 96.2842 159.289 95.7521C158.757 95.2199 158.458 94.4984 158.457 93.7458V80.4815C158.458 79.7289 158.757 79.0074 159.289 78.4752C159.822 77.9431 160.543 77.6438 161.296 77.6429H185.65C186.402 77.6438 187.124 77.9431 187.656 78.4752C188.188 79.0074 188.487 79.7289 188.488 80.4815V93.7458C188.487 94.4984 188.188 95.2199 187.656 95.7521C187.124 96.2842 186.402 96.5836 185.65 96.5845Z" fill="#F2F2F2"/>
<path d="M186.01 91.1965C188.046 91.1965 189.697 89.5456 189.697 87.5091C189.697 85.4727 188.046 83.8218 186.01 83.8218C183.973 83.8218 182.322 85.4727 182.322 87.5091C182.322 89.5456 183.973 91.1965 186.01 91.1965Z" fill="#D2AB68"/>
<path d="M187.541 87.1995H186.287V85.9458C186.287 85.907 186.28 85.8687 186.265 85.8329C186.25 85.7971 186.228 85.7646 186.201 85.7372C186.173 85.7098 186.141 85.688 186.105 85.6732C186.069 85.6584 186.031 85.6508 185.992 85.6508C185.914 85.6508 185.839 85.6818 185.784 85.7372C185.728 85.7925 185.697 85.8675 185.697 85.9458V87.1995H184.443C184.365 87.1995 184.29 87.2306 184.235 87.2859C184.18 87.3412 184.148 87.4162 184.148 87.4945C184.148 87.5332 184.156 87.5716 184.171 87.6074C184.186 87.6432 184.207 87.6757 184.235 87.7031C184.262 87.7305 184.295 87.7522 184.331 87.767C184.366 87.7819 184.405 87.7895 184.443 87.7895H185.697V89.0432C185.697 89.0819 185.705 89.1203 185.72 89.1561C185.734 89.1919 185.756 89.2244 185.784 89.2518C185.811 89.2792 185.843 89.3009 185.879 89.3157C185.915 89.3306 185.953 89.3382 185.992 89.3382C186.07 89.3382 186.145 89.3071 186.201 89.2518C186.256 89.1965 186.287 89.1214 186.287 89.0432V87.7895H187.541C187.619 87.7895 187.694 87.7584 187.75 87.7031C187.805 87.6478 187.836 87.5727 187.836 87.4945C187.836 87.4557 187.828 87.4174 187.813 87.3816C187.799 87.3458 187.777 87.3133 187.75 87.2859C187.722 87.2585 187.69 87.2368 187.654 87.2219C187.618 87.2071 187.58 87.1995 187.541 87.1995L187.541 87.1995Z" fill="white"/>
<path d="M195.572 92.8203H175.502C174.65 92.8193 173.834 92.4805 173.231 91.8782C172.629 91.2759 172.29 90.4592 172.289 89.6074V77.6272C172.289 77.4705 172.352 77.3202 172.463 77.2095C172.574 77.0988 172.724 77.0366 172.881 77.0366C173.038 77.0366 173.188 77.0988 173.299 77.2095C173.41 77.3202 173.473 77.4705 173.473 77.6272V80.8357L196.785 82.9548C197.251 82.9631 197.695 83.1538 198.021 83.4858C198.348 83.8178 198.531 84.2647 198.532 84.7305C198.532 84.767 198.528 84.8036 198.521 84.8395L197.347 91.105C197.33 91.565 197.136 92.0009 196.805 92.3208C196.474 92.6407 196.032 92.8198 195.572 92.8203ZM173.473 82.0244V89.6074C173.474 90.1453 173.688 90.6611 174.068 91.0415C174.448 91.4218 174.964 91.6358 175.502 91.6364H195.572C195.729 91.6362 195.879 91.5738 195.99 91.4628C196.101 91.3519 196.164 91.2014 196.164 91.0445C196.164 91.0079 196.167 90.9714 196.174 90.9354L197.346 84.6848C197.334 84.5362 197.267 84.3975 197.158 84.2962C197.048 84.195 196.905 84.1387 196.756 84.1385C196.738 84.1385 196.72 84.1377 196.702 84.136L173.473 82.0244Z" fill="#2B2B2B"/>
<path d="M170.17 98.345C170.715 98.345 171.157 97.9033 171.157 97.3584C171.157 96.8135 170.715 96.3718 170.17 96.3718C169.625 96.3718 169.184 96.8135 169.184 97.3584C169.184 97.9033 169.625 98.345 170.17 98.345Z" fill="#2B2B2B"/>
<path d="M194.783 98.345C195.328 98.345 195.77 97.9033 195.77 97.3584C195.77 96.8135 195.328 96.3718 194.783 96.3718C194.239 96.3718 193.797 96.8135 193.797 97.3584C193.797 97.9033 194.239 98.345 194.783 98.345Z" fill="#2B2B2B"/>
<path d="M195.77 96.3719H169.381C169.224 96.3719 169.073 96.3095 168.962 96.1985C168.851 96.0875 168.789 95.9369 168.789 95.7799C168.789 95.6229 168.851 95.4724 168.962 95.3614C169.073 95.2504 169.224 95.188 169.381 95.188H195.77C195.927 95.188 196.078 95.2504 196.189 95.3614C196.3 95.4724 196.362 95.6229 196.362 95.7799C196.362 95.9369 196.3 96.0875 196.189 96.1985C196.078 96.3095 195.927 96.3719 195.77 96.3719Z" fill="#2B2B2B"/>
<path d="M174.459 78.0218H169.329C169.172 78.0214 169.022 77.9589 168.911 77.8479C168.8 77.7369 168.738 77.5866 168.738 77.4298C168.738 77.2731 168.8 77.1227 168.911 77.0117C169.022 76.9008 169.172 76.8382 169.329 76.8379H174.459C174.616 76.8382 174.766 76.9008 174.877 77.0117C174.987 77.1227 175.05 77.2731 175.05 77.4298C175.05 77.5866 174.987 77.7369 174.877 77.8479C174.766 77.9589 174.616 78.0214 174.459 78.0218Z" fill="#2B2B2B"/>
<path d="M178.575 96.0705C178.434 96.0707 178.297 96.0199 178.19 95.9276L174.299 92.5841C174.24 92.5335 174.191 92.4717 174.156 92.4023C174.121 92.3329 174.099 92.2572 174.094 92.1796C174.088 92.102 174.097 92.024 174.121 91.95C174.145 91.876 174.184 91.8076 174.235 91.7485C174.285 91.6895 174.347 91.641 174.417 91.6059C174.486 91.5708 174.562 91.5498 174.64 91.544C174.717 91.5382 174.795 91.5478 174.869 91.5722C174.943 91.5965 175.011 91.6353 175.07 91.6861L178.961 95.0296C179.053 95.1084 179.118 95.2134 179.148 95.3305C179.179 95.4476 179.172 95.5711 179.13 95.6844C179.088 95.7978 179.013 95.8956 178.913 95.9646C178.814 96.0336 178.696 96.0706 178.575 96.0705V96.0705Z" fill="#2B2B2B"/>
<path d="M179.395 92.4566C179.317 92.4566 179.24 92.4413 179.168 92.4116C179.096 92.3819 179.031 92.3383 178.976 92.2833C178.921 92.2283 178.878 92.1631 178.848 92.0913C178.818 92.0195 178.803 91.9425 178.803 91.8648V82.3627C178.803 82.2057 178.865 82.0551 178.976 81.9441C179.087 81.8331 179.238 81.7708 179.395 81.7708C179.552 81.7708 179.702 81.8331 179.813 81.9441C179.924 82.0551 179.987 82.2057 179.987 82.3627V91.8647C179.987 91.9424 179.971 92.0194 179.942 92.0912C179.912 92.163 179.868 92.2283 179.813 92.2833C179.758 92.3382 179.693 92.3818 179.621 92.4116C179.549 92.4413 179.472 92.4566 179.395 92.4566H179.395Z" fill="#2B2B2B"/>
<path d="M191.899 92.4566C191.821 92.4566 191.744 92.4413 191.672 92.4115C191.6 92.3818 191.535 92.3382 191.48 92.2832C191.425 92.2283 191.381 92.163 191.352 92.0912C191.322 92.0194 191.307 91.9424 191.307 91.8647V83.1519C191.307 82.9951 191.37 82.8449 191.48 82.7342C191.591 82.6235 191.742 82.5613 191.899 82.5613C192.055 82.5613 192.206 82.6235 192.317 82.7342C192.428 82.8449 192.49 82.9951 192.491 83.1519V91.8646C192.491 91.9424 192.475 92.0193 192.445 92.0912C192.416 92.163 192.372 92.2282 192.317 92.2832C192.262 92.3382 192.197 92.3818 192.125 92.4115C192.053 92.4413 191.976 92.4566 191.899 92.4566H191.899Z" fill="#2B2B2B"/>
</g>
<defs>
<clipPath id="clip0_2_7349">
<rect width="244.429" height="180" fill="white"/>
</clipPath>
</defs>
</svg>
