<svg width="229" height="180" viewBox="0 0 229 180" fill="none" xmlns="http://www.w3.org/2000/svg">
<path d="M54.8623 97.5933C53.0385 87.8324 55.9099 76.7277 63.8906 70.8195C63.4383 81.6084 66.8167 92.2095 73.4282 100.747C75.9899 104.031 79.181 107.416 79.0819 111.579C79.0203 114.17 77.6193 116.583 75.773 118.401C73.9266 120.219 71.6523 121.53 69.4051 122.821L69.0553 123.365C62.468 115.935 56.6861 107.354 54.8623 97.5933Z" fill="#F0F0F0"/>
<path d="M64.0369 70.9688C60.6839 78.4728 59.7807 86.8426 61.4554 94.8892C61.7851 96.6279 62.3869 98.3037 63.2385 99.855C64.117 101.339 65.3768 102.561 66.8872 103.394C68.28 104.199 69.7978 104.861 70.9706 105.99C71.5624 106.577 72.0234 107.282 72.3234 108.06C72.6234 108.838 72.7557 109.67 72.7115 110.502C72.6553 112.579 71.8563 114.512 71.0092 116.375C70.0687 118.443 69.0591 120.577 69.1201 122.902C69.1274 123.184 68.6898 123.179 68.6824 122.897C68.5763 118.852 71.5014 115.602 72.1531 111.72C72.4573 109.909 72.2173 107.994 70.9437 106.59C69.8301 105.362 68.2655 104.678 66.8483 103.876C65.3629 103.085 64.0938 101.943 63.1517 100.548C62.2238 99.0454 61.5585 97.3955 61.1842 95.6694C60.2795 91.7968 59.9893 87.806 60.3243 83.8432C60.6815 79.3185 61.8101 74.8881 63.6613 70.7439C63.776 70.4875 64.1508 70.714 64.0369 70.9687L64.0369 70.9688Z" fill="white"/>
<path d="M60.7621 92.33C59.374 92.4277 57.9962 92.0288 56.875 91.2044C55.7538 90.3801 54.9621 89.1841 54.6413 87.8299C54.5774 87.5557 55.0005 87.4434 55.0645 87.718C55.3609 88.9796 56.0985 90.0936 57.1441 90.8591C58.1898 91.6245 59.4746 91.991 60.7667 91.8924C61.0475 91.8713 61.0414 92.309 60.7621 92.33Z" fill="white"/>
<path d="M66.1266 103.079C68.0111 100.948 69.0231 98.185 68.9609 95.3409C68.9545 95.0591 69.3921 95.064 69.3985 95.3455C69.4577 98.3052 68.3987 101.178 66.4328 103.392C66.2452 103.603 65.94 103.289 66.1266 103.079V103.079Z" fill="white"/>
<path d="M61.1938 79.5902C61.7388 79.6643 62.2937 79.6019 62.8086 79.4086C63.3235 79.2152 63.7823 78.897 64.1439 78.4826C64.3286 78.2695 64.6337 78.5835 64.4501 78.7953C64.0485 79.2513 63.5413 79.6021 62.9729 79.817C62.4044 80.0318 61.792 80.1042 61.1892 80.0278C61.1318 80.0253 61.0774 80.0011 61.0372 79.9601C60.997 79.919 60.9739 79.8642 60.9727 79.8067C60.9736 79.7487 60.9973 79.6935 61.0387 79.653C61.0801 79.6124 61.1358 79.5899 61.1938 79.5902H61.1938Z" fill="white"/>
<path d="M96.5268 78.8932C96.4152 79.0296 96.3036 79.1659 96.1929 79.3058C94.7023 81.1467 93.3636 83.1056 92.1902 85.1632C92.0969 85.3209 92.0048 85.482 91.9163 85.642C89.142 90.6295 87.3179 96.0887 86.5365 101.742C86.2277 103.992 86.0904 106.262 86.126 108.533C86.1753 111.669 86.4783 115.065 85.517 117.949C85.4201 118.251 85.3046 118.547 85.1711 118.835L69.7459 123.749C69.7052 123.743 69.6655 123.74 69.6247 123.734L69.0178 123.958C69.0078 123.841 68.9999 123.72 68.9899 123.603C68.9838 123.535 68.9811 123.466 68.975 123.398C68.9721 123.352 68.9693 123.307 68.964 123.266C68.9629 123.251 68.962 123.235 68.9621 123.224C68.9568 123.183 68.9563 123.144 68.9521 123.107C68.9062 122.427 68.8638 121.747 68.8285 121.064C68.8274 121.061 68.8274 121.061 68.8297 121.056C68.565 115.857 68.732 110.59 69.6931 105.515C69.7221 105.363 69.7497 105.206 69.7857 105.052C70.2317 102.767 70.8636 100.522 71.6752 98.3401C72.1235 97.1467 72.6319 95.9768 73.1984 94.8349C74.668 91.8872 76.5921 89.1889 78.9001 86.839C83.5019 82.1553 89.5504 78.9955 96.0315 78.896C96.1973 78.8935 96.3598 78.8921 96.5268 78.8932Z" fill="#F0F0F0"/>
<path d="M96.5553 79.1001C89.3602 83.073 83.5998 89.2119 80.0923 96.645C79.3088 98.2318 78.7804 99.9321 78.5264 101.683C78.334 103.397 78.6042 105.132 79.3089 106.706C79.9364 108.187 80.7498 109.629 81.0063 111.237C81.1254 112.062 81.0688 112.903 80.8401 113.704C80.6115 114.506 80.216 115.25 79.6796 115.888C78.3844 117.512 76.5827 118.575 74.7848 119.552C72.7885 120.637 70.6978 121.733 69.3465 123.626C69.1827 123.856 68.8363 123.588 68.9998 123.359C71.351 120.065 75.6428 119.232 78.5006 116.524C79.8341 115.261 80.7949 113.588 80.6234 111.7C80.4735 110.049 79.636 108.561 78.9877 107.067C78.2778 105.542 77.9523 103.865 78.0396 102.185C78.2036 100.426 78.6657 98.7083 79.4061 97.1047C81.0153 93.4679 83.1863 90.1068 85.8396 87.1444C88.8491 83.7467 92.4176 80.8888 96.3908 78.6945C96.6368 78.5587 96.7997 78.9653 96.5553 79.1001Z" fill="white"/>
<path d="M81.0804 94.1851C79.9132 93.4273 79.0534 92.2793 78.6544 90.9461C78.2555 89.6129 78.3435 88.1813 78.9026 86.9069C79.0167 86.6495 79.4221 86.8145 79.3079 87.0723C78.785 88.258 78.7032 89.5916 79.0772 90.8324C79.4513 92.0731 80.2565 93.1393 81.3476 93.8385C81.5845 93.9907 81.316 94.3365 81.0804 94.1851H81.0804Z" fill="white"/>
<path d="M78.8918 105.997C81.6795 105.43 84.1511 103.833 85.8138 101.525C85.9784 101.296 86.3248 101.563 86.1605 101.792C84.4258 104.191 81.8503 105.847 78.9481 106.431C78.6714 106.486 78.6167 106.052 78.8918 105.997V105.997Z" fill="white"/>
<path d="M89.0937 84.2724C89.4843 84.6597 89.9649 84.9439 90.4924 85.0996C91.0199 85.2552 91.5779 85.2774 92.1161 85.1642C92.3919 85.1053 92.4463 85.5397 92.1723 85.5982C91.5771 85.7205 90.9609 85.6953 90.3777 85.5246C89.7945 85.3539 89.2619 85.043 88.8266 84.619C88.7822 84.5825 88.7534 84.5304 88.746 84.4734C88.7386 84.4164 88.7532 84.3587 88.7868 84.3121C88.8224 84.2664 88.8746 84.2366 88.9321 84.2291C88.9896 84.2217 89.0477 84.2372 89.0937 84.2723V84.2724Z" fill="white"/>
<path d="M120.757 25.517C120.809 25.7442 120.843 25.9751 120.858 26.2076L138.944 36.6411L143.34 34.1104L148.026 40.2455L140.679 45.4818C140.086 45.9049 139.371 46.124 138.642 46.1062C137.914 46.0885 137.21 45.8348 136.638 45.3834L117.989 30.6708C117.147 30.9823 116.231 31.0303 115.361 30.8082C114.491 30.5861 113.71 30.1046 113.121 29.4276C112.532 28.7507 112.163 27.9104 112.063 27.0185C111.963 26.1266 112.137 25.2255 112.561 24.4349C112.986 23.6443 113.641 23.0017 114.44 22.5926C115.239 22.1835 116.143 22.0274 117.033 22.1448C117.923 22.2623 118.756 22.6479 119.421 23.2503C120.086 23.8527 120.552 24.6433 120.757 25.5171V25.517Z" fill="#EAC3C1"/>
<path d="M139.195 35.489C139.253 35.2229 139.367 34.9722 139.53 34.7542C139.693 34.5362 139.901 34.3559 140.14 34.2257L148.49 29.6763C149.602 28.8371 151.001 28.4731 152.381 28.6641C153.761 28.8551 155.009 29.5856 155.851 30.6954C156.693 31.8051 157.061 33.2035 156.873 34.5839C156.686 35.9643 155.959 37.2141 154.851 38.0591L148.159 44.8575C147.968 45.0515 147.737 45.2021 147.483 45.2989C147.228 45.3958 146.956 45.4367 146.684 45.4188C146.413 45.401 146.148 45.3248 145.909 45.1954C145.669 45.066 145.46 44.8866 145.296 44.6692L139.534 37.0299C139.37 36.8126 139.255 36.5624 139.197 36.2965C139.138 36.0306 139.138 35.7551 139.195 35.489Z" fill="#2B2B2B"/>
<path d="M154.111 9.04041C155.313 5.2117 158.045 1.70015 161.823 0.405841C165.601 -0.888468 171.134 1.08319 173.974 3.91412C179.17 9.09245 180.438 26.8819 176.869 32.5036C176.159 32.466 173.708 32.4382 172.99 32.4113L171.973 29.023V32.3779C166.364 32.2045 160.524 32.3131 154.681 32.4253C154.158 28.4451 152.91 12.8691 154.111 9.04041Z" fill="#2B2B2B"/>
<path d="M152.503 169.749H147.387L144.953 150.016L152.504 150.016L152.503 169.749Z" fill="#EAC3C1"/>
<path d="M197.291 166.568L192.341 167.858L185.008 149.376L192.315 147.472L197.291 166.568Z" fill="#EAC3C1"/>
<path d="M169.096 48.5465L170.256 51.5605L170.024 54.5745L147.336 62.4327L148.462 49.242L151.012 46.2277L169.096 48.5465Z" fill="#EAC3C1"/>
<path d="M161.924 21.4229C166.399 21.4229 170.027 17.7949 170.027 13.3197C170.027 8.84437 166.399 5.21643 161.924 5.21643C157.448 5.21643 153.82 8.84437 153.82 13.3197C153.82 17.7949 157.448 21.4229 161.924 21.4229Z" fill="#EAC3C1"/>
<path d="M156.356 2.76785C157.913 1.81865 159.696 1.3052 161.519 1.28116C163.343 1.25712 165.139 1.72338 166.721 2.6312C168.302 3.53902 169.611 4.85505 170.509 6.44168C171.408 8.02832 171.864 9.82728 171.83 11.6505C167.413 12.7794 162.706 13.2516 157.717 11.9224L156.577 9.13171L155.905 11.9244C154.379 12.9979 152.906 12.996 151.486 11.9186C151.426 10.1006 151.844 8.29858 152.699 6.69276C153.553 5.08693 154.814 3.73353 156.356 2.76785Z" fill="#2B2B2B"/>
<path d="M154.792 179.464H151.161L150.513 176.037L148.854 179.464H139.225C138.764 179.464 138.314 179.317 137.942 179.043C137.571 178.77 137.296 178.384 137.159 177.944C137.021 177.503 137.028 177.03 137.179 176.594C137.329 176.157 137.615 175.781 137.995 175.518L145.684 170.208V166.743L153.772 167.226L154.792 179.464Z" fill="#2B2B2B"/>
<path d="M202.405 175.274L198.892 176.19L197.4 173.037L196.659 176.772L187.341 179.201C186.895 179.317 186.423 179.288 185.994 179.117C185.565 178.946 185.202 178.643 184.958 178.251C184.714 177.859 184.602 177.4 184.637 176.939C184.673 176.479 184.855 176.042 185.156 175.693L191.257 168.615L190.383 165.262L198.331 163.689L202.405 175.274Z" fill="#2B2B2B"/>
<path d="M196.662 154.158L181.666 123.335L176.958 85.8206C180.204 79.7925 174.176 67.5265 174.176 67.5265V62.3765L150.825 66.7818V66.7818C146.048 79.8086 143.732 93.6088 143.994 107.481L144.935 157.349H144.64C144.15 157.349 143.68 157.543 143.334 157.89C142.988 158.236 142.793 158.706 142.793 159.196C142.793 159.685 142.988 160.155 143.334 160.501C143.68 160.848 144.15 161.042 144.64 161.042H153.874C154.364 161.042 154.833 160.848 155.18 160.501C155.526 160.155 155.721 159.685 155.721 159.196C155.721 158.706 155.526 158.236 155.18 157.89C154.833 157.543 154.364 157.349 153.874 157.349H153.636L160.265 93.9082L167.973 125.215L186.599 154.039C186.124 154.076 185.682 154.296 185.366 154.652C185.049 155.009 184.883 155.474 184.902 155.95C184.921 156.426 185.124 156.876 185.468 157.206C185.812 157.536 186.271 157.719 186.747 157.718H195.981C196.411 157.719 196.827 157.569 197.158 157.296C197.489 157.022 197.715 156.642 197.795 156.22C197.876 155.798 197.807 155.361 197.6 154.985C197.393 154.608 197.062 154.316 196.662 154.158H196.662Z" fill="#585656"/>
<path d="M176.288 70.6839H176.288C176.211 70.3826 176.041 70.1132 175.802 69.9145C175.563 69.7158 175.267 69.5979 174.957 69.5778C174.649 66.0587 172.615 43.4901 172.538 42.828L172.535 42.8L171.946 30.2203C171.924 29.7634 171.735 29.3305 171.415 29.0041C171.095 28.6777 170.665 28.4808 170.209 28.4509L167.098 28.2476C167.056 28.2462 167.015 28.2282 166.986 28.1975C166.956 28.1669 166.939 28.1258 166.939 28.0831C166.939 27.7397 166.872 27.3995 166.74 27.0822C166.609 26.7649 166.416 26.4765 166.173 26.2336C165.93 25.9908 165.642 25.7981 165.325 25.6666C165.007 25.5352 164.667 25.4675 164.324 25.4675H155.115C154.519 25.4678 153.943 25.6857 153.496 26.0804C153.048 26.4751 152.761 27.0194 152.686 27.6113C152.682 27.652 152.663 27.6897 152.632 27.7168C152.602 27.744 152.562 27.7585 152.521 27.7576L152.52 27.7575C151.473 27.736 150.454 28.0902 149.647 28.756C148.839 29.4218 148.297 30.355 148.119 31.3863C146.86 38.7111 144.337 55.3358 145.584 64.5781C146.018 67.7955 145.821 72.6345 145.657 75.3265C145.64 75.5866 145.676 75.8475 145.76 76.094C145.845 76.3405 145.977 76.5679 146.15 76.7632C145.783 76.869 145.471 77.1134 145.28 77.4446C145.09 77.7759 145.035 78.1682 145.128 78.5389H145.128C145.224 78.9189 145.467 79.2452 145.803 79.4462C146.14 79.6471 146.542 79.7062 146.922 79.6104L175.217 72.4777C175.597 72.3819 175.923 72.1391 176.124 71.8027C176.325 71.4663 176.384 71.0639 176.288 70.6839Z" fill="#193B61"/>
<path d="M129.523 123.57C129.518 122.744 129.22 121.947 128.683 121.319C128.146 120.692 127.404 120.275 126.588 120.142L76.4235 111.904C75.9425 111.825 75.4501 111.847 74.978 111.969L63.2215 115.009L56.4761 116.755L44.0275 119.973C43.2761 120.168 42.6106 120.607 42.1355 121.221C41.6604 121.835 41.4026 122.59 41.4023 123.366V175.932C41.4061 176.733 41.683 177.509 42.1874 178.132C42.6917 178.755 43.3934 179.187 44.1765 179.357L95.273 178.778C95.5129 178.83 95.7576 178.855 96.003 178.854C96.3605 178.855 96.716 178.801 97.0572 178.694L127.415 179.449C128.131 179.226 128.757 178.777 129.198 178.17C129.639 177.563 129.873 176.83 129.865 176.079L129.523 123.57Z" fill="white"/>
<path d="M129.523 123.57C129.518 122.744 129.22 121.947 128.683 121.319C128.146 120.692 127.404 120.275 126.588 120.142L76.4235 111.904C75.9425 111.825 75.4501 111.847 74.978 111.969L63.2215 115.009L56.4761 116.755L44.0275 119.973C43.2761 120.168 42.6106 120.607 42.1355 121.221C41.6604 121.835 41.4026 122.59 41.4023 123.366V175.932C41.4061 176.733 41.683 177.509 42.1874 178.132C42.6917 178.755 43.3934 179.187 44.1765 179.357L95.273 178.778C95.5129 178.83 95.7576 178.855 96.003 178.854C96.3605 178.855 96.716 178.801 97.0572 178.694L127.415 179.449C128.131 179.226 128.757 178.777 129.198 178.17C129.639 177.563 129.873 176.83 129.865 176.079L129.523 123.57ZM127.152 178.614L96.7943 179.336C96.3613 179.471 95.9009 179.493 95.4569 179.4L44.3575 178.501C43.7704 178.373 43.2444 178.049 42.8665 177.582C42.4885 177.115 42.281 176.533 42.2784 175.932V123.366C42.2788 122.828 42.4441 122.303 42.7522 121.862C43.0603 121.42 43.4962 121.084 44.0013 120.898C44.0815 120.868 44.1634 120.843 44.2465 120.823L57.4163 117.418L65.2043 115.403L75.197 112.818C75.4113 112.761 75.6323 112.733 75.854 112.734C75.9969 112.734 76.1395 112.745 76.2804 112.769L126.445 121.007C126.849 121.073 127.232 121.232 127.563 121.472C127.895 121.712 128.166 122.025 128.355 122.388C128.545 122.755 128.645 123.163 128.647 123.576L128.989 176.085C128.995 176.648 128.82 177.198 128.489 177.654C128.158 178.109 127.689 178.446 127.152 178.614Z" fill="#E5E5E5"/>
<path d="M128.356 122.388C128.321 122.41 128.284 122.427 128.245 122.437L113.489 126.426L108.896 127.667L95.8311 131.198C95.7938 131.207 95.7556 131.212 95.7172 131.212C95.6909 131.212 95.6645 131.21 95.6384 131.207L42.9592 121.602L42.784 121.57C42.6699 121.549 42.5689 121.483 42.5031 121.387C42.4373 121.292 42.4121 121.174 42.4329 121.06C42.4538 120.945 42.519 120.844 42.6143 120.778C42.7096 120.711 42.8274 120.686 42.9417 120.706L44.0017 120.899L95.6997 130.325L106.96 127.282L113.258 125.58L127.786 121.652L128.017 121.591C128.117 121.564 128.222 121.574 128.316 121.618C128.409 121.661 128.484 121.737 128.528 121.83C128.539 121.852 128.548 121.876 128.554 121.9C128.578 121.992 128.572 122.089 128.536 122.177C128.5 122.265 128.437 122.339 128.356 122.388Z" fill="#E5E5E5"/>
<path d="M96.1554 178.957C95.9152 178.957 95.7196 178.763 95.7173 180L95.2793 132.256C95.277 130.537 95.4715 130.339 95.7133 130.336H95.7173C95.9574 130.336 96.1531 130.53 96.1554 132.248L96.5934 179.992C96.5956 178.756 96.4012 178.954 96.1593 178.957H96.1554Z" fill="#E5E5E5"/>
<path d="M113.613 179.511L108.896 179.561L106.96 127.282L57.5599 117.453C57.5115 117.444 57.4637 117.433 57.4169 117.418C57.0374 117.31 56.7059 117.076 56.4766 116.755L63.2221 115.009L65.2048 115.403L112.079 124.727C112.325 124.776 112.558 124.877 112.762 125.024C112.966 125.171 113.135 125.361 113.259 125.58C113.405 125.834 113.61 179.207 113.613 179.511Z" fill="#E5E5E5"/>
<path d="M151.401 27.8831C151.397 27.2605 151.173 26.6595 150.768 26.1865C150.363 25.7136 149.804 25.3993 149.189 25.2994L111.382 19.091C111.02 19.031 110.648 19.0475 110.293 19.1395L101.432 21.4305L96.3486 22.7465L86.9668 25.1717C86.4004 25.3188 85.8989 25.6497 85.5408 26.1125C85.1828 26.5753 84.9884 27.1439 84.9883 27.729V58.7158C84.9911 59.3198 85.1998 59.9047 85.5799 60.374C85.96 60.8434 86.4888 61.169 87.079 61.2973L125.588 69.4908C125.769 69.5296 125.953 69.5488 126.138 69.548C126.408 69.5485 126.676 69.5077 126.933 69.427L149.812 62.2018C150.352 62.0333 150.823 61.6953 151.156 61.2378C151.488 60.7803 151.665 60.2277 151.658 59.6622L151.401 27.8831Z" fill="white"/>
<path d="M110.547 18.9C110.518 18.9 110.489 18.9039 110.461 18.9116L85.7616 25.5395C85.6867 25.5596 85.6204 25.605 85.573 25.6684C85.5257 25.7319 85.5 25.8099 85.5 25.8901V59.9355C85.5003 60.0184 85.5278 60.0988 85.5781 60.1632C85.6284 60.2277 85.6983 60.2724 85.7764 60.29L126.552 69.2922C126.611 69.3051 126.672 69.302 126.73 69.2832L150.956 61.345C151.028 61.3219 151.09 61.2755 151.134 61.2127C151.178 61.1499 151.201 61.0741 151.2 60.9965L150.928 26.0802C150.928 25.9948 150.898 25.9123 150.845 25.8475C150.791 25.7826 150.717 25.7395 150.636 25.7258L110.604 18.9047C110.585 18.9016 110.566 18.9001 110.547 18.9Z" fill="#D2AB68"/>
<path d="M139.315 65.2477L135.854 66.183L134.395 30.6802L97.1642 23.2724C97.1277 23.266 97.0917 23.2572 97.0563 23.246C96.7703 23.1646 96.5205 22.9885 96.3477 22.7465L101.431 21.4304L102.926 21.7275L138.252 28.7546C138.438 28.7913 138.614 28.8677 138.767 28.9786C138.921 29.0895 139.048 29.2323 139.142 29.3972C139.252 29.5886 139.313 65.0188 139.315 65.2477Z" fill="#193B61"/>
<path d="M137.766 45.0054C137.943 45.1569 138.107 45.322 138.259 45.4994L158.997 43.0773L161.014 38.4232L168.436 40.5491L165.666 49.1353C165.442 49.8289 164.999 50.4312 164.404 50.8519C163.809 51.2725 163.093 51.4887 162.365 51.4679L138.62 50.7929C138.131 51.5452 137.424 52.1307 136.594 52.4714C135.763 52.8122 134.849 52.8921 133.972 52.7006C133.095 52.5091 132.298 52.0551 131.685 51.3992C131.073 50.7432 130.675 49.9163 130.543 49.0285C130.412 48.1407 130.555 47.234 130.952 46.429C131.348 45.624 131.981 44.959 132.765 44.5222C133.549 44.0855 134.447 43.8978 135.341 43.9841C136.234 44.0704 137.08 44.4267 137.766 45.0054Z" fill="#EAC3C1"/>
<path d="M158.51 42.0032C158.397 41.7554 158.339 41.4862 158.34 41.2139C158.341 40.9417 158.4 40.6728 158.514 40.4256L162.499 31.792C162.89 30.4551 163.796 29.328 165.017 28.6579C166.238 27.9877 167.675 27.8291 169.013 28.217C170.351 28.6048 171.481 29.5074 172.154 30.7268C172.828 31.9461 172.99 33.3828 172.606 34.7218L171.293 44.1707C171.256 44.4404 171.161 44.6988 171.015 44.9283C170.868 45.1579 170.674 45.3533 170.445 45.501C170.217 45.6488 169.959 45.7456 169.69 45.7848C169.42 45.824 169.145 45.8046 168.884 45.7281L159.702 43.0371C159.44 42.9606 159.199 42.8287 158.993 42.6503C158.787 42.4718 158.623 42.2511 158.51 42.0032Z" fill="#193B61"/>
<path d="M44.366 133.164C51.6712 133.164 57.5932 127.242 57.5932 119.937C57.5932 112.632 51.6712 106.71 44.366 106.71C37.0607 106.71 31.1387 112.632 31.1387 119.937C31.1387 127.242 37.0607 133.164 44.366 133.164Z" fill="#D2AB68"/>
<path d="M42.5603 126.821C42.3319 126.821 42.1066 126.768 41.9023 126.666C41.698 126.564 41.5203 126.415 41.3833 126.232L37.7747 121.421C37.5406 121.109 37.4401 120.716 37.4953 120.33C37.5505 119.944 37.7569 119.595 38.069 119.361C38.3812 119.127 38.7736 119.026 39.1599 119.082C39.5462 119.137 39.8948 119.343 40.1289 119.655L42.4897 122.803L48.5533 113.708C48.6602 113.546 48.7979 113.408 48.9586 113.299C49.1192 113.191 49.2995 113.116 49.4893 113.078C49.6791 113.039 49.8746 113.039 50.0646 113.076C50.2545 113.114 50.4352 113.188 50.5963 113.296C50.7574 113.403 50.8957 113.541 51.0033 113.702C51.1109 113.863 51.1857 114.044 51.2234 114.234C51.2611 114.424 51.2609 114.619 51.2229 114.809C51.1849 114.999 51.1097 115.179 51.0019 115.34L43.7847 126.166C43.6541 126.362 43.4785 126.523 43.2726 126.637C43.0667 126.751 42.8365 126.814 42.6012 126.821C42.5876 126.821 42.5739 126.821 42.5603 126.821Z" fill="white"/>
<path d="M100.686 49.6795C100.644 49.6795 100.603 49.6749 100.563 49.6658L89.1131 47.0803C88.9699 47.0478 88.8455 46.9598 88.7671 46.8356C88.6888 46.7114 88.6629 46.5612 88.6952 46.418C88.7275 46.2748 88.8154 46.1502 88.9394 46.0717C89.0635 45.9932 89.2137 45.9671 89.3569 45.9993L100.807 48.5848C100.94 48.6148 101.057 48.6928 101.136 48.8038C101.215 48.9148 101.251 49.0511 101.236 49.1865C101.221 49.322 101.156 49.4471 101.055 49.5381C100.953 49.629 100.822 49.6794 100.686 49.6795Z" fill="white"/>
<path d="M56.62 153.742C56.5797 153.751 56.5386 153.755 56.4975 153.754L44.7606 153.556C44.6138 153.554 44.4742 153.493 44.3722 153.387C44.2703 153.282 44.2144 153.14 44.2169 152.993C44.2193 152.846 44.2799 152.707 44.3852 152.604C44.4906 152.502 44.6322 152.446 44.779 152.448L56.5158 152.646C56.6521 152.648 56.7827 152.701 56.8828 152.793C56.9828 152.886 57.0452 153.012 57.0581 153.148C57.071 153.283 57.0334 153.419 56.9526 153.529C56.8718 153.638 56.7533 153.715 56.62 153.742Z" fill="#E6E6E6"/>
<path d="M60.6825 160.022C60.6422 160.03 60.6011 160.034 60.56 160.033L48.8231 159.836C48.6763 159.833 48.5367 159.772 48.4347 159.666C48.3328 159.561 48.2769 159.419 48.2794 159.272C48.2818 159.126 48.3424 158.986 48.4477 158.884C48.5531 158.781 48.6947 158.725 48.8415 158.727L60.5784 158.925C60.7146 158.927 60.8452 158.98 60.9453 159.072C61.0453 159.165 61.1077 159.291 61.1206 159.427C61.1335 159.563 61.0959 159.698 61.0151 159.808C60.9343 159.918 60.8159 159.994 60.6825 160.022Z" fill="#E6E6E6"/>
</svg>
