<svg width="25" height="25" viewBox="0 0 25 25" fill="none" xmlns="http://www.w3.org/2000/svg">
<circle cx="12.5" cy="12.5" r="12.5" fill="#F7F7F7"/>
<path d="M7.30729 10.6024L7.30681 10.6028C7.14259 10.75 7.0498 10.9587 7.0498 11.1782V17.175C7.0498 17.3805 7.13146 17.5776 7.2768 17.723C7.42214 17.8683 7.61926 17.95 7.8248 17.95H9.9498C10.1553 17.95 10.3525 17.8683 10.4978 17.723C10.6432 17.5776 10.7248 17.3805 10.7248 17.175V14.2C10.7248 13.9546 10.8223 13.7194 10.9957 13.5459L11.31 13.8602L10.9957 13.5459C11.1692 13.3724 11.4045 13.275 11.6498 13.275H13.3498C13.5951 13.275 13.8304 13.3724 14.0039 13.5459L14.0039 13.5459C14.1774 13.7194 14.2748 13.9546 14.2748 14.2V17.175C14.2748 17.3805 14.3565 17.5776 14.5018 17.723C14.6471 17.8683 14.8443 17.95 15.0498 17.95H17.1748C17.3803 17.95 17.5775 17.8683 17.7228 17.723C17.8682 17.5776 17.9498 17.3805 17.9498 17.175V11.1783C17.9498 11.1783 17.9498 11.1782 17.9498 11.1782C17.9498 11.0696 17.9269 10.9622 17.8827 10.863C17.8385 10.7638 17.7739 10.675 17.6932 10.6024H7.30729ZM7.30729 10.6024L11.9823 6.40169C11.9823 6.40169 11.9823 6.40168 11.9823 6.40168C12.1245 6.27388 12.309 6.20319 12.5002 6.20319C12.6915 6.20319 12.8759 6.27388 13.0182 6.40168C13.0182 6.40168 13.0182 6.40169 13.0182 6.40169L17.693 10.6022L7.30729 10.6024Z" stroke="#C0C0C0"/>
</svg>
