<svg width="12" height="8" viewBox="0 0 12 8" fill="none" xmlns="http://www.w3.org/2000/svg">
<path d="M7.71313 7.18086C7.53688 7.39344 7.56633 7.70865 7.7789 7.8849C7.99148 8.06116 8.30669 8.03171 8.48294 7.81914L7.71313 7.18086ZM11 4L11.3849 4.31914C11.5384 4.13405 11.5384 3.86595 11.3849 3.68086L11 4ZM8.48294 0.180863C8.30669 -0.0317143 7.99148 -0.0611594 7.7789 0.115095C7.56633 0.291349 7.53688 0.606559 7.71313 0.819136L8.48294 0.180863ZM1 3.5C0.723857 3.5 0.5 3.72386 0.5 4C0.5 4.27614 0.723857 4.5 1 4.5L1 3.5ZM8.48294 7.81914L11.3849 4.31914L10.6151 3.68086L7.71313 7.18086L8.48294 7.81914ZM11.3849 3.68086L8.48294 0.180863L7.71313 0.819136L10.6151 4.31914L11.3849 3.68086ZM11 3.5L1 3.5L1 4.5L11 4.5L11 3.5Z" fill="#F1F1F1"/>
</svg>
