<svg width="24" height="25" viewBox="0 0 24 25" fill="none" xmlns="http://www.w3.org/2000/svg">
<path d="M13.73 21.5C13.5544 21.8033 13.3021 22.0552 12.9985 22.2302C12.6948 22.4053 12.3505 22.4974 12 22.4974C11.6495 22.4974 11.3052 22.4053 11.0015 22.2302C10.6979 22.0552 10.4456 21.8033 10.27 21.5M18 8.9C18 7.203 17.368 5.575 16.243 4.375C15.117 3.175 13.59 2.5 12 2.5C10.409 2.5 8.883 3.174 7.757 4.375C6.632 5.575 6 7.203 6 8.9C6 16.367 3 18.5 3 18.5H21C21 18.5 18 16.367 18 8.9Z" stroke="#E2C29B" stroke-linecap="round" stroke-linejoin="round"/>
</svg>
