<svg width="22" height="22" viewBox="0 0 22 22" fill="none" xmlns="http://www.w3.org/2000/svg">
<g clip-path="url(#clip0_2_342)">
<path d="M18.3682 12.1553C18.3228 11.8829 18.0652 11.6989 17.7928 11.7443C17.5204 11.7897 17.3364 12.0473 17.3818 12.3197L18.3682 12.1553ZM18.425 14.575L17.9506 14.7331L17.9535 14.7414L18.425 14.575ZM19.0521 16.3517L18.5806 16.5181L18.5806 16.5181L19.0521 16.3517ZM13.2786 20.1536C13.4738 19.9583 13.4738 19.6417 13.2786 19.4464C13.0833 19.2512 12.7667 19.2512 12.5714 19.4464L13.2786 20.1536ZM9.475 19.5C9.30931 19.2791 8.99591 19.2343 8.775 19.4C8.55409 19.5657 8.50932 19.8791 8.675 20.1L9.475 19.5ZM2.94792 16.3517L2.47642 16.1853L2.47642 16.1853L2.94792 16.3517ZM3.575 14.575L4.0465 14.7414L4.05435 14.7192L4.06007 14.6963L3.575 14.575ZM4.675 5.5L5.12221 5.72361L5.12878 5.71046L5.13457 5.69696L4.675 5.5ZM6.325 3.1625L5.97145 2.80895H5.97145L6.325 3.1625ZM8.8 1.7875L8.93736 2.26826L8.96195 2.26124L8.9857 2.25174L8.8 1.7875ZM11 1.875C11.2761 1.875 11.5 1.65114 11.5 1.375C11.5 1.09886 11.2761 0.875 11 0.875V1.875ZM3.09564 17.3964L2.68878 17.687H2.68878L3.09564 17.3964ZM18.9044 17.3964L18.4975 17.1058L18.4975 17.1058L18.9044 17.3964ZM17.3818 12.3197C17.5211 13.1556 17.6637 13.8723 17.9507 14.7331L18.8993 14.4169C18.6363 13.6277 18.5039 12.9694 18.3682 12.1553L17.3818 12.3197ZM17.9535 14.7414L18.5806 16.5181L19.5236 16.1853L18.8965 14.4086L17.9535 14.7414ZM17.9743 17.375H13.75V18.375H17.9743V17.375ZM12.5714 19.4464C12.1122 19.9057 11.5507 20.125 11 20.125V21.125C11.8243 21.125 12.6378 20.7943 13.2786 20.1536L12.5714 19.4464ZM11 20.125C10.4028 20.125 9.75902 19.8787 9.475 19.5L8.675 20.1C9.21598 20.8213 10.2222 21.125 11 21.125V20.125ZM8.25 17.375H4.02565V18.375H8.25V17.375ZM3.41941 16.5181L4.0465 14.7414L3.1035 14.4086L2.47642 16.1853L3.41941 16.5181ZM4.06007 14.6963C4.33214 13.608 4.625 12.4473 4.625 11.275H3.625C3.625 12.3027 3.36786 13.342 3.08993 14.4537L4.06007 14.6963ZM4.625 11.275V8.25H3.625V11.275H4.625ZM4.625 8.25C4.625 7.32833 4.7578 6.45242 5.12221 5.72361L4.22779 5.27639C3.7672 6.19758 3.625 7.24667 3.625 8.25H4.625ZM5.13457 5.69696C5.5138 4.81209 6.01847 4.17614 6.67855 3.51605L5.97145 2.80895C5.25653 3.52386 4.6612 4.26291 4.21543 5.30304L5.13457 5.69696ZM6.67855 3.51605C7.2899 2.90471 8.03151 2.52708 8.93736 2.26826L8.66264 1.30674C7.64349 1.59792 6.7351 2.04529 5.97145 2.80895L6.67855 3.51605ZM8.9857 2.25174C9.60776 2.00291 10.3689 1.875 11 1.875V0.875C10.2561 0.875 9.36724 1.02209 8.61431 1.32326L8.9857 2.25174ZM8.25 18.375H13.75V17.375H8.25V18.375ZM3.50251 17.1058C3.38065 16.9352 3.34963 16.7159 3.41941 16.5181L2.47642 16.1853C2.2981 16.6906 2.37736 17.251 2.68878 17.687L3.50251 17.1058ZM4.02565 17.375C3.81803 17.375 3.62319 17.2747 3.50251 17.1058L2.68878 17.687C2.99717 18.1188 3.49508 18.375 4.02565 18.375V17.375ZM18.4975 17.1058C18.3768 17.2747 18.182 17.375 17.9743 17.375V18.375C18.5049 18.375 19.0028 18.1188 19.3112 17.687L18.4975 17.1058ZM18.5806 16.5181C18.6504 16.7159 18.6194 16.9352 18.4975 17.1058L19.3112 17.687C19.6226 17.251 19.7019 16.6906 19.5236 16.1853L18.5806 16.5181Z" fill="#193B61"/>
<path d="M19.4168 8.41682C20.1904 7.64323 20.625 6.59402 20.625 5.5C20.625 4.40598 20.1904 3.35677 19.4168 2.58318C18.6432 1.8096 17.594 1.375 16.5 1.375C15.406 1.375 14.3568 1.8096 13.5832 2.58318C12.8096 3.35677 12.375 4.40598 12.375 5.5C12.375 6.59402 12.8096 7.64323 13.5832 8.41682C14.3568 9.1904 15.406 9.625 16.5 9.625C17.594 9.625 18.6432 9.1904 19.4168 8.41682Z" fill="#193B61"/>
<circle cx="16" cy="6" r="6.5" fill="#193B61" stroke="#EAF7FE"/>
<path d="M16.0837 3.204C16.3264 3.204 16.553 3.24 16.7637 3.312C16.9744 3.384 17.1557 3.48933 17.3077 3.628C17.4624 3.764 17.5837 3.93067 17.6717 4.128C17.7597 4.32533 17.8037 4.54933 17.8037 4.8C17.8037 5.01333 17.7717 5.21067 17.7077 5.392C17.6437 5.57333 17.557 5.748 17.4477 5.916C17.3384 6.08133 17.2117 6.24267 17.0677 6.4C16.9264 6.55467 16.7757 6.71333 16.6157 6.876L15.1077 8.42C15.2144 8.39067 15.3224 8.368 15.4317 8.352C15.541 8.33333 15.6464 8.324 15.7477 8.324H17.6677C17.745 8.324 17.8064 8.34667 17.8517 8.392C17.897 8.43733 17.9197 8.496 17.9197 8.568V9H14.0957V8.756C14.0957 8.70533 14.105 8.65333 14.1237 8.6C14.145 8.54667 14.1784 8.49733 14.2237 8.452L16.0597 6.608C16.2117 6.45333 16.3504 6.30533 16.4757 6.164C16.601 6.02 16.7077 5.876 16.7957 5.732C16.8864 5.588 16.9557 5.44267 17.0037 5.296C17.0517 5.14667 17.0757 4.988 17.0757 4.82C17.0757 4.652 17.049 4.50533 16.9957 4.38C16.9424 4.252 16.869 4.14667 16.7757 4.064C16.6824 3.98133 16.573 3.92 16.4477 3.88C16.3224 3.83733 16.1877 3.816 16.0437 3.816C15.8997 3.816 15.7664 3.83733 15.6437 3.88C15.521 3.92267 15.4117 3.98267 15.3157 4.06C15.2224 4.13467 15.1424 4.224 15.0757 4.328C15.0117 4.432 14.9664 4.54667 14.9397 4.672C14.9184 4.74933 14.8864 4.80533 14.8437 4.84C14.801 4.87467 14.745 4.892 14.6757 4.892C14.6624 4.892 14.6477 4.892 14.6317 4.892C14.6184 4.88933 14.6024 4.88667 14.5837 4.884L14.2117 4.82C14.249 4.55867 14.321 4.328 14.4277 4.128C14.5344 3.92533 14.669 3.756 14.8317 3.62C14.997 3.484 15.185 3.38133 15.3957 3.312C15.609 3.24 15.8384 3.204 16.0837 3.204Z" fill="white"/>
</g>
<defs>
<clipPath id="clip0_2_342">
<rect width="22" height="22" fill="white"/>
</clipPath>
</defs>
</svg>
