<svg width="24" height="25" viewBox="0 0 24 25" fill="none" xmlns="http://www.w3.org/2000/svg">
<mask id="path-1-inside-1_2_928" fill="white">
<path d="M17.498 21.3988H6.50391C5.95162 21.3988 5.50391 20.9511 5.50391 20.3989V4.60474C5.50391 4.05245 5.95162 3.60474 6.50391 3.60474H12.7867C13.052 3.60474 13.3063 3.71009 13.4939 3.89763L18.2051 8.6089C18.3927 8.79644 18.498 9.05079 18.498 9.31601V20.3988C18.498 20.9511 18.0503 21.3988 17.498 21.3988Z"/>
</mask>
<path d="M17.7526 8.90179V9.40179C17.9548 9.40179 18.1371 9.27997 18.2145 9.09314C18.2919 8.9063 18.2491 8.69124 18.1061 8.54824L17.7526 8.90179ZM13.3767 8.72606L13.0231 9.07961L13.0231 9.07961L13.3767 8.72606ZM13.201 4.35019L13.5545 3.99664C13.4115 3.85364 13.1965 3.81086 13.0096 3.88825C12.8228 3.96564 12.701 4.14796 12.701 4.35019H13.201ZM10.801 17.4018C10.5248 17.4018 10.301 17.6257 10.301 17.9018C10.301 18.1779 10.5248 18.4018 10.801 18.4018V17.4018ZM15.601 18.4018C15.8771 18.4018 16.101 18.1779 16.101 17.9018C16.101 17.6257 15.8771 17.4018 15.601 17.4018V18.4018ZM15.601 16.0018C15.8771 16.0018 16.101 15.7779 16.101 15.5018C16.101 15.2257 15.8771 15.0018 15.601 15.0018V16.0018ZM10.801 15.0018C10.5248 15.0018 10.301 15.2257 10.301 15.5018C10.301 15.7779 10.5248 16.0018 10.801 16.0018V15.0018ZM10.801 12.6018C10.5248 12.6018 10.301 12.8257 10.301 13.1018C10.301 13.3779 10.5248 13.6018 10.801 13.6018V12.6018ZM15.601 13.6018C15.8771 13.6018 16.101 13.3779 16.101 13.1018C16.101 12.8257 15.8771 12.6018 15.601 12.6018V13.6018ZM17.7526 8.40179H13.801V9.40179H17.7526V8.40179ZM13.801 8.40179C13.7744 8.40179 13.749 8.39126 13.7303 8.3725L13.0231 9.07961C13.2294 9.2859 13.5092 9.40179 13.801 9.40179V8.40179ZM13.7303 8.3725C13.7115 8.35375 13.701 8.32832 13.701 8.30179H12.701C12.701 8.59353 12.8169 8.87332 13.0231 9.07961L13.7303 8.3725ZM13.701 8.30179V4.35019H12.701V8.30179H13.701ZM12.8474 4.70375L17.399 9.25535L18.1061 8.54824L13.5545 3.99664L12.8474 4.70375ZM10.801 18.4018H15.601V17.4018H10.801V18.4018ZM15.601 15.0018H10.801V16.0018H15.601V15.0018ZM10.801 13.6018H15.601V12.6018H10.801V13.6018ZM18.2051 8.6089L18.9122 7.90179L18.9122 7.90179L18.2051 8.6089ZM13.4939 3.89763L12.7867 4.60474V4.60474L13.4939 3.89763ZM6.50391 22.3988H17.498V20.3988H6.50391V22.3988ZM19.498 20.3988V9.31601H17.498V20.3988H19.498ZM18.9122 7.90179L14.201 3.19052L12.7867 4.60474L17.498 9.31601L18.9122 7.90179ZM12.7867 2.60474H6.50391V4.60474H12.7867V2.60474ZM4.50391 4.60474V20.3989H6.50391V4.60474H4.50391ZM14.201 3.19052C13.8259 2.81545 13.3172 2.60474 12.7867 2.60474V4.60474V4.60474L14.201 3.19052ZM19.498 9.31601C19.498 8.78557 19.2873 8.27687 18.9122 7.90179L17.498 9.31601H17.498H19.498ZM17.498 22.3988C18.6026 22.3988 19.498 21.5034 19.498 20.3988H17.498V22.3988ZM6.50391 20.3988V20.3989H4.50391C4.50391 21.5034 5.39934 22.3988 6.50391 22.3988V20.3988ZM6.50391 2.60474C5.39934 2.60474 4.50391 3.50017 4.50391 4.60474H6.50391L6.50391 4.60474V2.60474Z" fill="#9DBACA" mask="url(#path-1-inside-1_2_928)"/>
<ellipse cx="8.97786" cy="13.046" rx="0.705883" ry="0.705882" fill="#9DBACA"/>
<ellipse cx="8.97786" cy="15.4621" rx="0.705883" ry="0.705882" fill="#9DBACA"/>
<ellipse cx="8.97786" cy="17.8768" rx="0.705883" ry="0.705883" fill="#9DBACA"/>
</svg>
