<svg width="25" height="25" viewBox="0 0 25 25" fill="none" xmlns="http://www.w3.org/2000/svg">
<circle cx="12.5" cy="12.5" r="12.5" fill="#F7F7F7"/>
<path d="M12.1598 18.45H8.6748C8.11122 18.45 7.57072 18.2261 7.1722 17.8276C6.77369 17.4291 6.5498 16.8886 6.5498 16.325V8.67499C6.5498 8.1114 6.77369 7.5709 7.1722 7.17239C7.57072 6.77387 8.11122 6.54999 8.6748 6.54999H16.3248C16.8884 6.54999 17.4289 6.77387 17.8274 7.17239C18.2259 7.5709 18.4498 8.1114 18.4498 8.67499V12.16M6.5498 9.94999H18.4498" stroke="#C0C0C0" stroke-linecap="round"/>
<mask id="path-3-inside-1_2_1016" fill="white">
<path d="M19.0297 19.0297C18.3124 19.747 17.3395 20.15 16.325 20.15C15.3105 20.15 14.3376 19.747 13.6203 19.0297C12.903 18.3124 12.5 17.3395 12.5 16.325C12.5 15.3105 12.903 14.3376 13.6203 13.6203C14.3376 12.903 15.3105 12.5 16.325 12.5C17.3395 12.5 18.3124 12.903 19.0297 13.6203C19.747 14.3376 20.15 15.3105 20.15 16.325C20.15 17.3395 19.747 18.3124 19.0297 19.0297Z"/>
</mask>
<path d="M16.825 14.2C16.825 13.9239 16.6011 13.7 16.325 13.7C16.0489 13.7 15.825 13.9239 15.825 14.2H16.825ZM16.325 16.325H15.825V16.825H16.325V16.325ZM18.025 16.825C18.3011 16.825 18.525 16.6011 18.525 16.325C18.525 16.0489 18.3011 15.825 18.025 15.825V16.825ZM15.825 14.2V16.325H16.825V14.2H15.825ZM16.325 16.825H18.025V15.825H16.325V16.825ZM19.0297 19.0297L18.3226 18.3226L18.3226 18.3226L19.0297 19.0297ZM19.0297 13.6203L18.3226 14.3274L18.3226 14.3274L19.0297 13.6203ZM13.6203 13.6203L14.3274 14.3274L14.3274 14.3274L13.6203 13.6203ZM13.6203 19.0297L14.3274 18.3226L14.3274 18.3226L13.6203 19.0297ZM16.325 21.15C17.6047 21.15 18.8319 20.6417 19.7368 19.7368L18.3226 18.3226C17.7928 18.8524 17.0742 19.15 16.325 19.15V21.15ZM19.7368 19.7368C20.6417 18.8319 21.15 17.6047 21.15 16.325H19.15C19.15 17.0742 18.8524 17.7928 18.3226 18.3226L19.7368 19.7368ZM21.15 16.325C21.15 15.0453 20.6417 13.8181 19.7368 12.9132L18.3226 14.3274C18.8524 14.8572 19.15 15.5758 19.15 16.325H21.15ZM19.7368 12.9132C18.8319 12.0083 17.6047 11.5 16.325 11.5V13.5C17.0742 13.5 17.7928 13.7976 18.3226 14.3274L19.7368 12.9132ZM16.325 11.5C15.0453 11.5 13.8181 12.0083 12.9132 12.9132L14.3274 14.3274C14.8572 13.7976 15.5758 13.5 16.325 13.5V11.5ZM12.9132 12.9132C12.0083 13.8181 11.5 15.0453 11.5 16.325H13.5C13.5 15.5758 13.7976 14.8572 14.3274 14.3274L12.9132 12.9132ZM11.5 16.325C11.5 17.6047 12.0083 18.8319 12.9132 19.7368L14.3274 18.3226C13.7976 17.7928 13.5 17.0742 13.5 16.325H11.5ZM12.9132 19.7368C13.8181 20.6417 15.0453 21.15 16.325 21.15V19.15C15.5758 19.15 14.8572 18.8524 14.3274 18.3226L12.9132 19.7368Z" fill="#C0C0C0" mask="url(#path-3-inside-1_2_1016)"/>
</svg>
