<svg width="24" height="25" viewBox="0 0 24 25" fill="none" xmlns="http://www.w3.org/2000/svg">
<path d="M5.79973 5.26933L5.7998 5.26957L6.1913 6.63757L6.29502 7H6.672H19.1427C19.306 7.0001 19.4668 7.04021 19.6111 7.11682C19.7553 7.19342 19.8786 7.3042 19.9702 7.43946C20.0617 7.57472 20.1188 7.73034 20.1363 7.89273L20.6334 7.8391L20.1363 7.89273C20.1538 8.05506 20.1313 8.21921 20.0707 8.37085C20.0707 8.3709 20.0707 8.37095 20.0707 8.371L17.8598 13.8998C17.7298 14.2246 17.5056 14.5031 17.2159 14.6992C16.9262 14.8953 16.5844 15.0001 16.2346 15H16.2345H9.381C9.00091 15 8.63115 14.8762 8.32763 14.6474C8.02418 14.4187 7.80344 14.0974 7.69876 13.7321C7.69874 13.7321 7.69873 13.732 7.69872 13.732C7.69871 13.732 7.69869 13.7319 7.69867 13.7318L5.31987 5.4075C5.31985 5.40743 5.31983 5.40737 5.31981 5.4073C5.31979 5.40724 5.31977 5.40718 5.31976 5.40712C5.24534 5.14623 5.08807 4.91664 4.87168 4.753C4.65519 4.58928 4.39129 4.50047 4.11987 4.5H4.119H3.75C3.6837 4.5 3.62011 4.47366 3.57322 4.42678C3.52634 4.37989 3.5 4.3163 3.5 4.25C3.5 4.1837 3.52634 4.12011 3.57322 4.07322C3.62011 4.02634 3.6837 4 3.75 4H4.11876C4.49874 4.00037 4.86827 4.12441 5.17153 4.35338C5.47483 4.58238 5.69534 4.9039 5.79973 5.26933Z" stroke="#9DBACA"/>
<path d="M10.4197 20.8668C10.2074 20.9547 9.97981 21 9.75 21C9.28587 21 8.84075 20.8156 8.51256 20.4874C8.18437 20.1592 8 19.7141 8 19.25C8 18.7859 8.18437 18.3408 8.51256 18.0126C8.84075 17.6844 9.28587 17.5 9.75 17.5C9.97981 17.5 10.2074 17.5453 10.4197 17.6332C10.632 17.7212 10.8249 17.8501 10.9874 18.0126C11.1499 18.1751 11.2788 18.368 11.3668 18.5803C11.4547 18.7926 11.5 19.0202 11.5 19.25C11.5 19.4798 11.4547 19.7074 11.3668 19.9197C11.2788 20.132 11.1499 20.3249 10.9874 20.4874C10.8249 20.6499 10.632 20.7788 10.4197 20.8668Z" stroke="#9DBACA"/>
<path d="M16.4197 20.8668C16.2074 20.9547 15.9798 21 15.75 21C15.2859 21 14.8408 20.8156 14.5126 20.4874C14.1844 20.1592 14 19.7141 14 19.25C14 18.7859 14.1844 18.3408 14.5126 18.0126C14.8408 17.6844 15.2859 17.5 15.75 17.5C15.9798 17.5 16.2074 17.5453 16.4197 17.6332C16.632 17.7212 16.8249 17.8501 16.9874 18.0126C17.1499 18.1751 17.2788 18.368 17.3668 18.5803C17.4547 18.7926 17.5 19.0202 17.5 19.25C17.5 19.4798 17.4547 19.7074 17.3668 19.9197C17.2788 20.132 17.1499 20.3249 16.9874 20.4874C16.8249 20.6499 16.632 20.7788 16.4197 20.8668Z" stroke="#9DBACA"/>
</svg>
