<svg width="25" height="25" viewBox="0 0 25 25" fill="none" xmlns="http://www.w3.org/2000/svg">
<path d="M6.06149 4.96257L6.06142 4.96233C5.95144 4.57732 5.71911 4.23858 5.39956 3.99731C5.08006 3.75608 4.69072 3.62539 4.29038 3.625H3.90625C3.83166 3.625 3.76012 3.65463 3.70738 3.70738C3.65463 3.76012 3.625 3.83166 3.625 3.90625C3.625 3.98084 3.65463 4.05238 3.70738 4.10512C3.76012 4.15787 3.83166 4.1875 3.90625 4.1875H4.29063H4.29149C4.5697 4.18798 4.8402 4.27901 5.0621 4.44682C5.28399 4.61462 5.44523 4.85008 5.52147 5.11762L5.52138 5.1173L5.04067 5.25467L5.52149 5.11769L6.06149 4.96257ZM6.06149 4.96257L6.4693 6.38757L6.57302 6.75H6.95H19.9403C20.1138 6.75011 20.2847 6.79272 20.438 6.87412C20.5912 6.95551 20.7222 7.07321 20.8195 7.21693C20.9168 7.36064 20.9774 7.52599 20.996 7.69853C21.0146 7.87106 20.9907 8.04553 20.9263 8.20669L18.6233 13.9659C18.4864 14.3081 18.2501 14.6014 17.9449 14.8081C17.6397 15.0147 17.2796 15.1251 16.911 15.125H16.9109H9.77187C9.37142 15.125 8.98185 14.9946 8.66207 14.7535C8.34237 14.5126 8.1098 14.174 7.99951 13.7892M6.06149 4.96257L7.99942 13.7889M7.99942 13.7889L7.51875 13.9266L7.99951 13.7892M7.99942 13.7889C7.99944 13.789 7.99946 13.789 7.99947 13.7891C7.99948 13.7891 7.9995 13.7891 7.99951 13.7892M7.99942 13.7889L7.99951 13.7892" stroke="#9DBACA"/>
<path d="M10.8618 21.2347C10.6381 21.3273 10.3984 21.375 10.1562 21.375C9.66726 21.375 9.19829 21.1807 8.85252 20.835C8.50675 20.4892 8.3125 20.0202 8.3125 19.5312C8.3125 19.0423 8.50675 18.5733 8.85252 18.2275C9.19829 17.8818 9.66726 17.6875 10.1562 17.6875C10.3984 17.6875 10.6381 17.7352 10.8618 17.8278C11.0855 17.9205 11.2888 18.0563 11.46 18.2275C11.6312 18.3987 11.767 18.602 11.8597 18.8257C11.9523 19.0494 12 19.2891 12 19.5312C12 19.7734 11.9523 20.0131 11.8597 20.2368C11.767 20.4605 11.6312 20.6638 11.46 20.835C11.2888 21.0062 11.0855 21.142 10.8618 21.2347Z" stroke="#9DBACA"/>
<path d="M17.1118 21.2347C16.8881 21.3273 16.6484 21.375 16.4062 21.375C15.9173 21.375 15.4483 21.1807 15.1025 20.835C14.7568 20.4892 14.5625 20.0202 14.5625 19.5312C14.5625 19.0423 14.7568 18.5733 15.1025 18.2275C15.4483 17.8818 15.9173 17.6875 16.4062 17.6875C16.6484 17.6875 16.8881 17.7352 17.1118 17.8278C17.3355 17.9205 17.5388 18.0563 17.71 18.2275C17.8812 18.3987 18.017 18.602 18.1097 18.8257C18.2023 19.0494 18.25 19.2891 18.25 19.5312C18.25 19.7734 18.2023 20.0131 18.1097 20.2368C18.017 20.4605 17.8812 20.6638 17.71 20.835C17.5388 21.0062 17.3355 21.142 17.1118 21.2347Z" stroke="#9DBACA"/>
</svg>
