<svg width="25" height="25" viewBox="0 0 25 25" fill="none" xmlns="http://www.w3.org/2000/svg">
<circle cx="12.5" cy="12.5" r="12.5" fill="#F7F7F7"/>
<path d="M6.91849 6.6875V6.6875H6.91763H6.65625C6.64796 6.6875 6.64001 6.68421 6.63415 6.67835C6.62829 6.67249 6.625 6.66454 6.625 6.65625C6.625 6.64796 6.62829 6.64001 6.63415 6.63415C6.64001 6.62829 6.64796 6.625 6.65625 6.625H6.91738C7.15484 6.62525 7.38578 6.70277 7.57529 6.84586C7.76486 6.98899 7.90268 7.18994 7.96792 7.41833L7.96799 7.41857L8.2453 8.38757L8.34902 8.75H8.726H17.5593C17.6512 8.75006 17.7416 8.77262 17.8228 8.81571C17.9039 8.8588 17.9733 8.92111 18.0248 8.9972C18.0763 9.07328 18.1084 9.16082 18.1182 9.25216C18.1281 9.3435 18.1154 9.43587 18.0813 9.52119L16.5153 13.4374C16.4341 13.6404 16.2939 13.8144 16.1128 13.937C15.9318 14.0595 15.7182 14.125 15.4995 14.125H15.4994H10.6449C10.4073 14.125 10.1762 14.0476 9.98652 13.9046C9.79682 13.7616 9.65883 13.5608 9.59342 13.3324L7.90849 7.43619C7.90847 7.43612 7.90845 7.43605 7.90843 7.43598C7.90841 7.43592 7.9084 7.43586 7.90838 7.4358C7.84698 7.2206 7.71724 7.03121 7.53874 6.89622C7.36014 6.76115 7.14242 6.68789 6.91849 6.6875Z" stroke="#C0C0C0"/>
<path d="M11.3248 18.2917C11.1921 18.3467 11.0499 18.375 10.9062 18.375C10.6162 18.375 10.338 18.2598 10.1329 18.0546C9.92773 17.8495 9.8125 17.5713 9.8125 17.2812C9.8125 16.9912 9.92773 16.713 10.1329 16.5079C10.338 16.3027 10.6162 16.1875 10.9062 16.1875C11.0499 16.1875 11.1921 16.2158 11.3248 16.2708C11.4575 16.3257 11.5781 16.4063 11.6796 16.5079C11.7812 16.6094 11.8618 16.73 11.9167 16.8627C11.9717 16.9954 12 17.1376 12 17.2812C12 17.4249 11.9717 17.5671 11.9167 17.6998C11.8618 17.8325 11.7812 17.9531 11.6796 18.0546C11.5781 18.1562 11.4575 18.2368 11.3248 18.2917Z" stroke="#C0C0C0"/>
<path d="M15.5748 18.2917C15.4421 18.3467 15.2999 18.375 15.1562 18.375C14.8662 18.375 14.588 18.2598 14.3829 18.0546C14.1777 17.8495 14.0625 17.5713 14.0625 17.2812C14.0625 16.9912 14.1777 16.713 14.3829 16.5079C14.588 16.3027 14.8662 16.1875 15.1562 16.1875C15.2999 16.1875 15.4421 16.2158 15.5748 16.2708C15.7075 16.3257 15.8281 16.4063 15.9296 16.5079C16.0312 16.6094 16.1118 16.73 16.1667 16.8627C16.2217 16.9954 16.25 17.1376 16.25 17.2812C16.25 17.4249 16.2217 17.5671 16.1667 17.6998C16.1118 17.8325 16.0312 17.9531 15.9296 18.0546C15.8281 18.1562 15.7075 18.2368 15.5748 18.2917Z" stroke="#C0C0C0"/>
</svg>
