<svg width="20" height="20" viewBox="0 0 20 20" fill="none" xmlns="http://www.w3.org/2000/svg">
<path d="M3.75 2.5H16.25C16.5815 2.5 16.8995 2.6317 17.1339 2.86612C17.3683 3.10054 17.5 3.41848 17.5 3.75V16.25C17.5 16.5815 17.3683 16.8995 17.1339 17.1339C16.8995 17.3683 16.5815 17.5 16.25 17.5H3.75C3.41848 17.5 3.10054 17.3683 2.86612 17.1339C2.6317 16.8995 2.5 16.5815 2.5 16.25V3.75C2.5 3.41848 2.6317 3.10054 2.86612 2.86612C3.10054 2.6317 3.41848 2.5 3.75 2.5Z" stroke="#D9D9D9"/>
<path d="M8.35297 12.7875L8.00526 13.1468C8.20078 13.336 8.5117 13.3342 8.70494 13.1427L8.35297 12.7875ZM6.37114 10.1739C6.17271 9.98185 5.85617 9.98704 5.66413 10.1855C5.4721 10.3839 5.47729 10.7005 5.67573 10.8925L6.37114 10.1739ZM14.3299 7.56765C14.5261 7.37326 14.5275 7.05668 14.3331 6.86055C14.1387 6.66442 13.8221 6.66301 13.626 6.8574L14.3299 7.56765ZM8.70068 12.4282L6.37114 10.1739L5.67573 10.8925L8.00526 13.1468L8.70068 12.4282ZM13.626 6.8574L8.001 12.4324L8.70494 13.1427L14.3299 7.56765L13.626 6.8574Z" fill="#193B61"/>
</svg>
