<svg width="16" height="17" viewBox="0 0 16 17" fill="none" xmlns="http://www.w3.org/2000/svg">
<path d="M8.10526 5.65789C8.10526 5.38175 7.88141 5.15789 7.60526 5.15789C7.32912 5.15789 7.10526 5.38175 7.10526 5.65789H8.10526ZM9.58026 9.3745C9.85641 9.3745 10.0803 9.15064 10.0803 8.8745C10.0803 8.59836 9.85641 8.3745 9.58026 8.3745V9.3745ZM7.60526 8.8745H7.10526C7.10526 9.15064 7.32912 9.3745 7.60526 9.3745V8.8745ZM8 3C11.0374 3 13.5 5.46256 13.5 8.5H14.5C14.5 4.91028 11.5897 2 8 2V3ZM13.5 8.5C13.5 11.5374 11.0374 14 8 14V15C11.5897 15 14.5 12.0897 14.5 8.5H13.5ZM8 14C4.96256 14 2.5 11.5374 2.5 8.5H1.5C1.5 12.0897 4.41028 15 8 15V14ZM2.5 8.5C2.5 5.46256 4.96256 3 8 3V2C4.41028 2 1.5 4.91028 1.5 8.5H2.5ZM7.10526 5.65789V8.8745H8.10526V5.65789H7.10526ZM7.60526 9.3745H9.58026V8.3745H7.60526V9.3745Z" fill="#C0C0C0"/>
</svg>
