<svg width="25" height="25" viewBox="0 0 25 25" fill="none" xmlns="http://www.w3.org/2000/svg">
<circle cx="12.5" cy="12.5" r="12.5" fill="#F7F7F7"/>
<path d="M14.139 8.39131C14.75 8.51053 15.3116 8.80937 15.7518 9.24959C16.192 9.68981 16.4909 10.2514 16.6101 10.8624M14.139 5.88892C15.4085 6.02995 16.5923 6.59845 17.4961 7.50109C18.3999 8.40372 18.9699 9.58684 19.1125 10.8562M18.4869 15.8484V17.7252C18.4876 17.8995 18.4519 18.0719 18.3821 18.2316C18.3123 18.3912 18.2099 18.5345 18.0816 18.6523C17.9532 18.7701 17.8016 18.8598 17.6366 18.9156C17.4715 18.9714 17.2966 18.9921 17.1231 18.9764C15.198 18.7673 13.3489 18.1094 11.7242 17.0559C10.2126 16.0953 8.93109 14.8138 7.97059 13.3023C6.91331 11.6702 6.25535 9.81204 6.05 7.87832C6.03437 7.70532 6.05493 7.53096 6.11037 7.36634C6.16581 7.20173 6.25493 7.05046 6.37204 6.92217C6.48915 6.79388 6.63168 6.69138 6.79058 6.62119C6.94947 6.55101 7.12124 6.51468 7.29494 6.51451H9.17174C9.47534 6.51153 9.76968 6.61904 9.99988 6.81701C10.2301 7.01499 10.3804 7.28991 10.4229 7.59054C10.5021 8.19116 10.6491 8.78089 10.8609 9.34848C10.945 9.57239 10.9632 9.81574 10.9133 10.0497C10.8634 10.2836 10.7475 10.4984 10.5793 10.6685L9.78482 11.463C10.6754 13.0292 11.9722 14.326 13.5384 15.2166L14.3329 14.4221C14.503 14.2539 14.7178 14.138 14.9517 14.0881C15.1857 14.0382 15.429 14.0564 15.6529 14.1406C16.2205 14.3524 16.8103 14.4993 17.4109 14.5785C17.7148 14.6214 17.9923 14.7744 18.1907 15.0086C18.3891 15.2427 18.4945 15.5416 18.4869 15.8484Z" stroke="#C0C0C0" stroke-linecap="round" stroke-linejoin="round"/>
</svg>
