<svg width="41" height="40" viewBox="0 0 41 40" fill="none" xmlns="http://www.w3.org/2000/svg">
<path fill-rule="evenodd" clip-rule="evenodd" d="M2.76855 13.4194L9.92665 27.2258L10.988 9.87195L16.4828 26.6217L19.9015 8.34356L23.5937 26.7611L29.0962 9.84376L29.7499 27.4506L37.3148 13.3112L32.172 35.7775C28.6764 34.1196 24.3495 33.0163 19.4741 33.0163C14.1049 33.0163 10.7137 33.7942 7.37275 35.4133L2.76855 13.4194Z" fill="#D2AB68"/>
<path fill-rule="evenodd" clip-rule="evenodd" d="M2.17143 9.15904C3.37067 9.15904 4.34286 10.1312 4.34286 11.3305C4.34286 12.5297 3.37067 13.5027 2.17143 13.5027C0.97219 13.5027 0 12.5297 0 11.3305C0 10.1312 0.97219 9.15904 2.17143 9.15904Z" fill="#D2AB68"/>
<path fill-rule="evenodd" clip-rule="evenodd" d="M38.2066 9.15904C39.4058 9.15904 40.378 10.1312 40.378 11.3305C40.378 12.5297 39.4058 13.5027 38.2066 13.5027C37.0073 13.5027 36.0352 12.5297 36.0352 11.3305C36.0352 10.1312 37.0073 9.15904 38.2066 9.15904Z" fill="#D2AB68"/>
<path fill-rule="evenodd" clip-rule="evenodd" d="M10.6763 5.55064C11.8755 5.55064 12.8477 6.52283 12.8477 7.72207C12.8477 8.9213 11.8755 9.89426 10.6763 9.89426C9.47707 9.89426 8.50488 8.9213 8.50488 7.72207C8.50488 6.52283 9.47707 5.55064 10.6763 5.55064Z" fill="#D2AB68"/>
<path fill-rule="evenodd" clip-rule="evenodd" d="M20.0552 3.99998C21.2545 3.99998 22.2266 4.97217 22.2266 6.17141C22.2266 7.37064 21.2545 8.3436 20.0552 8.3436C18.856 8.3436 17.8838 7.37064 17.8838 6.17141C17.8838 4.97217 18.856 3.99998 20.0552 3.99998Z" fill="#D2AB68"/>
<path fill-rule="evenodd" clip-rule="evenodd" d="M29.563 5.55064C30.7623 5.55064 31.7345 6.52283 31.7345 7.72207C31.7345 8.9213 30.7623 9.89426 29.563 9.89426C28.3638 9.89426 27.3916 8.9213 27.3916 7.72207C27.3916 6.52283 28.3638 5.55064 29.563 5.55064Z" fill="#D2AB68"/>
</svg>
