<svg width="16" height="16" viewBox="0 0 16 16" fill="none" xmlns="http://www.w3.org/2000/svg">
<path d="M6 6.83333V11.5C6 11.6547 6.06146 11.8031 6.17085 11.9125C6.28025 12.0219 6.42862 12.0833 6.58333 12.0833C6.73804 12.0833 6.88642 12.0219 6.99581 11.9125C7.10521 11.8031 7.16667 11.6547 7.16667 11.5V6.83333C7.16667 6.67862 7.10521 6.53025 6.99581 6.42085C6.88642 6.31146 6.73804 6.25 6.58333 6.25C6.42862 6.25 6.28025 6.31146 6.17085 6.42085C6.06146 6.53025 6 6.67862 6 6.83333Z" fill="#C0C0C0"/>
<path d="M9.58333 6.25C9.73804 6.25 9.88642 6.31146 9.99581 6.42085C10.1052 6.53025 10.1667 6.67862 10.1667 6.83333V11.5C10.1667 11.6547 10.1052 11.8031 9.99581 11.9125C9.88642 12.0219 9.73804 12.0833 9.58333 12.0833C9.42862 12.0833 9.28025 12.0219 9.17085 11.9125C9.06146 11.8031 9 11.6547 9 11.5V6.83333C9 6.67862 9.06146 6.53025 9.17085 6.42085C9.28025 6.31146 9.42862 6.25 9.58333 6.25Z" fill="#C0C0C0"/>
<path d="M9.83203 3.33333V3.83333H10.332H13.832C13.8541 3.83333 13.8753 3.84211 13.891 3.85774C13.9066 3.87337 13.9154 3.89456 13.9154 3.91667C13.9154 3.93877 13.9066 3.95996 13.891 3.97559C13.8753 3.99122 13.8541 4 13.832 4H13.1869H12.7393L12.6899 4.44485L11.8126 12.3501C11.8126 12.3501 11.8126 12.3502 11.8126 12.3502C11.7469 12.9413 11.4655 13.4875 11.0223 13.8841C10.5791 14.2808 10.0052 14.5001 9.41042 14.5H9.41036H6.58703H6.58698C5.99218 14.5001 5.41826 14.2808 4.97505 13.8841C4.53184 13.4875 4.25047 12.9413 4.18481 12.3501L4.18481 12.3501L3.30631 4.44478L3.25688 4H2.80936H2.16536C2.14326 4 2.12207 3.99122 2.10644 3.97559C2.09081 3.95996 2.08203 3.93877 2.08203 3.91667C2.08203 3.89457 2.09081 3.87337 2.10644 3.85774C2.12207 3.84211 2.14326 3.83333 2.16536 3.83333H5.66536H6.16536V3.33333C6.16536 2.8471 6.35852 2.38079 6.70233 2.03697C7.04615 1.69315 7.51247 1.5 7.9987 1.5C8.48493 1.5 8.95124 1.69315 9.29506 2.03697C9.63888 2.38079 9.83203 2.8471 9.83203 3.33333Z" stroke="#C0C0C0"/>
</svg>
