<svg width="106" height="28" viewBox="0 0 106 28" fill="none" xmlns="http://www.w3.org/2000/svg">
<rect width="106" height="28" rx="5" fill="#2B2B2B"/>
<path d="M28.496 14.704C28.496 15.348 28.394 15.934 28.19 16.462C27.986 16.99 27.698 17.442 27.326 17.818C26.954 18.194 26.508 18.486 25.988 18.694C25.468 18.898 24.892 19 24.26 19H21.044V10.402H24.26C24.892 10.402 25.468 10.506 25.988 10.714C26.508 10.918 26.954 11.21 27.326 11.59C27.698 11.966 27.986 12.418 28.19 12.946C28.394 13.474 28.496 14.06 28.496 14.704ZM27.302 14.704C27.302 14.176 27.23 13.704 27.086 13.288C26.942 12.872 26.738 12.52 26.474 12.232C26.21 11.944 25.89 11.724 25.514 11.572C25.138 11.42 24.72 11.344 24.26 11.344H22.214V18.058H24.26C24.72 18.058 25.138 17.982 25.514 17.83C25.89 17.678 26.21 17.46 26.474 17.176C26.738 16.888 26.942 16.536 27.086 16.12C27.23 15.704 27.302 15.232 27.302 14.704ZM32.3172 12.826C32.6812 12.826 33.0172 12.888 33.3252 13.012C33.6332 13.132 33.8992 13.308 34.1232 13.54C34.3472 13.768 34.5212 14.052 34.6452 14.392C34.7732 14.728 34.8372 15.112 34.8372 15.544C34.8372 15.712 34.8192 15.824 34.7832 15.88C34.7472 15.936 34.6792 15.964 34.5792 15.964H30.5352C30.5432 16.348 30.5952 16.682 30.6912 16.966C30.7872 17.25 30.9192 17.488 31.0872 17.68C31.2552 17.868 31.4552 18.01 31.6872 18.106C31.9192 18.198 32.1792 18.244 32.4672 18.244C32.7352 18.244 32.9652 18.214 33.1572 18.154C33.3532 18.09 33.5212 18.022 33.6612 17.95C33.8012 17.878 33.9172 17.812 34.0092 17.752C34.1052 17.688 34.1872 17.656 34.2552 17.656C34.3432 17.656 34.4112 17.69 34.4592 17.758L34.7592 18.148C34.6272 18.308 34.4692 18.448 34.2852 18.568C34.1012 18.684 33.9032 18.78 33.6912 18.856C33.4832 18.932 33.2672 18.988 33.0432 19.024C32.8192 19.064 32.5972 19.084 32.3772 19.084C31.9572 19.084 31.5692 19.014 31.2132 18.874C30.8612 18.73 30.5552 18.522 30.2952 18.25C30.0392 17.974 29.8392 17.634 29.6952 17.23C29.5512 16.826 29.4792 16.362 29.4792 15.838C29.4792 15.414 29.5432 15.018 29.6712 14.65C29.8032 14.282 29.9912 13.964 30.2352 13.696C30.4792 13.424 30.7772 13.212 31.1292 13.06C31.4812 12.904 31.8772 12.826 32.3172 12.826ZM32.3412 13.612C31.8252 13.612 31.4192 13.762 31.1232 14.062C30.8272 14.358 30.6432 14.77 30.5712 15.298H33.8772C33.8772 15.05 33.8432 14.824 33.7752 14.62C33.7072 14.412 33.6072 14.234 33.4752 14.086C33.3432 13.934 33.1812 13.818 32.9892 13.738C32.8012 13.654 32.5852 13.612 32.3412 13.612ZM37.3921 10.162V19H36.3241V10.162H37.3921ZM40.4624 12.922V19H39.3944V12.922H40.4624ZM40.7024 11.014C40.7024 11.118 40.6804 11.216 40.6364 11.308C40.5964 11.396 40.5404 11.476 40.4684 11.548C40.4004 11.616 40.3204 11.67 40.2284 11.71C40.1364 11.75 40.0384 11.77 39.9344 11.77C39.8304 11.77 39.7324 11.75 39.6404 11.71C39.5524 11.67 39.4724 11.616 39.4004 11.548C39.3324 11.476 39.2784 11.396 39.2384 11.308C39.1984 11.216 39.1784 11.118 39.1784 11.014C39.1784 10.91 39.1984 10.812 39.2384 10.72C39.2784 10.624 39.3324 10.542 39.4004 10.474C39.4724 10.402 39.5524 10.346 39.6404 10.306C39.7324 10.266 39.8304 10.246 39.9344 10.246C40.0384 10.246 40.1364 10.266 40.2284 10.306C40.3204 10.346 40.4004 10.402 40.4684 10.474C40.5404 10.542 40.5964 10.624 40.6364 10.72C40.6804 10.812 40.7024 10.91 40.7024 11.014ZM41.5768 12.922H42.4528C42.5368 12.922 42.6068 12.944 42.6628 12.988C42.7188 13.032 42.7588 13.084 42.7828 13.144L44.3248 17.056C44.3808 17.2 44.4248 17.344 44.4568 17.488C44.4888 17.632 44.5188 17.774 44.5468 17.914C44.5788 17.774 44.6128 17.632 44.6488 17.488C44.6848 17.344 44.7308 17.2 44.7868 17.056L46.3468 13.144C46.3708 13.08 46.4088 13.028 46.4608 12.988C46.5168 12.944 46.5848 12.922 46.6648 12.922H47.4987L45.0208 19H44.0548L41.5768 12.922ZM50.739 12.826C51.103 12.826 51.439 12.888 51.747 13.012C52.055 13.132 52.321 13.308 52.545 13.54C52.769 13.768 52.943 14.052 53.067 14.392C53.195 14.728 53.259 15.112 53.259 15.544C53.259 15.712 53.241 15.824 53.205 15.88C53.169 15.936 53.101 15.964 53.001 15.964H48.957C48.965 16.348 49.017 16.682 49.113 16.966C49.209 17.25 49.341 17.488 49.509 17.68C49.677 17.868 49.877 18.01 50.109 18.106C50.341 18.198 50.601 18.244 50.889 18.244C51.157 18.244 51.387 18.214 51.579 18.154C51.775 18.09 51.943 18.022 52.083 17.95C52.223 17.878 52.339 17.812 52.431 17.752C52.527 17.688 52.609 17.656 52.677 17.656C52.765 17.656 52.833 17.69 52.881 17.758L53.181 18.148C53.049 18.308 52.891 18.448 52.707 18.568C52.523 18.684 52.325 18.78 52.113 18.856C51.905 18.932 51.689 18.988 51.465 19.024C51.241 19.064 51.019 19.084 50.799 19.084C50.379 19.084 49.991 19.014 49.635 18.874C49.283 18.73 48.977 18.522 48.717 18.25C48.461 17.974 48.261 17.634 48.117 17.23C47.973 16.826 47.901 16.362 47.901 15.838C47.901 15.414 47.965 15.018 48.093 14.65C48.225 14.282 48.413 13.964 48.657 13.696C48.901 13.424 49.199 13.212 49.551 13.06C49.903 12.904 50.299 12.826 50.739 12.826ZM50.763 13.612C50.247 13.612 49.841 13.762 49.545 14.062C49.249 14.358 49.065 14.77 48.993 15.298H52.299C52.299 15.05 52.265 14.824 52.197 14.62C52.129 14.412 52.029 14.234 51.897 14.086C51.765 13.934 51.603 13.818 51.411 13.738C51.223 13.654 51.007 13.612 50.763 13.612ZM54.626 19V12.922H55.238C55.354 12.922 55.434 12.944 55.478 12.988C55.522 13.032 55.552 13.108 55.568 13.216L55.64 14.164C55.848 13.74 56.104 13.41 56.408 13.174C56.716 12.934 57.076 12.814 57.488 12.814C57.656 12.814 57.808 12.834 57.944 12.874C58.08 12.91 58.206 12.962 58.322 13.03L58.184 13.828C58.156 13.928 58.094 13.978 57.998 13.978C57.942 13.978 57.856 13.96 57.74 13.924C57.624 13.884 57.462 13.864 57.254 13.864C56.882 13.864 56.57 13.972 56.318 14.188C56.07 14.404 55.862 14.718 55.694 15.13V19H54.626ZM61.7862 19V10.162H62.8542V13.738C63.1142 13.462 63.4022 13.242 63.7182 13.078C64.0342 12.91 64.3982 12.826 64.8102 12.826C65.1422 12.826 65.4342 12.882 65.6862 12.994C65.9422 13.102 66.1542 13.258 66.3222 13.462C66.4942 13.662 66.6242 13.904 66.7122 14.188C66.8002 14.472 66.8442 14.786 66.8442 15.13V19H65.7762V15.13C65.7762 14.67 65.6702 14.314 65.4582 14.062C65.2502 13.806 64.9302 13.678 64.4982 13.678C64.1822 13.678 63.8862 13.754 63.6102 13.906C63.3382 14.058 63.0862 14.264 62.8542 14.524V19H61.7862ZM70.8601 12.826C71.2241 12.826 71.5601 12.888 71.8681 13.012C72.1761 13.132 72.4421 13.308 72.6661 13.54C72.8901 13.768 73.0641 14.052 73.1881 14.392C73.3161 14.728 73.3801 15.112 73.3801 15.544C73.3801 15.712 73.3621 15.824 73.3261 15.88C73.2901 15.936 73.2221 15.964 73.1221 15.964H69.0781C69.0861 16.348 69.1381 16.682 69.2341 16.966C69.3301 17.25 69.4621 17.488 69.6301 17.68C69.7981 17.868 69.9981 18.01 70.2301 18.106C70.4621 18.198 70.7221 18.244 71.0101 18.244C71.2781 18.244 71.5081 18.214 71.7001 18.154C71.8961 18.09 72.0641 18.022 72.2041 17.95C72.3441 17.878 72.4601 17.812 72.5521 17.752C72.6481 17.688 72.7301 17.656 72.7981 17.656C72.8861 17.656 72.9541 17.69 73.0021 17.758L73.3021 18.148C73.1701 18.308 73.0121 18.448 72.8281 18.568C72.6441 18.684 72.4461 18.78 72.2341 18.856C72.0261 18.932 71.8101 18.988 71.5861 19.024C71.3621 19.064 71.1401 19.084 70.9201 19.084C70.5001 19.084 70.1121 19.014 69.7561 18.874C69.4041 18.73 69.0981 18.522 68.8381 18.25C68.5821 17.974 68.3821 17.634 68.2381 17.23C68.0941 16.826 68.0221 16.362 68.0221 15.838C68.0221 15.414 68.0861 15.018 68.2141 14.65C68.3461 14.282 68.5341 13.964 68.7781 13.696C69.0221 13.424 69.3201 13.212 69.6721 13.06C70.0241 12.904 70.4201 12.826 70.8601 12.826ZM70.8841 13.612C70.3681 13.612 69.9621 13.762 69.6661 14.062C69.3701 14.358 69.1861 14.77 69.1141 15.298H72.4201C72.4201 15.05 72.3861 14.824 72.3181 14.62C72.2501 14.412 72.1501 14.234 72.0181 14.086C71.8861 13.934 71.7241 13.818 71.5321 13.738C71.3441 13.654 71.1281 13.612 70.8841 13.612ZM74.7471 19V12.922H75.3591C75.4751 12.922 75.5551 12.944 75.5991 12.988C75.6431 13.032 75.6731 13.108 75.6891 13.216L75.7611 14.164C75.9691 13.74 76.2251 13.41 76.5291 13.174C76.8371 12.934 77.1971 12.814 77.6091 12.814C77.7771 12.814 77.9291 12.834 78.0651 12.874C78.2011 12.91 78.3271 12.962 78.4431 13.03L78.3051 13.828C78.2771 13.928 78.2151 13.978 78.1191 13.978C78.0631 13.978 77.9771 13.96 77.8611 13.924C77.7451 13.884 77.5831 13.864 77.3751 13.864C77.0031 13.864 76.6911 13.972 76.4391 14.188C76.1911 14.404 75.9831 14.718 75.8151 15.13V19H74.7471ZM81.9929 12.826C82.3569 12.826 82.6929 12.888 83.0009 13.012C83.3089 13.132 83.5749 13.308 83.7989 13.54C84.0229 13.768 84.1969 14.052 84.3209 14.392C84.4489 14.728 84.5129 15.112 84.5129 15.544C84.5129 15.712 84.4949 15.824 84.4589 15.88C84.4229 15.936 84.3549 15.964 84.2549 15.964H80.2109C80.2189 16.348 80.2709 16.682 80.3669 16.966C80.4629 17.25 80.5949 17.488 80.7629 17.68C80.9309 17.868 81.1309 18.01 81.3629 18.106C81.5949 18.198 81.8549 18.244 82.1429 18.244C82.4109 18.244 82.6409 18.214 82.8329 18.154C83.0289 18.09 83.1969 18.022 83.3369 17.95C83.4769 17.878 83.5929 17.812 83.6849 17.752C83.7809 17.688 83.8629 17.656 83.9309 17.656C84.0189 17.656 84.0869 17.69 84.1349 17.758L84.4349 18.148C84.3029 18.308 84.1449 18.448 83.9609 18.568C83.7769 18.684 83.5789 18.78 83.3669 18.856C83.1589 18.932 82.9429 18.988 82.7189 19.024C82.4949 19.064 82.2729 19.084 82.0529 19.084C81.6329 19.084 81.2449 19.014 80.8889 18.874C80.5369 18.73 80.2309 18.522 79.9709 18.25C79.7149 17.974 79.5149 17.634 79.3709 17.23C79.2269 16.826 79.1549 16.362 79.1549 15.838C79.1549 15.414 79.2189 15.018 79.3469 14.65C79.4789 14.282 79.6669 13.964 79.9109 13.696C80.1549 13.424 80.4529 13.212 80.8049 13.06C81.1569 12.904 81.5529 12.826 81.9929 12.826ZM82.0169 13.612C81.5009 13.612 81.0949 13.762 80.7989 14.062C80.5029 14.358 80.3189 14.77 80.2469 15.298H83.5529C83.5529 15.05 83.5189 14.824 83.4509 14.62C83.3829 14.412 83.2829 14.234 83.1509 14.086C83.0189 13.934 82.8569 13.818 82.6649 13.738C82.4769 13.654 82.2609 13.612 82.0169 13.612Z" fill="#F2F2F2"/>
</svg>
