<svg width="22" height="22" viewBox="0 0 22 22" fill="none" xmlns="http://www.w3.org/2000/svg">
<path d="M18.398 9.1667L13.1385 3.66356M20.698 5.08446L17.1108 1.4789C16.8737 1.24306 16.5529 1.11066 16.2186 1.11066C15.8842 1.11066 15.5634 1.24306 15.3263 1.4789L2.60911 14.1778L1.448 19.1889C1.40795 19.3721 1.40932 19.5619 1.45202 19.7445C1.49472 19.9271 1.57767 20.0978 1.69481 20.2442C1.81194 20.3907 1.96031 20.5091 2.12907 20.5908C2.29783 20.6725 2.48272 20.7155 2.67022 20.7167C2.75759 20.7255 2.84563 20.7255 2.933 20.7167L7.99911 19.5556L20.698 6.8689C20.9339 6.63186 21.0662 6.31107 21.0662 5.97668C21.0662 5.64229 20.9339 5.32151 20.698 5.08446Z" stroke="#193B61"/>
</svg>
