<svg width="25" height="25" viewBox="0 0 25 25" fill="none" xmlns="http://www.w3.org/2000/svg">
<circle cx="12.5" cy="12.5" r="12.5" fill="#F7F7F7"/>
<path d="M12.5 19.1406C16.1675 19.1406 19.1406 16.1675 19.1406 12.5C19.1406 8.83248 16.1675 5.85938 12.5 5.85938C8.83248 5.85938 5.85938 8.83248 5.85938 12.5C5.85938 16.1675 8.83248 19.1406 12.5 19.1406Z" stroke="#C0C0C0" stroke-linecap="round" stroke-linejoin="round"/>
<path d="M12.5002 16.927C12.6368 16.927 12.7475 16.8163 12.7475 16.6798C12.7475 16.5432 12.6368 16.4325 12.5002 16.4325C12.3636 16.4325 12.2529 16.5432 12.2529 16.6798C12.2529 16.8163 12.3636 16.927 12.5002 16.927Z" stroke="#C0C0C0" stroke-linecap="round" stroke-linejoin="round"/>
<path d="M10.1094 11.1719C10.1094 10.1094 11.1719 9.04688 12.5 9.04688C13.8281 9.04688 14.8906 10.1455 14.8906 11.1719C14.8906 12.7656 13.2969 12.7656 12.5 13.2969V14.9284" stroke="#C0C0C0" stroke-linecap="round" stroke-linejoin="round"/>
</svg>
