<svg width="30" height="30" viewBox="0 0 30 30" fill="none" xmlns="http://www.w3.org/2000/svg">
<path d="M28 15.0792C28 7.83987 22.1955 2.00004 15 2.00004C7.80451 2.00004 2.00001 7.83987 2.00001 15.0792C1.99648 18.1746 3.087 21.1704 5.07671 23.5314C7.06641 25.8923 9.82568 27.4646 12.8615 27.9673V18.893H9.32291V15.1093H12.8615V12.5941C12.8615 8.42712 14.8791 6.59866 18.3215 6.59866C19.9516 6.59866 20.8227 6.71761 21.2404 6.77464L21.2543 6.77654V10.0777H18.9078C17.4479 10.0777 16.9344 11.4733 16.9344 13.0427V15.1093H21.2179L20.6368 18.893H16.9344V28C20.0128 27.5403 22.8243 25.9822 24.8557 23.6102C26.8872 21.2381 28.0032 18.2103 28 15.0792Z" stroke="#193B61"/>
</svg>
