<svg width="16" height="16" viewBox="0 0 16 16" fill="none" xmlns="http://www.w3.org/2000/svg">
<path d="M12.0003 3.98004V2.66671H4.00033V3.98004L8.00033 6.83737L12.0003 3.98071V3.98004ZM8.66699 8.00004V13.3334L7.33366 14.6667V8.00004L3.22566 5.06537C3.05294 4.94208 2.91215 4.77934 2.81498 4.59069C2.71781 4.40204 2.66708 4.19291 2.66699 3.98071V2.66671C2.66699 2.31309 2.80747 1.97395 3.05752 1.7239C3.30756 1.47385 3.6467 1.33337 4.00033 1.33337H12.0003C12.3539 1.33337 12.6931 1.47385 12.9431 1.7239C13.1932 1.97395 13.3337 2.31309 13.3337 2.66671V3.98004C13.3337 4.19236 13.283 4.40162 13.1858 4.59039C13.0886 4.77917 12.9478 4.94202 12.775 5.06537L8.66699 8.00004Z" fill="#C0C0C0"/>
</svg>
