<svg width="25" height="25" viewBox="0 0 25 25" fill="none" xmlns="http://www.w3.org/2000/svg">
<circle cx="12.5" cy="12.5" r="12.5" fill="#F7F7F7"/>
<path d="M14.1998 5.69998C14.5946 5.69987 14.9816 5.80972 15.3174 6.01724C15.6533 6.22476 15.9247 6.52172 16.1012 6.87485C16.2777 7.22797 16.3524 7.62328 16.3168 8.01646C16.2812 8.40963 16.1368 8.78513 15.8998 9.10084L17.5998 9.09999C17.8252 9.09999 18.0414 9.18954 18.2008 9.34894C18.3603 9.50835 18.4498 9.72455 18.4498 9.94999V12.5C18.4498 12.7254 18.3603 12.9416 18.2008 13.101C18.0414 13.2604 17.8252 13.35 17.5998 13.35V17.175C17.5998 17.7386 17.3759 18.2791 16.9774 18.6776C16.5789 19.0761 16.0384 19.3 15.4748 19.3H9.5248C8.96122 19.3 8.42072 19.0761 8.0222 18.6776C7.62369 18.2791 7.3998 17.7386 7.3998 17.175V13.35C7.17437 13.35 6.95817 13.2604 6.79876 13.101C6.63936 12.9416 6.5498 12.7254 6.5498 12.5V9.94999C6.5498 9.72455 6.63936 9.50835 6.79876 9.34894C6.95817 9.18954 7.17437 9.09999 7.3998 9.09999L9.0998 9.10084C8.93237 8.87759 8.81055 8.62355 8.74129 8.35322C8.67203 8.08289 8.6567 7.80157 8.69616 7.52531C8.73563 7.24906 8.82912 6.98328 8.9713 6.74316C9.11348 6.50304 9.30156 6.29327 9.5248 6.12583C9.74805 5.9584 10.0021 5.83658 10.2724 5.76732C10.5427 5.69806 10.8241 5.68273 11.1003 5.72219C11.3766 5.76166 11.6424 5.85515 11.8825 5.99733C12.1226 6.13951 12.3324 6.32759 12.4998 6.55083C12.6972 6.28627 12.9537 6.07154 13.2489 5.92381C13.5441 5.77607 13.8697 5.69942 14.1998 5.69998ZM12.0748 13.35H8.2498V17.175C8.2498 17.5131 8.38413 17.8374 8.62324 18.0765C8.86235 18.3157 9.18665 18.45 9.5248 18.45H12.0748V13.35ZM16.7498 13.35H12.9248V18.45H15.4748C15.813 18.45 16.1373 18.3157 16.3764 18.0765C16.6155 17.8374 16.7498 17.5131 16.7498 17.175V13.35ZM12.0748 9.94999H7.3998V12.5H12.0748V9.94999ZM17.5998 9.94999H12.9248V12.5H17.5998V9.94999ZM14.1998 6.54998C13.8617 6.54998 13.5374 6.68431 13.2982 6.92342C13.0591 7.16253 12.9248 7.48683 12.9248 7.82499V9.09999H14.1998C14.538 9.09999 14.8623 8.96566 15.1014 8.72655C15.3405 8.48744 15.4748 8.16314 15.4748 7.82499C15.4748 7.48683 15.3405 7.16253 15.1014 6.92342C14.8623 6.68431 14.538 6.54998 14.1998 6.54998ZM10.7998 6.54998C10.4724 6.55015 10.1575 6.67627 9.92058 6.90223C9.6836 7.12819 9.54264 7.43666 9.52691 7.76371C9.51117 8.09077 9.62187 8.41134 9.83605 8.65901C10.0502 8.90667 10.3515 9.06244 10.6774 9.09404L10.7998 9.09999H12.0748V7.82499L12.0689 7.70258C12.0384 7.3871 11.8916 7.09426 11.657 6.88116C11.4223 6.66807 11.1168 6.55 10.7998 6.54998Z" fill="#C0C0C0"/>
</svg>
