<svg width="25" height="25" viewBox="0 0 25 25" fill="none" xmlns="http://www.w3.org/2000/svg">
<circle cx="12.5" cy="12.5" r="12.5" fill="#F7F7F7"/>
<path d="M14.1998 5.69995C14.5946 5.69984 14.9816 5.80969 15.3174 6.01721C15.6533 6.22473 15.9247 6.52169 16.1012 6.87482C16.2777 7.22794 16.3524 7.62325 16.3168 8.01643C16.2812 8.4096 16.1368 8.7851 15.8998 9.1008L17.5998 9.09995C17.8252 9.09995 18.0414 9.18951 18.2008 9.34891C18.3603 9.50832 18.4498 9.72452 18.4498 9.94995V12.5C18.4498 12.7254 18.3603 12.9416 18.2008 13.101C18.0414 13.2604 17.8252 13.35 17.5998 13.35V17.175C17.5998 17.7385 17.3759 18.279 16.9774 18.6776C16.5789 19.0761 16.0384 19.3 15.4748 19.3H9.5248C8.96122 19.3 8.42072 19.0761 8.0222 18.6776C7.62369 18.279 7.3998 17.7385 7.3998 17.175V13.35C7.17437 13.35 6.95817 13.2604 6.79876 13.101C6.63936 12.9416 6.5498 12.7254 6.5498 12.5V9.94995C6.5498 9.72452 6.63936 9.50832 6.79876 9.34891C6.95817 9.18951 7.17437 9.09995 7.3998 9.09995L9.0998 9.1008C8.93237 8.87756 8.81055 8.62352 8.74129 8.35319C8.67203 8.08286 8.6567 7.80154 8.69616 7.52528C8.73563 7.24903 8.82912 6.98325 8.9713 6.74313C9.11348 6.50301 9.30156 6.29324 9.5248 6.1258C9.74805 5.95837 10.0021 5.83654 10.2724 5.76729C10.5427 5.69803 10.8241 5.6827 11.1003 5.72216C11.3766 5.76163 11.6424 5.85512 11.8825 5.9973C12.1226 6.13947 12.3324 6.32756 12.4998 6.5508C12.6972 6.28624 12.9537 6.07151 13.2489 5.92377C13.5441 5.77604 13.8697 5.69939 14.1998 5.69995V5.69995ZM12.0748 13.35H8.2498V17.175C8.2498 17.5131 8.38413 17.8374 8.62324 18.0765C8.86235 18.3156 9.18665 18.45 9.5248 18.45H12.0748V13.35ZM16.7498 13.35H12.9248V18.45H15.4748C15.813 18.45 16.1373 18.3156 16.3764 18.0765C16.6155 17.8374 16.7498 17.5131 16.7498 17.175V13.35ZM12.0748 9.94995H7.3998V12.5H12.0748V9.94995ZM17.5998 9.94995H12.9248V12.5H17.5998V9.94995ZM14.1998 6.54995C13.8617 6.54995 13.5374 6.68428 13.2982 6.92339C13.0591 7.1625 12.9248 7.4868 12.9248 7.82495V9.09995H14.1998C14.538 9.09995 14.8623 8.96562 15.1014 8.72652C15.3405 8.48741 15.4748 8.16311 15.4748 7.82495C15.4748 7.4868 15.3405 7.1625 15.1014 6.92339C14.8623 6.68428 14.538 6.54995 14.1998 6.54995ZM10.7998 6.54995C10.4724 6.55012 10.1575 6.67624 9.92058 6.9022C9.6836 7.12816 9.54264 7.43663 9.52691 7.76368C9.51117 8.09074 9.62187 8.41131 9.83605 8.65898C10.0502 8.90664 10.3515 9.06241 10.6774 9.094L10.7998 9.09995H12.0748V7.82495L12.0689 7.70255C12.0384 7.38707 11.8916 7.09422 11.657 6.88113C11.4223 6.66804 11.1168 6.54997 10.7998 6.54995V6.54995Z" fill="#C0C0C0"/>
</svg>
