<svg width="22" height="22" viewBox="0 0 22 22" fill="none" xmlns="http://www.w3.org/2000/svg">
<path d="M2.75 15.0834C2.47386 15.0834 2.25 15.3073 2.25 15.5834C2.25 15.8596 2.47386 16.0834 2.75 16.0834V15.0834ZM11 16.0834C11.2761 16.0834 11.5 15.8596 11.5 15.5834C11.5 15.3073 11.2761 15.0834 11 15.0834V16.0834ZM2.75 10.5001C2.47386 10.5001 2.25 10.7239 2.25 11.0001C2.25 11.2762 2.47386 11.5001 2.75 11.5001V10.5001ZM19.25 11.5001C19.5261 11.5001 19.75 11.2762 19.75 11.0001C19.75 10.7239 19.5261 10.5001 19.25 10.5001V11.5001ZM11 5.91675C10.7239 5.91675 10.5 6.14061 10.5 6.41675C10.5 6.69289 10.7239 6.91675 11 6.91675V5.91675ZM19.25 6.91675C19.5261 6.91675 19.75 6.69289 19.75 6.41675C19.75 6.14061 19.5261 5.91675 19.25 5.91675V6.91675ZM2.75 16.0834H11V15.0834H2.75V16.0834ZM2.75 11.5001H19.25V10.5001H2.75V11.5001ZM11 6.91675H19.25V5.91675H11V6.91675Z" fill="#193B61"/>
</svg>
