<svg width="26" height="25" viewBox="0 0 26 25" fill="none" xmlns="http://www.w3.org/2000/svg">
<path d="M22.1972 10.8432L21.8298 11.0725L19.1148 12.7679L19.1142 12.7683C18.2849 13.2843 17.2212 12.9835 16.7541 12.1311L22.1972 10.8432ZM22.1972 10.8432L22.0225 10.4468M22.1972 10.8432L22.0225 10.4468M22.0225 10.4468C21.9435 10.2674 21.9 10.078 21.9 9.875C21.9 9.09655 22.5014 8.5 23.2 8.5C23.8986 8.5 24.5 9.09655 24.5 9.875C24.5 10.6534 23.8986 11.25 23.2 11.25C23.1497 11.25 23.091 11.2418 22.9935 11.2256L22.5821 11.157L22.4408 11.5494L19.8486 18.75H6.15141L3.55919 11.5494L3.41793 11.157L3.00655 11.2256C2.90896 11.2418 2.85031 11.25 2.8 11.25C2.10143 11.25 1.5 10.6534 1.5 9.875C1.5 9.09793 2.10386 8.5 2.80375 8.5C3.50232 8.5 4.10375 9.09655 4.10375 9.875C4.10375 10.0752 4.05774 10.2696 3.97975 10.4501L3.80935 10.8446M22.0225 10.4468L3.80935 10.8446M3.80935 10.8446L4.17366 11.0724M3.80935 10.8446L4.17366 11.0724M4.17366 11.0724L6.88459 12.7675M4.17366 11.0724L6.88459 12.7675M6.88459 12.7675L6.88491 12.7677C7.71133 13.2851 8.77908 12.983 9.24585 12.1311L6.88459 12.7675ZM13.6979 6.56082L16.754 12.1308H9.24603L12.3021 6.56082L12.4974 6.2048L12.189 5.9406C11.893 5.68698 11.7 5.30762 11.7 4.875C11.7 4.09655 12.3014 3.5 13 3.5C13.6986 3.5 14.3 4.09655 14.3 4.875C14.3 5.30762 14.107 5.68698 13.811 5.9406L13.5026 6.2048L13.6979 6.56082Z" stroke="#9DBACA"/>
<path d="M5.59961 21.25C5.32347 21.25 5.09961 21.4739 5.09961 21.75C5.09961 22.0261 5.32347 22.25 5.59961 22.25V21.25ZM20.3996 22.25C20.6758 22.25 20.8996 22.0261 20.8996 21.75C20.8996 21.4739 20.6758 21.25 20.3996 21.25V22.25ZM5.59961 22.25H20.3996V21.25H5.59961V22.25Z" fill="#9DBACA"/>
</svg>
