<svg width="30" height="30" viewBox="0 0 30 30" fill="none" xmlns="http://www.w3.org/2000/svg">
<path d="M9.34162 1.83254H9.34275L9.35424 1.83201C10.8088 1.76505 11.2672 1.75004 15 1.75004C18.7324 1.75004 19.1911 1.76629 20.6449 1.83203C22.062 1.89611 23.0079 2.12047 23.827 2.43757L23.827 2.43758L23.8308 2.43901C24.6794 2.7597 25.4492 3.26097 26.0858 3.90914L26.0857 3.9092L26.0925 3.91583C26.7402 4.55088 27.2401 5.31903 27.5595 6.16852L27.5595 6.16853L27.5615 6.17363C27.8795 6.99207 28.1027 7.93783 28.168 9.35299C28.168 9.35303 28.168 9.35306 28.168 9.35309L28.6675 9.33004C28.735 10.7988 28.75 11.2663 28.75 15C28.75 18.735 28.7338 19.2025 28.6675 20.6688M9.34162 1.83254L1.83197 20.6471C1.89729 22.0622 2.12053 23.0082 2.43753 23.827L2.4392 23.8314L2.43918 23.8314C2.75895 24.6807 3.26013 25.45 3.90776 26.0857L3.9141 26.092L3.91405 26.092C4.55039 26.7393 5.32014 27.2401 6.16974 27.5595L6.17486 27.5615L6.17485 27.5615C6.99357 27.8796 7.93929 28.104 9.35382 28.1681C9.35384 28.1681 9.35386 28.1681 9.35388 28.1681L9.33125 28.6675M9.34162 1.83254C7.93278 1.89853 6.98964 2.12142 6.17302 2.43757L6.16884 2.43918L6.16883 2.43916C5.31994 2.75908 4.55101 3.26025 3.91562 3.90774L3.90898 3.91451L3.90892 3.91444C3.26095 4.55019 2.75936 5.31955 2.4391 6.16894L2.43755 6.17306L2.43753 6.17305C2.12044 6.99211 1.89607 7.93806 1.83199 9.35513C1.76625 10.8089 1.75 11.2676 1.75 15C1.75 18.7315 1.76501 19.1899 1.83197 20.647L9.34162 1.83254ZM28.6675 20.6688L28.168 20.6462C28.168 20.6462 28.168 20.6462 28.168 20.6462C28.1039 22.0608 27.8796 23.0065 27.5615 23.8252L27.5614 23.8252L27.5595 23.8303C27.2401 24.6799 26.7393 25.4497 26.092 26.086L26.0919 26.0859L26.0858 26.0922C25.4494 26.7401 24.6799 27.2401 23.8313 27.5596L23.8313 27.5596L23.8264 27.5615C23.008 27.8795 22.0622 28.1027 20.647 28.1681C20.647 28.1681 20.647 28.1681 20.6469 28.1681L20.67 28.6675M28.6675 20.6688C28.6013 22.1313 28.3675 23.1313 28.0275 24.0063L28.6675 20.6688ZM20.67 28.6675C19.2025 28.735 18.735 28.75 15 28.75C11.265 28.75 10.7975 28.7338 9.33125 28.6675M20.67 28.6675C22.1325 28.6 23.1325 28.3675 24.0075 28.0275M20.67 28.6675L24.0075 28.0275M9.33125 28.6675C7.86875 28.6013 6.86875 28.3675 5.99375 28.0275M9.33125 28.6675L5.99375 28.0275M5.99375 28.0275C5.07615 27.6825 4.24478 27.1416 3.5575 26.4425C2.85798 25.7559 2.31664 24.9249 1.97125 24.0075C1.6325 23.1325 1.4 22.1325 1.3325 20.67C1.265 19.2013 1.25 18.7338 1.25 15C1.25 11.265 1.26625 10.7975 1.3325 9.33254L5.99375 28.0275ZM24.0075 28.0275C24.9238 27.6825 25.755 27.1425 26.4425 26.4425L24.0075 28.0275ZM23.9781 9.34875C24.1894 9.14944 24.3585 8.90976 24.4755 8.6439C24.5925 8.37805 24.655 8.09142 24.6592 7.80099C24.6635 7.51056 24.6094 7.22224 24.5002 6.95308C24.391 6.68393 24.2289 6.43942 24.0235 6.23403C23.8181 6.02865 23.5736 5.86656 23.3045 5.75736C23.0353 5.64817 22.747 5.59409 22.4566 5.59832C22.1661 5.60255 21.8795 5.66502 21.6136 5.78201C21.3478 5.89901 21.1081 6.06815 20.9088 6.27944C20.5212 6.69036 20.3089 7.23616 20.3172 7.80099C20.3254 8.36582 20.5535 8.90521 20.9529 9.30465C21.3523 9.70409 21.8917 9.93213 22.4566 9.94036C23.0214 9.94859 23.5672 9.73637 23.9781 9.34875ZM23.5602 8.24111C23.4971 8.38453 23.4059 8.51381 23.2919 8.62133C23.0702 8.83043 22.7758 8.94491 22.4711 8.94047C22.1664 8.93602 21.8755 8.81301 21.66 8.59754C21.4445 8.38207 21.3215 8.0911 21.3171 7.78641C21.3126 7.48172 21.4271 7.1873 21.6362 6.96564C21.7437 6.85166 21.873 6.76042 22.0164 6.6973C22.1598 6.63419 22.3145 6.6005 22.4711 6.59821C22.6278 6.59593 22.7833 6.6251 22.9285 6.68401C23.0737 6.74291 23.2056 6.83035 23.3164 6.94114L23.67 6.58759L23.3164 6.94114C23.4272 7.05193 23.5146 7.18383 23.5735 7.32902C23.6324 7.47421 23.6616 7.62974 23.6593 7.78641C23.657 7.94308 23.6233 8.0977 23.5602 8.24111L24.0179 8.44251L23.5602 8.24111Z" stroke="#193B61"/>
<circle cx="15" cy="15" r="5.5" stroke="#193B61"/>
</svg>
