<svg width="25" height="25" viewBox="0 0 25 25" fill="none" xmlns="http://www.w3.org/2000/svg">
<circle cx="12.5" cy="12.5" r="12.5" fill="#F7F7F7"/>
<path d="M5.4165 8.24999C5.4165 8.24999 6.479 6.83333 8.95817 6.83333C11.4373 6.83333 12.4998 8.24999 12.4998 8.24999V18.1667C12.4998 18.1667 11.4373 17.4583 8.95817 17.4583C6.479 17.4583 5.4165 18.1667 5.4165 18.1667V8.24999ZM12.4998 8.24999C12.4998 8.24999 13.5623 6.83333 16.0415 6.83333C18.5207 6.83333 19.5832 8.24999 19.5832 8.24999V18.1667C19.5832 18.1667 18.5207 17.4583 16.0415 17.4583C13.5623 17.4583 12.4998 18.1667 12.4998 18.1667V8.24999Z" stroke="#C0C0C0" stroke-linecap="round" stroke-linejoin="round"/>
</svg>
