<svg width="14" height="16" viewBox="0 0 14 16" fill="none" xmlns="http://www.w3.org/2000/svg">
<path d="M5.72032 5.78087C5.38041 6.12078 5.18945 6.58179 5.18945 7.0625C5.18945 7.54321 5.38041 8.00422 5.72032 8.34413C6.06023 8.68404 6.52125 8.875 7.00195 8.875C7.48266 8.875 7.94367 8.68404 8.28358 8.34413C8.62349 8.00422 8.81445 7.5432 8.81445 7.0625C8.81445 6.5818 8.62349 6.12078 8.28358 5.78087C7.94367 5.44096 7.48266 5.25 7.00195 5.25C6.52125 5.25 6.06023 5.44096 5.72032 5.78087Z" stroke="#A6A6A6"/>
<path d="M11.4862 10.6687L11.4843 10.671L11.4798 10.6762L11.3563 10.8215L7.72805 14.6735L7.72801 14.6735C7.63452 14.7728 7.5217 14.8519 7.39651 14.906C7.27131 14.9601 7.13638 14.9879 7.00001 14.9879C6.86364 14.9879 6.72871 14.9601 6.60351 14.906C6.47831 14.8519 6.3655 14.7728 6.27201 14.6735L6.27197 14.6735L2.64364 10.8214L2.52024 10.6763L2.51573 10.671L2.51387 10.6687L2.50786 10.6616L2.50682 10.6604C1.61234 9.60246 1.12263 8.26128 1.12501 6.87592V6.87506C1.12501 3.63033 3.75528 1.00006 7.00001 1.00006C10.2447 1.00006 12.875 3.63033 12.875 6.87506L12.875 6.87592C12.8774 8.26128 12.3877 9.60246 11.4932 10.6604L11.4922 10.6616L11.4862 10.6687ZM11.4862 10.6687L11.494 10.6754L11.5004 10.6685L11.5015 10.6674L11.511 10.6572L11.6999 10.8352L11.7095 10.8441L11.8608 10.9866V10.9712V10.9711V10.5001H11.875H12.2453M11.4862 10.6687L12.2453 10.5001M12.2453 10.5001C12.9803 9.43937 13.3772 8.17514 13.375 6.87506C13.375 3.35419 10.5209 0.500061 7.00001 0.500061C3.47913 0.500061 0.625009 3.35419 0.625009 6.87506L12.2453 10.5001ZM8.09201 15.0163L11.404 11.5001L5.90801 15.0163C6.04825 15.1652 6.21747 15.2839 6.40526 15.365C6.59305 15.4461 6.79545 15.4879 7.00001 15.4879C7.20457 15.4879 7.40697 15.4461 7.59476 15.365C7.78255 15.2839 7.95177 15.1652 8.09201 15.0163Z" stroke="#A6A6A6"/>
</svg>
