<svg width="25" height="25" viewBox="0 0 25 25" fill="none" xmlns="http://www.w3.org/2000/svg">
<circle cx="12.5" cy="12.5" r="12.5" fill="#F7F7F7"/>
<path d="M5.4165 9.66667L6.34017 10.4055C6.66196 10.6628 7.03601 10.8469 7.43624 10.9449C7.83648 11.0429 8.25327 11.0524 8.65755 10.9727C9.06183 10.8931 9.44388 10.7262 9.77705 10.4838C10.1102 10.2413 10.3865 9.92911 10.5866 9.56892L12.4998 6.125L14.413 9.56892C14.6132 9.92905 14.8896 10.2412 15.2228 10.4836C15.556 10.726 15.938 10.8927 16.3423 10.9723C16.7466 11.0519 17.1633 11.0423 17.5636 10.9443C17.9638 10.8463 18.3378 10.6622 18.6595 10.4047L19.5832 9.66667L18.3408 15.8788C18.2865 16.1499 18.1711 16.405 18.0033 16.6247C17.8355 16.8444 17.6197 17.023 17.3725 17.1467V17.1467C15.8596 17.9032 14.1913 18.297 12.4998 18.297C10.8084 18.297 9.1401 17.9032 7.62721 17.1467V17.1467C7.37995 17.023 7.1642 16.8444 6.99639 16.6247C6.82859 16.405 6.71317 16.1499 6.65892 15.8788L5.4165 9.66667Z" stroke="#C0C0C0" stroke-linecap="round" stroke-linejoin="round"/>
<path d="M9.6665 14.625C11.5053 15.5692 13.4943 15.5692 15.3332 14.625" stroke="#C0C0C0" stroke-linecap="round" stroke-linejoin="round"/>
</svg>
