<svg width="25" height="25" viewBox="0 0 25 25" fill="none" xmlns="http://www.w3.org/2000/svg">
<path d="M12.4997 7.79165C14.0226 7.79165 15.1247 8.8929 15.1247 10.4166C15.1247 11.9404 14.0226 13.0416 12.4997 13.0416C10.9777 13.0416 9.87467 11.9403 9.87467 10.4166C9.87467 8.89301 10.9777 7.79165 12.4997 7.79165ZM16.1247 10.4166C16.1247 8.34039 14.5747 6.79165 12.4997 6.79165C10.4258 6.79165 8.87467 8.34028 8.87467 10.4166C8.87467 12.493 10.4258 14.0416 12.4997 14.0416C14.5747 14.0416 16.1247 12.4929 16.1247 10.4166ZM5.91453 19.2823C6.33808 18.659 7.25715 17.744 8.33665 16.9833C9.43003 16.2128 10.578 15.6791 11.458 15.6791H13.5413C14.6162 15.6791 15.7675 16.2204 16.7969 16.9774C17.8189 17.7289 18.6535 18.6438 19.0874 19.2823L19.9145 18.7203C19.414 17.9837 18.4987 16.9876 17.3893 16.1718C16.2874 15.3614 14.9261 14.6791 13.5413 14.6791H11.458C10.2547 14.6791 8.89133 15.3691 7.76061 16.1659C6.61602 16.9725 5.59825 17.9685 5.08743 18.7203L5.91453 19.2823ZM2.58301 12.5C2.58301 7.12925 7.12894 2.58331 12.4997 2.58331C17.8704 2.58331 22.4163 7.12925 22.4163 12.5C22.4163 17.8707 17.8704 22.4166 12.4997 22.4166C7.12894 22.4166 2.58301 17.8707 2.58301 12.5Z" stroke="#9DBACA"/>
</svg>
