<svg width="25" height="25" viewBox="0 0 25 25" fill="none" xmlns="http://www.w3.org/2000/svg">
<circle cx="12.5" cy="12.5" r="12.5" fill="#F7F7F7"/>
<path d="M15.8959 9.81128C16.0912 9.61602 16.0912 9.29943 15.8959 9.10417C15.7007 8.90891 15.3841 8.90891 15.1888 9.10417L9.10425 15.1888C8.90898 15.384 8.90898 15.7006 9.10425 15.8959C9.29951 16.0911 9.61609 16.0911 9.81135 15.8959L15.8959 9.81128ZM10.7293 9.45835C11.041 9.45835 11.2918 9.70908 11.2918 10.0209C11.2918 10.3326 11.041 10.5834 10.7293 10.5834C10.4175 10.5834 10.1668 10.3326 10.1668 10.0209C10.1668 9.70908 10.4175 9.45835 10.7293 9.45835ZM12.2918 10.0209C12.2918 9.15679 11.5933 8.45835 10.7293 8.45835C9.8652 8.45835 9.16676 9.15679 9.16676 10.0209C9.16676 10.8849 9.8652 11.5834 10.7293 11.5834C11.5933 11.5834 12.2918 10.8849 12.2918 10.0209ZM14.2709 14.4167C14.5827 14.4167 14.8334 14.6674 14.8334 14.9792C14.8334 15.291 14.5827 15.5417 14.2709 15.5417C13.9592 15.5417 13.7084 15.291 13.7084 14.9792C13.7084 14.6674 13.9592 14.4167 14.2709 14.4167ZM15.8334 14.9792C15.8334 14.1151 15.135 13.4167 14.2709 13.4167C13.4069 13.4167 12.7084 14.1151 12.7084 14.9792C12.7084 15.8432 13.4069 16.5417 14.2709 16.5417C15.135 16.5417 15.8334 15.8432 15.8334 14.9792ZM17.1487 8.83098C17.1737 8.98907 17.2729 9.12564 17.4154 9.19836L19.0139 10.0135C19.2593 10.1387 19.3572 10.4387 19.2329 10.6846L18.4289 12.2744C18.357 12.4166 18.3572 12.5846 18.4294 12.7267L19.2359 14.3124C19.3613 14.559 19.2627 14.8605 19.0158 14.9853L17.4028 15.8009C17.2594 15.8734 17.1596 16.0104 17.1346 16.1691L16.8584 17.9167C16.8153 18.1892 16.5596 18.3753 16.287 18.3326L14.5184 18.0552C14.3605 18.0305 14.2004 18.0826 14.0874 18.1956L12.8362 19.4468C12.6402 19.6428 12.3221 19.642 12.1272 19.4449L10.8651 18.1692C10.751 18.0538 10.588 18.001 10.4279 18.0276L8.68644 18.3163C8.41282 18.3617 8.15455 18.1757 8.11089 17.9018L7.83011 16.1401C7.80496 15.9822 7.70588 15.846 7.56351 15.7734L5.98123 14.9663C5.73543 14.841 5.63765 14.5402 5.76272 14.2943L6.57077 12.7054C6.6433 12.5628 6.64319 12.3941 6.57049 12.2516L5.76913 10.6805C5.64404 10.4353 5.7407 10.1351 5.98537 10.0089L7.58675 9.18316C7.72804 9.1103 7.82627 8.97459 7.85134 8.81761L8.12525 7.10226C8.16889 6.82899 8.4262 6.64314 8.69934 6.6876L10.4506 6.97269C10.6101 6.99865 10.7723 6.94593 10.8861 6.83115L12.1475 5.55837C12.3426 5.36149 12.6607 5.36093 12.8565 5.55711L14.1012 6.80408C14.2142 6.91728 14.3745 6.96959 14.5325 6.94481L16.3012 6.66747C16.5738 6.62472 16.8295 6.81085 16.8725 7.08338L17.1487 8.83098Z" stroke="#C0C0C0" stroke-linecap="round" stroke-linejoin="round"/>
</svg>
