<svg width="16" height="16" viewBox="0 0 16 16" fill="none" xmlns="http://www.w3.org/2000/svg">
<path d="M9.73572 3.64959C10.3827 3.77582 10.9773 4.09225 11.4434 4.55836C11.9095 5.02448 12.226 5.61908 12.3522 6.26607M9.73572 1C11.0799 1.14933 12.3334 1.75128 13.2903 2.70701C14.2472 3.66274 14.8508 4.91544 15.0018 6.25944M14.3394 11.5454V13.5326C14.3401 13.7171 14.3023 13.8997 14.2284 14.0687C14.1545 14.2377 14.0461 14.3894 13.9102 14.5142C13.7743 14.6389 13.6138 14.7338 13.439 14.7929C13.2643 14.852 13.0791 14.874 12.8954 14.8574C10.857 14.6359 8.89911 13.9394 7.17886 12.8238C5.57839 11.8068 4.22147 10.4499 3.20447 8.84942C2.085 7.12136 1.38833 5.1539 1.1709 3.10643C1.15435 2.92325 1.17612 2.73864 1.23483 2.56434C1.29353 2.39004 1.38789 2.22987 1.51188 2.09403C1.63588 1.95819 1.78681 1.84966 1.95505 1.77535C2.12329 1.70104 2.30516 1.66257 2.48908 1.6624H4.47627C4.79774 1.65923 5.10939 1.77307 5.35313 1.98269C5.59687 2.19231 5.75608 2.48341 5.80107 2.80172C5.88494 3.43767 6.04049 4.06209 6.26475 4.66306C6.35387 4.90015 6.37316 5.15782 6.32033 5.40553C6.2675 5.65325 6.14476 5.88063 5.96667 6.06072L5.12542 6.90197C6.06838 8.56032 7.44147 9.9334 9.09981 10.8764L9.94106 10.0351C10.1212 9.85702 10.3485 9.73429 10.5963 9.68146C10.844 9.62863 11.1016 9.64791 11.3387 9.73704C11.9397 9.96129 12.5641 10.1168 13.2001 10.2007C13.5218 10.2461 13.8157 10.4082 14.0258 10.6561C14.2358 10.904 14.3474 11.2205 14.3394 11.5454Z" stroke="#A6A6A6" stroke-linecap="round" stroke-linejoin="round"/>
</svg>
