<svg width="18" height="18" viewBox="0 0 18 18" fill="none" xmlns="http://www.w3.org/2000/svg">
<path d="M10.9287 4.16622C11.6476 4.30648 12.3082 4.65806 12.8261 5.17596C13.344 5.69387 13.6956 6.35454 13.8359 7.07342M10.9287 1.22223C12.4222 1.38815 13.815 2.05698 14.8782 3.1189C15.9415 4.18083 16.6121 5.57272 16.7799 7.06606M16.0439 12.9393V15.1473C16.0447 15.3523 16.0027 15.5552 15.9206 15.743C15.8385 15.9308 15.718 16.0994 15.567 16.238C15.416 16.3765 15.2376 16.482 15.0435 16.5477C14.8493 16.6134 14.6435 16.6378 14.4394 16.6193C12.1746 16.3732 9.99912 15.5993 8.08773 14.3598C6.30943 13.2298 4.80174 11.7221 3.67174 9.94381C2.42789 8.02374 1.65381 5.83767 1.41222 3.5627C1.39383 3.35918 1.41802 3.15405 1.48325 2.96038C1.54848 2.76671 1.65332 2.58875 1.79109 2.43782C1.92887 2.28689 2.09656 2.1663 2.28349 2.08373C2.47043 2.00116 2.6725 1.95842 2.87686 1.95823H5.08486C5.44204 1.95471 5.78832 2.0812 6.05914 2.31411C6.32997 2.54702 6.50686 2.87046 6.55685 3.22414C6.65005 3.93075 6.82288 4.62455 7.07205 5.2923C7.17107 5.55573 7.19251 5.84203 7.13381 6.11727C7.07511 6.3925 6.93873 6.64515 6.74085 6.84526L5.80613 7.77997C6.85387 9.62258 8.37952 11.1482 10.2221 12.196L11.1568 11.2612C11.357 11.0634 11.6096 10.927 11.8848 10.8683C12.1601 10.8096 12.4464 10.831 12.7098 10.93C13.3775 11.1792 14.0713 11.3521 14.778 11.4452C15.1355 11.4957 15.462 11.6758 15.6954 11.9512C15.9288 12.2267 16.0528 12.5784 16.0439 12.9393Z" stroke="#9DBACA" stroke-linecap="round" stroke-linejoin="round"/>
</svg>
