<svg width="18" height="19" viewBox="0 0 18 19" fill="none" xmlns="http://www.w3.org/2000/svg">
<g clip-path="url(#clip0_2_321)">
<path d="M9 9.68848C10.2426 9.68848 11.25 8.68112 11.25 7.43848C11.25 6.19584 10.2426 5.18848 9 5.18848C7.75736 5.18848 6.75 6.19584 6.75 7.43848C6.75 8.68112 7.75736 9.68848 9 9.68848Z" stroke="#9DBACA" stroke-linecap="round" stroke-linejoin="round"/>
<path d="M9 1.43848C7.4087 1.43848 5.88258 2.07062 4.75736 3.19584C3.63214 4.32105 3 5.84718 3 7.43848C3 8.85748 3.3015 9.78598 4.125 10.8135L9 16.4385L13.875 10.8135C14.6985 9.78598 15 8.85748 15 7.43848C15 5.84718 14.3679 4.32105 13.2426 3.19584C12.1174 2.07062 10.5913 1.43848 9 1.43848V1.43848Z" stroke="#9DBACA" stroke-linecap="round" stroke-linejoin="round"/>
</g>
<defs>
<clipPath id="clip0_2_321">
<rect width="18" height="18" fill="white" transform="translate(0 0.5)"/>
</clipPath>
</defs>
</svg>
