<svg width="14" height="19" viewBox="0 0 14 19" fill="none" xmlns="http://www.w3.org/2000/svg">
<path d="M7.00001 0.75C5.1773 0.75215 3.42987 1.47717 2.14102 2.76602C0.852176 4.05486 0.127158 5.8023 0.125007 7.625C0.122824 9.11452 0.60937 10.5636 1.51001 11.75C1.51001 11.75 1.69751 11.9969 1.72813 12.0325L7.00001 18.25L12.2744 12.0294C12.3019 11.9963 12.49 11.75 12.49 11.75L12.4906 11.7481C13.3908 10.5623 13.8771 9.11383 13.875 7.625C13.8729 5.8023 13.1478 4.05486 11.859 2.76602C10.5701 1.47717 8.82271 0.75215 7.00001 0.75ZM7.00001 10.125C6.50555 10.125 6.02221 9.97838 5.61108 9.70367C5.19996 9.42897 4.87953 9.03852 4.69031 8.58171C4.50109 8.12489 4.45158 7.62223 4.54804 7.13727C4.64451 6.65232 4.88261 6.20686 5.23224 5.85723C5.58187 5.5076 6.02733 5.2695 6.51228 5.17304C6.99723 5.07657 7.4999 5.12608 7.95672 5.3153C8.41353 5.50452 8.80398 5.82495 9.07868 6.23607C9.35338 6.6472 9.50001 7.13055 9.50001 7.625C9.49918 8.28779 9.23552 8.92319 8.76686 9.39185C8.2982 9.86052 7.6628 10.1242 7.00001 10.125Z" fill="#2B2B2B"/>
</svg>
