<svg width="16" height="17" viewBox="0 0 16 17" fill="none" xmlns="http://www.w3.org/2000/svg">
<path d="M14.7408 4.81191L14.9818 4.37383L14.9818 4.37381L14.7408 4.81191ZM9.74084 2.06191L9.49984 2.5L9.49989 2.50002L9.74084 2.06191ZM9.25884 2.06191L9.4998 2.50002L9.49984 2.5L9.25884 2.06191ZM4.25884 4.81191L4.01788 4.37381L4.01769 4.37391L4.25884 4.81191ZM4.25884 5.68791L4.01767 6.12594L4.02245 6.1285L4.25884 5.68791ZM7.24081 13.2573C6.99885 13.1242 6.69482 13.2125 6.56174 13.4544C6.42866 13.6964 6.51692 14.0004 6.75888 14.1335L7.24081 13.2573ZM9.25884 14.9379L9.50033 14.5001L9.49981 14.4998L9.25884 14.9379ZM9.74084 14.9379L9.49989 14.4998L9.49936 14.5001L9.74084 14.9379ZM14.7408 12.1879L14.9818 12.626L14.9818 12.626L14.7408 12.1879ZM14.9998 11.7499L15.4998 11.75V11.7499H14.9998ZM14.9998 5.24991H15.4998V5.24983L14.9998 5.24991ZM14.9818 4.37381L9.9818 1.62381L9.49989 2.50002L14.4999 5.25002L14.9818 4.37381ZM9.98184 1.62383C9.83418 1.5426 9.66838 1.5 9.49984 1.5V2.5V2.5L9.98184 1.62383ZM9.49984 1.5C9.33131 1.5 9.16551 1.5426 9.01784 1.62383L9.49984 2.5V2.5V1.5ZM9.01789 1.62381L4.01789 4.37381L4.4998 5.25002L9.4998 2.50002L9.01789 1.62381ZM4.01769 4.37391C3.8609 4.46024 3.73016 4.58706 3.6391 4.74115L4.5 5.24991L4.5 5.24991L4.01769 4.37391ZM3.6391 4.74115C3.54804 4.89523 3.5 5.07093 3.5 5.24991H4.5L4.5 5.24991L3.6391 4.74115ZM3.5 5.24991C3.5 5.4289 3.54804 5.6046 3.6391 5.75868L4.5 5.24991L4.5 5.24991H3.5ZM3.6391 5.75868C3.73016 5.91277 3.8609 6.03959 4.01769 6.12591L4.5 5.24991L4.5 5.24991L3.6391 5.75868ZM4.02245 6.1285L9.26345 8.94053L9.73624 8.05935L4.49524 5.24733L4.02245 6.1285ZM8.99984 8.49994V15H9.99984V8.49994H8.99984ZM6.75888 14.1335L9.01788 15.376L9.49981 14.4998L7.24081 13.2573L6.75888 14.1335ZM9.01736 15.3757C9.16511 15.4572 9.3311 15.5 9.49984 15.5V14.5L9.50033 14.5001L9.01736 15.3757ZM9.49984 15.5C9.66859 15.5 9.83457 15.4572 9.98233 15.3757L9.49936 14.5001L9.49984 14.5V15.5ZM9.9818 15.376L14.9818 12.626L14.4999 11.7498L9.49989 14.4998L9.9818 15.376ZM14.9818 12.626C15.1387 12.5397 15.2695 12.4129 15.3606 12.2588L14.4998 11.7498L14.9818 12.626ZM15.3606 12.2588C15.4517 12.1047 15.4998 11.929 15.4998 11.75L14.4998 11.7498L15.3606 12.2588ZM15.4998 11.7499V5.24991H14.4998V11.7499H15.4998ZM15.4998 5.24983C15.4998 5.07081 15.4517 4.89509 15.3606 4.74101L14.4998 5.25V5.25L15.4998 5.24983ZM15.3606 4.74101C15.2695 4.58692 15.1387 4.46011 14.9818 4.37383L14.4998 5.25V5.25L15.3606 4.74101ZM9.77096 8.92005L15.2013 5.41562L14.6591 4.57539L9.22873 8.07982L9.77096 8.92005Z" fill="#DD772F"/>
<path d="M5 8.25H1" stroke="#DD772F" stroke-linecap="round"/>
<path d="M2 11.75H6" stroke="#DD772F" stroke-linecap="round"/>
<path d="M3 10H7" stroke="#DD772F" stroke-linecap="round"/>
</svg>
