<svg width="25" height="25" viewBox="0 0 25 25" fill="none" xmlns="http://www.w3.org/2000/svg">
<circle cx="12.5" cy="12.5" r="12.5" fill="#F7F7F7"/>
<path d="M11.8122 5.79914C12.0226 5.68229 12.2593 5.62097 12.5 5.62097C12.7407 5.62097 12.9774 5.68229 13.1878 5.79914L18.5109 8.75572C18.6213 8.81709 18.7132 8.90685 18.7772 9.0157C18.8413 9.12454 18.875 9.24853 18.875 9.3748V15.2079C18.8749 15.4606 18.8073 15.7086 18.6792 15.9263C18.551 16.144 18.367 16.3234 18.1461 16.4461L13.1878 19.2015C12.9774 19.3184 12.7407 19.3797 12.5 19.3797C12.2593 19.3797 12.0226 19.3184 11.8122 19.2015L6.85387 16.4461C6.63313 16.3235 6.44916 16.1441 6.32101 15.9266C6.19286 15.709 6.12519 15.4611 6.125 15.2086V9.3748C6.12499 9.24853 6.15875 9.12454 6.22276 9.0157C6.28677 8.90685 6.37872 8.81709 6.48908 8.75572L11.8129 5.79914H11.8122Z" stroke="#C0C0C0" stroke-linecap="round" stroke-linejoin="round"/>
<path d="M12.5 12.5V19.5833M6.125 8.95831L12.5 12.5L6.125 8.95831ZM12.5 12.5L18.875 8.95831L12.5 12.5Z" stroke="#C0C0C0" stroke-linejoin="round"/>
<path d="M9.3125 10.7289L15.6875 7.18726" stroke="#C0C0C0" stroke-linecap="round" stroke-linejoin="round"/>
</svg>
