<svg width="26" height="25" viewBox="0 0 26 25" fill="none" xmlns="http://www.w3.org/2000/svg">
<path d="M2.5625 3.90625C2.5625 3.41726 2.75675 2.94829 3.10252 2.60252C3.44829 2.25675 3.91726 2.0625 4.40625 2.0625H9.09375C9.58274 2.0625 10.0517 2.25675 10.3975 2.60252C10.7432 2.94829 10.9375 3.41726 10.9375 3.90625V8.59375C10.9375 9.08274 10.7432 9.55171 10.3975 9.89748C10.0517 10.2432 9.58274 10.4375 9.09375 10.4375H4.40625C3.91726 10.4375 3.44829 10.2432 3.10252 9.89748C2.75675 9.55171 2.5625 9.08274 2.5625 8.59375V3.90625ZM15.0625 3.90625C15.0625 3.41726 15.2568 2.94829 15.6025 2.60252C15.9483 2.25675 16.4173 2.0625 16.9062 2.0625H21.5938C22.0827 2.0625 22.5517 2.25675 22.8975 2.60252C23.2432 2.94829 23.4375 3.41726 23.4375 3.90625V8.59375C23.4375 9.08274 23.2432 9.55171 22.8975 9.89748C22.5517 10.2432 22.0827 10.4375 21.5938 10.4375H16.9062C16.4173 10.4375 15.9483 10.2432 15.6025 9.89748C15.2568 9.55171 15.0625 9.08274 15.0625 8.59375V3.90625ZM2.5625 16.4062C2.5625 15.9173 2.75675 15.4483 3.10252 15.1025C3.44829 14.7568 3.91726 14.5625 4.40625 14.5625H9.09375C9.58274 14.5625 10.0517 14.7568 10.3975 15.1025C10.7432 15.4483 10.9375 15.9173 10.9375 16.4062V21.0938C10.9375 21.5827 10.7432 22.0517 10.3975 22.3975C10.0517 22.7432 9.58274 22.9375 9.09375 22.9375H4.40625C3.91726 22.9375 3.44829 22.7432 3.10252 22.3975C2.75675 22.0517 2.5625 21.5827 2.5625 21.0938V16.4062ZM15.0625 16.4062C15.0625 15.9173 15.2568 15.4483 15.6025 15.1025C15.9483 14.7568 16.4173 14.5625 16.9062 14.5625H21.5938C22.0827 14.5625 22.5517 14.7568 22.8975 15.1025C23.2432 15.4483 23.4375 15.9173 23.4375 16.4062V21.0938C23.4375 21.5827 23.2432 22.0517 22.8975 22.3975C22.5517 22.7432 22.0827 22.9375 21.5938 22.9375H16.9062C16.4173 22.9375 15.9483 22.7432 15.6025 22.3975C15.2568 22.0517 15.0625 21.5827 15.0625 21.0938V16.4062Z" stroke="#9DBACA"/>
</svg>
