<svg width="25" height="25" viewBox="0 0 25 25" fill="none" xmlns="http://www.w3.org/2000/svg">
<circle cx="12.5" cy="12.5" r="12.5" fill="#F7F7F7"/>
<path d="M12.4998 5.41669C8.58771 5.41669 5.4165 8.5879 5.4165 12.5C5.4165 16.4121 8.58771 19.5834 12.4998 19.5834C16.412 19.5834 19.5832 16.4121 19.5832 12.5C19.5832 8.5879 16.412 5.41669 12.4998 5.41669Z" stroke="#C0C0C0" stroke-linecap="round" stroke-linejoin="round"/>
<path d="M7.0249 16.9951C7.0249 16.9951 8.60378 14.9792 12.4996 14.9792C16.3954 14.9792 17.975 16.9951 17.975 16.9951" stroke="#C0C0C0" stroke-linecap="round" stroke-linejoin="round"/>
<path d="M12.5 12.5C13.0636 12.5 13.6041 12.2761 14.0026 11.8776C14.4011 11.4791 14.625 10.9386 14.625 10.375C14.625 9.81141 14.4011 9.27091 14.0026 8.8724C13.6041 8.47388 13.0636 8.25 12.5 8.25C11.9364 8.25 11.3959 8.47388 10.9974 8.8724C10.5989 9.27091 10.375 9.81141 10.375 10.375C10.375 10.9386 10.5989 11.4791 10.9974 11.8776C11.3959 12.2761 11.9364 12.5 12.5 12.5V12.5Z" stroke="#C0C0C0" stroke-linecap="round" stroke-linejoin="round"/>
</svg>
