<svg width="18" height="18" viewBox="0 0 18 18" fill="none" xmlns="http://www.w3.org/2000/svg">
<path d="M8.0625 15.25C8.33864 15.25 8.5625 15.4739 8.5625 15.75C8.5625 16.0261 8.33864 16.25 8.0625 16.25L8.0625 15.25ZM13.6749 5.2499L13.2592 5.52769L13.6749 5.2499ZM14.8125 9L15.1661 9.35356C14.9708 9.54882 14.6542 9.54882 14.4589 9.35356L14.8125 9ZM12.5839 7.47855C12.3887 7.28329 12.3887 6.96671 12.5839 6.77145C12.7792 6.57618 13.0958 6.57618 13.2911 6.77145L12.5839 7.47855ZM16.3339 6.77145C16.5292 6.57619 16.8458 6.57619 17.0411 6.77145C17.2363 6.96672 17.2363 7.2833 17.0411 7.47856L16.3339 6.77145ZM8.0625 16.25C6.62859 16.25 5.22687 15.8248 4.03462 15.0282L4.59019 14.1967C5.618 14.8834 6.82637 15.25 8.0625 15.25L8.0625 16.25ZM4.03462 15.0282C2.84236 14.2315 1.91311 13.0992 1.36438 11.7745L2.28826 11.3918C2.7613 12.5338 3.56238 13.5099 4.59019 14.1967L4.03462 15.0282ZM1.36438 11.7745C0.815641 10.4497 0.672067 8.99196 0.95181 7.5856L1.93259 7.78069C1.69144 8.99307 1.81521 10.2497 2.28826 11.3918L1.36438 11.7745ZM0.95181 7.5856C1.23155 6.17924 1.92205 4.88741 2.93598 3.87348L3.64309 4.58059C2.76901 5.45466 2.17375 6.56831 1.93259 7.78069L0.95181 7.5856ZM2.93598 3.87348C3.94991 2.85955 5.24174 2.16905 6.6481 1.88931L6.84319 2.8701C5.63081 3.11125 4.51716 3.70651 3.64309 4.58059L2.93598 3.87348ZM6.6481 1.88931C8.05446 1.60957 9.51219 1.75314 10.837 2.30188L10.4543 3.22576C9.31224 2.75271 8.05557 2.62894 6.84319 2.8701L6.6481 1.88931ZM10.837 2.30188C12.1617 2.85061 13.294 3.77986 14.0907 4.97212L13.2592 5.52769C12.5724 4.49988 11.5963 3.6988 10.4543 3.22576L10.837 2.30188ZM14.4589 9.35356L12.5839 7.47855L13.2911 6.77145L15.1661 8.64645L14.4589 9.35356ZM14.0907 4.97212C14.8873 6.16438 15.3125 7.56609 15.3125 9L14.3125 9C14.3125 7.76387 13.9459 6.5555 13.2592 5.52769L14.0907 4.97212ZM14.4589 8.64645L16.3339 6.77145L17.0411 7.47856L15.1661 9.35356L14.4589 8.64645Z" fill="#A6A6A6"/>
<path d="M8.354 5.4375C8.354 5.16136 8.13015 4.9375 7.854 4.9375C7.57786 4.9375 7.354 5.16136 7.354 5.4375H8.354ZM7.854 9.1875H7.354C7.354 9.37688 7.461 9.55001 7.6304 9.63471L7.854 9.1875ZM10.6304 11.1347C10.8774 11.2582 11.1777 11.1581 11.3012 10.9111C11.4247 10.6641 11.3246 10.3638 11.0776 10.2403L10.6304 11.1347ZM7.354 5.4375L7.354 9.1875H8.354V5.4375H7.354ZM7.6304 9.63471L10.6304 11.1347L11.0776 10.2403L8.07761 8.74028L7.6304 9.63471Z" fill="#A6A6A6"/>
</svg>
