<svg width="25" height="25" viewBox="0 0 25 25" fill="none" xmlns="http://www.w3.org/2000/svg">
<circle cx="12.5" cy="12.5" r="12.5" fill="#F7F7F7"/>
<path d="M9.5779 5.72656V9.17969M11.6837 5.72656L12.3603 9.24609C12.3658 9.26778 12.3681 9.29016 12.367 9.3125C12.3647 9.98276 12.1223 10.63 11.6837 11.1369C11.2451 11.6437 10.6393 11.9765 9.97634 12.075H9.5779M7.47213 5.72656L6.79548 9.24609C6.78999 9.26778 6.78775 9.29016 6.78884 9.3125C6.7911 9.98276 7.03352 10.63 7.47213 11.1369C7.91073 11.6437 8.51647 11.9765 9.17947 12.075H9.5779M9.5779 19.2734V12.075M17.9451 19.2734V6.125C17.9449 6.06078 17.9291 5.99756 17.8992 5.94073C17.8693 5.8839 17.8261 5.83515 17.7732 5.79862C17.7204 5.7621 17.6595 5.73889 17.5958 5.73097C17.5321 5.72304 17.4674 5.73065 17.4072 5.75312C16.0724 6.23789 14.9967 7.89141 14.2064 10.6672C13.8524 11.9525 13.5927 13.262 13.4295 14.5852C13.4214 14.6961 13.4572 14.8058 13.5291 14.8906C13.5669 14.9323 13.613 14.9657 13.6645 14.9885C13.7159 15.0114 13.7716 15.0233 13.8279 15.0234H17.9451" stroke="#C0C0C0" stroke-linecap="round" stroke-linejoin="round"/>
</svg>
