<svg width="25" height="25" viewBox="0 0 25 25" fill="none" xmlns="http://www.w3.org/2000/svg">
<circle cx="12.5" cy="12.5" r="12.5" fill="#F7F7F7"/>
<path d="M6.42864 12.8036L6.42869 12.3036L6.41867 12.3036L6.40866 12.304L6.42864 12.8036ZM13.1072 12.8042L13.1073 12.3042H13.1073L13.1072 12.8042ZM14.3179 13.9274L14.8175 13.9074L14.8171 13.8986L14.8164 13.8899L14.3179 13.9274ZM14.3215 14.0185H14.8215V14.0085L14.8211 13.9985L14.3215 14.0185ZM14.3215 15.5357L14.8215 15.5358V15.5357H14.3215ZM5.21739 15.6863L4.71738 15.6964L4.71782 15.707L5.21739 15.6863ZM5.21436 15.5357H4.71425L4.71446 15.5458L5.21436 15.5357ZM5.21436 14.0178L4.71436 14.0178V14.0178H5.21436ZM6.33757 12.8072L6.31758 12.3076L6.30882 12.308L6.30007 12.3086L6.33757 12.8072ZM18.5715 12.8036L18.5915 12.304L18.5815 12.3036H18.5715V12.8036ZM18.6626 12.8072L18.7002 12.3086L18.6914 12.308L18.6826 12.3076L18.6626 12.8072ZM19.7821 13.9225L20.2818 13.9034L20.2814 13.8932L20.2806 13.883L19.7821 13.9225ZM19.7858 14.0178H20.2858V14.0083L20.2854 13.9987L19.7858 14.0178ZM19.7858 15.2321L20.2858 15.2323V15.2321H19.7858ZM15.2737 17.5808C15.0428 17.4293 14.7328 17.4938 14.5814 17.7247C14.43 17.9556 14.4944 18.2656 14.7253 18.417L15.2737 17.5808ZM15.4995 12.3036C15.2234 12.3036 14.9995 12.5274 14.9995 12.8036C14.9995 13.0797 15.2234 13.3036 15.4995 13.3036V12.3036ZM6.4286 13.3036L13.1072 13.3042L13.1073 12.3042L6.42869 12.3036L6.4286 13.3036ZM13.1071 13.3042C13.2873 13.3042 13.4607 13.3723 13.5928 13.4948L14.2729 12.7617C13.956 12.4677 13.5397 12.3042 13.1073 12.3042L13.1071 13.3042ZM13.5928 13.4948C13.7249 13.6173 13.8058 13.7852 13.8193 13.9649L14.8164 13.8899C14.784 13.4588 14.5899 13.0558 14.2729 12.7617L13.5928 13.4948ZM13.8183 13.9474L13.8219 14.0384L14.8211 13.9985L14.8175 13.9074L13.8183 13.9474ZM13.8215 14.0185V15.5357H14.8215V14.0185H13.8215ZM13.8215 15.5356C13.8212 16.6011 13.2946 17.2851 12.5261 17.7285C11.7325 18.1864 10.6896 18.375 9.76793 18.375V19.375C10.797 19.375 12.0306 19.1689 13.0259 18.5947C14.0464 18.0059 14.8211 17.0203 14.8215 15.5358L13.8215 15.5356ZM9.76793 18.375C8.86525 18.375 7.84479 18.1942 7.05671 17.7554C6.28999 17.3285 5.75872 16.6728 5.71696 15.6656L4.71782 15.707C4.77685 17.1308 5.5649 18.0694 6.57028 18.6291C7.5543 19.177 8.75871 19.375 9.76793 19.375V18.375ZM5.71729 15.6762L5.71425 15.5256L4.71446 15.5458L4.71749 15.6964L5.71729 15.6762ZM5.71436 15.5357V14.0178H4.71436V15.5357H5.71436ZM5.71436 14.0179C5.71439 13.8378 5.78249 13.6643 5.90501 13.5323L5.17193 12.8521C4.87787 13.1691 4.71443 13.5854 4.71436 14.0178L5.71436 14.0179ZM5.90501 13.5323C6.02753 13.4002 6.19543 13.3193 6.37507 13.3058L6.30007 12.3086C5.86894 12.341 5.46599 12.5352 5.17193 12.8521L5.90501 13.5323ZM6.35755 13.3068L6.44863 13.3032L6.40866 12.304L6.31758 12.3076L6.35755 13.3068ZM18.5515 13.3032L18.6426 13.3068L18.6826 12.3076L18.5915 12.304L18.5515 13.3032ZM18.6249 13.3058C18.7949 13.3186 18.9548 13.3918 19.0756 13.5122L19.7814 12.8037C19.4916 12.515 19.1081 12.3394 18.7002 12.3086L18.6249 13.3058ZM19.0756 13.5122C19.1964 13.6325 19.2702 13.7921 19.2837 13.9621L20.2806 13.883C20.2482 13.4752 20.0712 13.0924 19.7814 12.8037L19.0756 13.5122ZM19.2825 13.9416L19.2861 14.0369L20.2854 13.9987L20.2818 13.9034L19.2825 13.9416ZM19.2858 14.0178V15.2321H20.2858V14.0178H19.2858ZM19.2858 15.232C19.2855 16.192 18.8606 16.8002 18.2733 17.1889C17.6619 17.5936 16.8557 17.7678 16.1429 17.7678V18.7678C16.9905 18.7678 18.0054 18.5654 18.8252 18.0228C19.6691 17.4642 20.2854 16.5545 20.2858 15.2323L19.2858 15.232ZM16.1429 17.7678C16.0769 17.7678 15.9251 17.7676 15.7479 17.7401C15.5642 17.7116 15.3939 17.6596 15.2737 17.5808L14.7253 18.417C15.0153 18.6071 15.345 18.6896 15.5946 18.7283C15.8507 18.7681 16.0656 18.7678 16.1429 18.7678V17.7678ZM15.4995 13.3036H18.5715V12.3036H15.4995V13.3036ZM9.76793 5.92856C8.15243 5.92856 6.83936 7.24163 6.83936 8.85713H7.83936C7.83936 7.79392 8.70471 6.92856 9.76793 6.92856V5.92856ZM6.83936 8.85713C6.83936 10.4726 8.15243 11.7857 9.76793 11.7857V10.7857C8.70471 10.7857 7.83936 9.92034 7.83936 8.85713H6.83936ZM9.76793 11.7857C11.3834 11.7857 12.6965 10.4726 12.6965 8.85713H11.6965C11.6965 9.92034 10.8311 10.7857 9.76793 10.7857V11.7857ZM12.6965 8.85713C12.6965 7.24163 11.3834 5.92856 9.76793 5.92856V6.92856C10.8311 6.92856 11.6965 7.79391 11.6965 8.85713H12.6965ZM16.4465 7.14284C15.1661 7.14284 14.1251 8.18392 14.1251 9.46427H15.1251C15.1251 8.7362 15.7184 8.14284 16.4465 8.14284V7.14284ZM14.1251 9.46427C14.1251 10.7446 15.1661 11.7857 16.4465 11.7857V10.7857C15.7184 10.7857 15.1251 10.1923 15.1251 9.46427H14.1251ZM16.4465 11.7857C17.7269 11.7857 18.7679 10.7446 18.7679 9.46427H17.7679C17.7679 10.1923 17.1746 10.7857 16.4465 10.7857V11.7857ZM18.7679 9.46427C18.7679 8.18392 17.7269 7.14284 16.4465 7.14284V8.14284C17.1746 8.14284 17.7679 8.7362 17.7679 9.46427H18.7679Z" fill="#C0C0C0"/>
</svg>
