<svg width="25" height="25" viewBox="0 0 25 25" fill="none" xmlns="http://www.w3.org/2000/svg">
<circle cx="12.5" cy="12.5" r="12.5" fill="#F7F7F7"/>
<path d="M7.95068 7.29995C7.95068 6.95516 8.08765 6.6245 8.33145 6.3807C8.57525 6.1369 8.90591 5.99994 9.25069 5.99994H15.7507C16.0955 5.99994 16.4262 6.1369 16.67 6.3807C16.9138 6.6245 17.0507 6.95516 17.0507 7.29995V10.55C17.0507 11.7567 16.5714 12.914 15.7181 13.7673C14.8648 14.6206 13.7075 15.1 12.5007 15.1V15.1C11.294 15.1 10.1367 14.6206 9.28336 13.7673C8.43006 12.914 7.95068 11.7567 7.95068 10.55V7.29995Z" stroke="#C0C0C0" stroke-linecap="round" stroke-linejoin="round"/>
<path d="M10.5503 19H14.4503L12.5003 15.75L10.5503 19Z" stroke="#C0C0C0" stroke-linecap="round" stroke-linejoin="round"/>
<path d="M7.9505 7.29993H7.3005C6.95571 7.29993 6.62505 7.43689 6.38125 7.68069C6.13745 7.92449 6.00049 8.25515 6.00049 8.59993V9.40529C6.00048 9.87783 6.12925 10.3414 6.37296 10.7463C6.61667 11.1511 6.9661 11.4819 7.3837 11.7031L8.2755 12.175" stroke="#C0C0C0" stroke-linejoin="round"/>
<path d="M17.0506 7.29993H17.7006C18.0454 7.29993 18.376 7.43689 18.6198 7.68069C18.8636 7.92449 19.0006 8.25515 19.0006 8.59993V9.01399C19.0006 9.60469 18.8397 10.1842 18.5351 10.6903C18.2304 11.1964 17.7936 11.6099 17.2716 11.8864L16.7256 12.175" stroke="#C0C0C0" stroke-linejoin="round"/>
</svg>
