<svg width="12" height="18" viewBox="0 0 12 18" fill="none" xmlns="http://www.w3.org/2000/svg">
<path d="M11.761 2.484H7.285C7.845 2.78 8.265 3.144 8.545 3.576C8.833 4.008 9.021 4.5 9.109 5.052H11.761V6.72H9.085C8.925 7.592 8.521 8.348 7.873 8.988C7.233 9.628 6.381 10.088 5.317 10.368C5.661 10.552 5.957 10.82 6.205 11.172L11.221 18H9.145C8.729 18 8.421 17.836 8.221 17.508L3.757 11.364C3.621 11.172 3.473 11.036 3.313 10.956C3.161 10.868 2.921 10.824 2.593 10.824H0.577V9.216H2.833C3.961 9.216 4.861 8.988 5.533 8.532C6.213 8.076 6.653 7.472 6.853 6.72H0.553V5.052H6.901C6.749 4.252 6.341 3.636 5.677 3.204C5.013 2.764 4.097 2.544 2.929 2.544H0.577V0.803999H11.761V2.484Z" fill="white"/>
</svg>
