<svg width="22" height="22" viewBox="0 0 22 22" fill="none" xmlns="http://www.w3.org/2000/svg">
<path d="M6.65509 19.745C7.01095 20.0161 7.44528 20.1641 7.89259 20.1667C8.01148 20.1784 8.13121 20.1784 8.25009 20.1667C8.52785 20.1202 8.79314 20.0173 9.02961 19.8644C9.26609 19.7115 9.46875 19.5118 9.62509 19.2775L9.83593 18.975C9.98382 18.7629 10.1795 18.5885 10.4072 18.4659C10.6349 18.3433 10.8882 18.2759 11.1468 18.2692C11.4177 18.2625 11.6859 18.3246 11.9263 18.4496C12.1668 18.5747 12.3716 18.7586 12.5218 18.9842L12.6318 19.14C12.7881 19.3726 12.9903 19.5708 13.2261 19.7223C13.4618 19.8738 13.7261 19.9754 14.0026 20.0209C14.2791 20.0664 14.562 20.0548 14.8339 19.9869C15.1057 19.919 15.3608 19.7961 15.5834 19.6259L17.4259 18.205C17.8659 17.8633 18.1585 17.3663 18.2437 16.8157C18.3289 16.2652 18.2003 15.7029 17.8843 15.2442L17.6459 14.8959C17.5011 14.6751 17.4056 14.4257 17.366 14.1647C17.3265 13.9036 17.3438 13.6371 17.4168 13.3834C17.4942 13.1104 17.6376 12.8607 17.8342 12.6561C18.0308 12.4515 18.2746 12.2983 18.5443 12.21L18.7276 12.1459C19.2547 11.9582 19.6886 11.5735 19.9381 11.0727C20.1877 10.5719 20.2335 9.9939 20.0659 9.46004L19.3418 7.15004C19.2636 6.88307 19.1324 6.63457 18.9561 6.41939C18.7798 6.2042 18.562 6.02672 18.3156 5.89754C18.0692 5.76837 17.7993 5.69013 17.5221 5.66751C17.2448 5.64489 16.9658 5.67834 16.7018 5.76587L16.3901 5.86671C16.1459 5.94742 15.8859 5.96789 15.6321 5.92639C15.3783 5.8849 15.1383 5.78265 14.9326 5.62837L14.8318 5.55504C14.631 5.40138 14.4692 5.2027 14.3593 4.975C14.2494 4.74731 14.1946 4.49698 14.1993 4.24421V3.98754C14.2037 3.4119 13.9795 2.85802 13.5759 2.44754C13.384 2.25362 13.1556 2.09954 12.9039 1.99414C12.6522 1.88874 12.3821 1.83411 12.1093 1.83337H9.77176C9.21092 1.84062 8.67565 2.06913 8.2825 2.46916C7.88934 2.86918 7.67013 3.40833 7.67259 3.96921V4.18921C7.67171 4.45529 7.61113 4.71778 7.49532 4.95734C7.37951 5.1969 7.21141 5.40742 7.00343 5.57337L6.88426 5.66504C6.65449 5.83886 6.38575 5.95394 6.10139 6.00026C5.81703 6.04659 5.52565 6.02277 5.25259 5.93087C5.00181 5.84409 4.73602 5.80909 4.47132 5.828C4.20661 5.84691 3.9485 5.91933 3.71259 6.04087C3.45928 6.17076 3.23663 6.35326 3.05957 6.57617C2.88251 6.79907 2.75512 7.05724 2.68593 7.33337L1.93426 9.71671C1.75995 10.2541 1.80465 10.8385 2.05866 11.3431C2.31267 11.8476 2.75548 12.2317 3.29093 12.4117H3.43759C3.6846 12.5043 3.90629 12.6538 4.08468 12.8481C4.26306 13.0424 4.39311 13.276 4.46426 13.53L4.51926 13.6767C4.62145 13.9573 4.65562 14.2582 4.61897 14.5546C4.58232 14.851 4.47589 15.1344 4.30843 15.3817C3.99192 15.8379 3.8621 16.398 3.94564 16.9469C4.02917 17.4959 4.31971 17.992 4.75759 18.3334L6.65509 19.745Z" stroke="#193B61"/>
<path d="M11.0001 13.7083C10.4644 13.7083 9.9408 13.5495 9.49541 13.2519C9.05003 12.9543 8.7029 12.5313 8.49791 12.0364C8.29292 11.5415 8.23929 10.997 8.34379 10.4716C8.44829 9.94623 8.70623 9.46365 9.085 9.08488C9.46377 8.70611 9.94635 8.44817 10.4717 8.34367C10.9971 8.23917 11.5416 8.2928 12.0365 8.49779C12.5314 8.70277 12.9544 9.04991 13.252 9.49529C13.5496 9.94067 13.7084 10.4643 13.7084 11C13.7084 11.7183 13.4231 12.4071 12.9152 12.915C12.4073 13.423 11.7184 13.7083 11.0001 13.7083Z" stroke="#193B61"/>
</svg>
