<svg width="24" height="24" viewBox="0 0 24 24" fill="none" xmlns="http://www.w3.org/2000/svg">
<path d="M7.32873 12.861C7.44074 12.5906 7.5 12.2984 7.5 12C7.5 11.6555 7.42092 11.317 7.2705 11.01M7.32873 12.861C7.21672 13.1314 7.05197 13.38 6.84099 13.591C6.41903 14.0129 5.84674 14.25 5.25 14.25C4.80499 14.25 4.36998 14.118 3.99997 13.8708C3.62996 13.6236 3.34157 13.2722 3.17127 12.861C3.00097 12.4499 2.95642 11.9975 3.04323 11.561C3.13005 11.1246 3.34434 10.7237 3.65901 10.409C3.97368 10.0943 4.37459 9.88005 4.81105 9.79323C5.24751 9.70642 5.6999 9.75097 6.11104 9.92127C6.52217 10.0916 6.87357 10.38 7.12081 10.75C7.17665 10.8335 7.22661 10.9204 7.2705 11.01M7.32873 12.861L15.1713 17.76M7.2705 11.01L15.2295 6.24M15.2295 6.24C15.2734 6.32957 15.3234 6.41646 15.3792 6.50003C15.6264 6.87004 15.9778 7.15843 16.389 7.32873C16.8001 7.49903 17.2525 7.54358 17.689 7.45677C18.1254 7.36995 18.5263 7.15566 18.841 6.84099C19.1557 6.52632 19.3699 6.12541 19.4568 5.68895C19.5436 5.2525 19.499 4.8001 19.3287 4.38896C19.1584 3.97783 18.87 3.62643 18.5 3.37919C18.13 3.13196 17.695 3 17.25 3C16.6533 3 16.081 3.23705 15.659 3.65901C15.2371 4.08097 15 4.65326 15 5.25C15 5.5945 15.0791 5.933 15.2295 6.24ZM17.25 21C16.805 21 16.37 20.868 16 20.6208C15.63 20.3736 15.3416 20.0222 15.1713 19.611C15.001 19.1999 14.9564 18.7475 15.0432 18.311C15.13 17.8746 15.3443 17.4737 15.659 17.159C15.9737 16.8443 16.3746 16.63 16.811 16.5432C17.2475 16.4564 17.6999 16.501 18.111 16.6713C18.5222 16.8416 18.8736 17.13 19.1208 17.5C19.368 17.87 19.5 18.305 19.5 18.75C19.5 19.3467 19.2629 19.919 18.841 20.341C18.419 20.7629 17.8467 21 17.25 21Z" stroke="#193B61"/>
</svg>
