<svg width="22" height="22" viewBox="0 0 22 22" fill="none" xmlns="http://www.w3.org/2000/svg">
<path d="M14.0711 5.15977C14.0711 6.30944 15.0031 7.24142 16.1527 7.24142C17.3024 7.24142 18.2344 6.30944 18.2344 5.15977C18.2344 4.01011 17.3024 3.07812 16.1527 3.07812C15.0031 3.07812 14.0711 4.01011 14.0711 5.15977Z" stroke="#193B61"/>
<path d="M14.0711 16.8404C14.0711 17.9901 15.0031 18.9221 16.1527 18.9221C17.3024 18.9221 18.2344 17.9901 18.2344 16.8404C18.2344 15.6908 17.3024 14.7588 16.1527 14.7588C15.0031 14.7588 14.0711 15.6908 14.0711 16.8404Z" stroke="#193B61"/>
<path d="M3.76524 11.0002C3.76524 12.6097 5.07 13.9144 6.6795 13.9144C8.28899 13.9144 9.59375 12.6097 9.59375 11.0002C9.59375 9.39069 8.28899 8.08594 6.6795 8.08594C5.07 8.08594 3.76524 9.39069 3.76524 11.0002Z" stroke="#193B61"/>
<path d="M14.4189 15.6915L9.19141 11.984M14.5972 6.08496L9.19141 9.63903" stroke="#193B61"/>
</svg>
