<svg width="18" height="19" viewBox="0 0 18 19" fill="none" xmlns="http://www.w3.org/2000/svg">
<path d="M11.6036 4.72163C11.6036 5.61206 12.3254 6.33389 13.2159 6.33389C14.1063 6.33389 14.8281 5.61206 14.8281 4.72163C14.8281 3.83121 14.1063 3.10938 13.2159 3.10938C12.3254 3.10938 11.6036 3.83121 11.6036 4.72163Z" stroke="#D2AB68"/>
<circle r="1.61226" transform="matrix(-1 0 0 1 13.2159 14.2785)" stroke="#D2AB68"/>
<path d="M3.17183 9.50015C3.17183 10.7668 4.19865 11.7936 5.46531 11.7936C6.73196 11.7936 7.75879 10.7668 7.75879 9.50015C7.75879 8.2335 6.73196 7.20667 5.46531 7.20667C4.19865 7.20667 3.17183 8.2335 3.17183 9.50015Z" stroke="#D2AB68"/>
<path d="M11.7975 13.3385L7.52051 10.3051M11.9434 5.47861L7.52051 8.38648" stroke="#D2AB68"/>
</svg>
