<svg width="16" height="17" viewBox="0 0 16 17" fill="none" xmlns="http://www.w3.org/2000/svg">
<path d="M7.35267 2.19503C7.5507 2.08505 7.77348 2.02734 8 2.02734C8.22652 2.02734 8.4493 2.08505 8.64733 2.19503L13.6573 4.97769C13.7612 5.03546 13.8477 5.11993 13.908 5.22238C13.9682 5.32482 14 5.44151 14 5.56036V11.0504C13.9999 11.2881 13.9363 11.5215 13.8157 11.7264C13.6951 11.9313 13.5219 12.1003 13.314 12.2157L8.64733 14.809C8.4493 14.919 8.22652 14.9767 8 14.9767C7.77348 14.9767 7.5507 14.919 7.35267 14.809L2.686 12.2157C2.47824 12.1003 2.30509 11.9315 2.18448 11.7267C2.06386 11.522 2.00018 11.2887 2 11.051V5.56036C2 5.44151 2.03176 5.32482 2.09201 5.22238C2.15226 5.11993 2.2388 5.03546 2.34267 4.97769L7.35333 2.19503H7.35267Z" stroke="#C0C0C0" stroke-linecap="round" stroke-linejoin="round"/>
<path d="M8 8.5013V15.168M2 5.16797L8 8.5013L2 5.16797ZM8 8.5013L14 5.16797L8 8.5013Z" stroke="#C0C0C0" stroke-linejoin="round"/>
<path d="M5 6.83333L11 3.5" stroke="#C0C0C0" stroke-linecap="round" stroke-linejoin="round"/>
</svg>
