<svg width="18" height="19" viewBox="0 0 18 19" fill="none" xmlns="http://www.w3.org/2000/svg">
<path d="M4.50653 15.4367C4.43828 15.8215 4.82152 16.1222 5.15926 15.9506L9.00044 13.9956L12.8407 15.9506C13.1785 16.1222 13.5617 15.8215 13.4935 15.4376L12.7673 11.3386L15.8489 8.43024C16.1377 8.15813 15.9889 7.6607 15.6022 7.60697L11.3165 7.00382L9.40556 3.25404C9.36916 3.17803 9.31173 3.11381 9.23994 3.06884C9.16815 3.02387 9.08495 3 9.00001 3C8.91506 3 8.83187 3.02387 8.76008 3.06884C8.68829 3.11381 8.63086 3.17803 8.59445 3.25404L6.68349 7.00469L2.39781 7.60784C2.01195 7.66157 1.86232 8.159 2.15019 8.43111L5.23276 11.3394L4.50653 15.4384V15.4367Z" stroke="#D2AB68"/>
</svg>
