<svg width="16" height="16" viewBox="0 0 16 16" fill="none" xmlns="http://www.w3.org/2000/svg">
<g clip-path="url(#clip0_2_454)">
<path d="M3.35875 14.9384L3.35908 14.9385L4.18908 10.2085L4.23536 9.94471L4.04148 9.76001L0.518818 6.40434C0.518778 6.4043 0.518737 6.40426 0.518697 6.40423C0.509266 6.39519 0.505611 6.38735 0.503651 6.37904C0.501183 6.36858 0.501084 6.35427 0.505546 6.3393C0.510025 6.32426 0.516766 6.31615 0.519594 6.31353C0.519693 6.31344 0.519782 6.31335 0.51987 6.31326C0.520528 6.31258 0.521198 6.31188 0.526217 6.31118L0.526949 6.31107L5.42495 5.61507L5.68339 5.57835L5.80099 5.3453L7.98499 1.0173L7.98513 1.01737L7.99036 1.00633C7.99142 1.00411 7.99308 1.00223 7.99516 1.00091C7.99724 0.9996 7.99965 0.998901 8.00211 0.998901C8.00457 0.998901 8.00698 0.999599 8.00906 1.00091C8.01114 1.00223 8.0128 1.00411 8.01385 1.00633L8.01372 1.00639L8.01924 1.01734L10.2032 5.34434L10.3209 5.57735L10.5793 5.61407L15.4773 6.31007L15.4782 6.3102C15.4843 6.31106 15.4844 6.31198 15.4851 6.31261C15.4878 6.31508 15.4944 6.32296 15.4987 6.33772C15.5031 6.35242 15.503 6.36657 15.5005 6.37702C15.4985 6.38537 15.4948 6.39346 15.4849 6.40282L15.4847 6.40306L11.9627 9.75906L11.7689 9.94376L11.8151 10.2075L12.6451 14.9375L12.6452 14.9377C12.6485 14.9567 12.6457 14.9681 12.643 14.9751C12.6397 14.9836 12.6341 14.9908 12.6279 14.9957C12.6256 14.9975 12.6236 14.9987 12.6223 14.9993C12.6216 14.9991 12.6209 14.9987 12.62 14.9982C12.6199 14.9982 12.6199 14.9982 12.6198 14.9982L8.23118 12.7423L8.00263 12.6249L7.77407 12.7423L3.3844 14.9982C3.38434 14.9982 3.38429 14.9982 3.38423 14.9982C3.38337 14.9987 3.38263 14.999 3.382 14.9993C3.38067 14.9986 3.37879 14.9975 3.3765 14.9957C3.37036 14.9908 3.36471 14.9836 3.3613 14.9749C3.35859 14.968 3.35583 14.9568 3.35875 14.9384Z" stroke="#E2C29B"/>
</g>
<defs>
<clipPath id="clip0_2_454">
<rect width="16" height="16" fill="white"/>
</clipPath>
</defs>
</svg>
