<svg width="30" height="30" viewBox="0 0 30 30" fill="none" xmlns="http://www.w3.org/2000/svg">
<g clip-path="url(#clip0_640_202)">
<path d="M5.86599 27.934L5.86663 27.934L7.42288 19.0653L7.46916 18.8015L7.27527 18.6168L0.669992 12.3247C0.669954 12.3246 0.669916 12.3246 0.669879 12.3246C0.331389 12.0013 0.544699 11.4537 0.925015 11.4003L0.925748 11.4002L10.1095 10.0952L10.3679 10.0584L10.4855 9.82538L14.5805 1.71039L14.5807 1.71045L14.5859 1.69942C14.6234 1.62045 14.6825 1.55372 14.7563 1.50701C14.8302 1.46029 14.9158 1.43549 15.0032 1.43549C15.0906 1.43549 15.1762 1.46029 15.2501 1.50701C15.324 1.55373 15.3831 1.62045 15.4205 1.69942L15.4204 1.69948L15.4259 1.71043L19.5209 9.82355L19.6385 10.0566L19.8969 10.0933L29.0807 11.3983L29.0816 11.3984C29.4624 11.4518 29.6757 11.9983 29.3351 12.3223L29.3349 12.3225L22.7311 18.615L22.5373 18.7997L22.5836 19.0634L24.1398 27.9322L24.1399 27.9325C24.2236 28.408 23.7721 28.6697 23.4621 28.5111L5.86599 27.934ZM5.86599 27.934C5.78481 28.4103 6.23596 28.6689 6.54437 28.511L5.86599 27.934ZM23.4617 28.5109L15.2327 24.2811L15.0042 24.1636L14.7756 24.281L6.5447 28.5109H23.4617Z" stroke="#E2C29B"/>
</g>
<defs>
<clipPath id="clip0_640_202">
<rect width="30" height="30" fill="white"/>
</clipPath>
</defs>
</svg>
