<svg width="20" height="20" viewBox="0 0 20 20" fill="none" xmlns="http://www.w3.org/2000/svg">
<g clip-path="url(#clip0_2_9129)">
<path d="M4.07482 18.6514L4.07525 18.6515L5.11275 12.739L5.15903 12.4752L4.96514 12.2905L0.561732 8.09585C0.5617 8.09582 0.561668 8.09579 0.561636 8.09576C0.507335 8.04387 0.487971 7.9679 0.511647 7.88843C0.535103 7.80969 0.585387 7.77285 0.63988 7.76519L0.640613 7.76508L6.76311 6.89508L7.02156 6.85836L7.13916 6.62531L9.86916 1.21531L9.86929 1.21538L9.87453 1.20434C9.88598 1.18019 9.90405 1.15979 9.92664 1.1455C9.94923 1.13121 9.97542 1.12363 10.0021 1.12363C10.0289 1.12363 10.0551 1.13121 10.0776 1.1455C10.1002 1.15979 10.1183 1.18019 10.1298 1.20434L10.1296 1.20441L10.1352 1.21535L12.8652 6.6241L12.9828 6.85711L13.2412 6.89383L19.3637 7.76383L19.3646 7.76396C19.4199 7.77172 19.4697 7.8087 19.4928 7.8866C19.5162 7.96544 19.497 8.04162 19.4419 8.09408L19.4416 8.09432L15.0391 12.2893L14.8453 12.474L14.8915 12.7377L15.929 18.6502L15.9291 18.6505C15.9444 18.7374 15.9107 18.8039 15.8621 18.8425C15.8154 18.8795 15.7673 18.8845 15.7176 18.8591C15.7175 18.859 15.7174 18.859 15.7172 18.8589L10.2313 16.0391L10.0028 15.9216L9.77423 16.0391L4.28707 18.8589C4.28697 18.859 4.28688 18.859 4.28679 18.8591C4.23709 18.8844 4.18906 18.8796 4.14241 18.8425C4.09429 18.8043 4.06037 18.7383 4.07482 18.6514Z" fill="#E2C29B" stroke="#E2C29B"/>
</g>
<defs>
<clipPath id="clip0_2_9129">
<rect width="20" height="20" fill="white"/>
</clipPath>
</defs>
</svg>
