<svg width="25" height="25" viewBox="0 0 25 25" fill="none" xmlns="http://www.w3.org/2000/svg">
<circle cx="12.5" cy="12.5" r="12.5" fill="#F7F7F7"/>
<path d="M15.04 6.51988L15.041 6.52078C15.1298 6.60184 15.1677 6.72189 15.1564 6.85757C15.1439 6.99079 15.0832 7.12634 14.9917 7.22555L14.9905 7.22681C14.8424 7.38837 14.7276 7.57752 14.6525 7.78346C14.5775 7.9894 14.5438 8.2081 14.5533 8.42707C14.5628 8.64604 14.6154 8.86099 14.708 9.05965C14.8005 9.25831 14.9313 9.4368 15.0929 9.58491C15.2545 9.73302 15.4436 9.84786 15.6496 9.92287C15.8555 9.99788 16.0742 10.0316 16.2932 10.0221C16.5121 10.0126 16.7271 9.96004 16.9257 9.86746C17.1244 9.77488 17.3029 9.64407 17.451 9.48252L17.4519 9.48151C17.5435 9.38102 17.6738 9.3088 17.8056 9.28498L17.8056 9.28508L17.8152 9.28316C17.8752 9.27112 17.9371 9.27319 17.9962 9.28922C18.0543 9.305 18.1081 9.33389 18.1534 9.37366L19.0925 10.2345C19.0926 10.2345 19.0926 10.2346 19.0927 10.2346C19.0927 10.2346 19.0927 10.2346 19.0927 10.2347C19.189 10.323 19.2667 10.4296 19.3215 10.5482C19.3762 10.6669 19.4069 10.7953 19.4117 10.9259C19.4165 11.0565 19.3953 11.1868 19.3494 11.3092C19.3034 11.4316 19.2336 11.5436 19.144 11.6388L12.1326 19.0891L12.1326 19.0891C12.0419 19.1854 11.9329 19.2625 11.8119 19.3159C11.6909 19.3693 11.5604 19.3978 11.4282 19.3997C11.2959 19.4017 11.1647 19.3771 11.0421 19.3274C10.9196 19.2777 10.8083 19.2038 10.7148 19.1103L10.7146 19.1101L9.75412 18.1496C9.6779 18.0734 9.64753 17.9843 9.6486 17.8812C9.64977 17.7679 9.6907 17.651 9.74497 17.5699L9.74579 17.5687C9.95911 17.2477 10.0548 16.8628 10.0165 16.4793C9.9783 16.0959 9.80851 15.7374 9.53601 15.4649C9.2635 15.1924 8.90508 15.0227 8.52161 14.9844C8.13835 14.9462 7.75367 15.0417 7.43282 15.2548C7.34957 15.3097 7.23203 15.3503 7.11906 15.3513C7.01616 15.3522 6.92728 15.3219 6.85082 15.2452L6.85031 15.2447L5.86643 14.2608L5.86642 14.2608C5.77471 14.1691 5.70196 14.0602 5.65233 13.9404C5.60269 13.8206 5.57715 13.6922 5.57715 13.5625C5.57715 13.4328 5.60269 13.3044 5.65233 13.1846C5.70196 13.0648 5.77471 12.9559 5.86642 12.8642L5.86643 12.8642L12.8959 5.83469C12.8959 5.83469 12.8959 5.83469 12.8959 5.83469C13.0759 5.65475 13.3183 5.55122 13.5728 5.5457C13.8272 5.54018 14.0739 5.6331 14.2615 5.80507L15.04 6.51988Z" stroke="#C0C0C0"/>
</svg>
