<svg width="16" height="16" viewBox="0 0 16 16" fill="none" xmlns="http://www.w3.org/2000/svg">
<circle cx="8" cy="8" r="7.5" stroke="#3C9F77"/>
<path d="M4.35241 8.38248C4.15651 8.18785 3.83993 8.18887 3.6453 8.38477C3.45067 8.58066 3.4517 8.89724 3.64759 9.09187L4.35241 8.38248ZM6.48041 11.2016L6.128 11.5563C6.22232 11.65 6.35007 11.7023 6.48302 11.7016C6.61598 11.7009 6.74318 11.6472 6.83651 11.5526L6.48041 11.2016ZM12.3561 5.95255C12.5499 5.75588 12.5477 5.43931 12.351 5.24546C12.1543 5.05162 11.8377 5.05391 11.6439 5.25057L12.3561 5.95255ZM3.64759 9.09187L6.128 11.5563L6.83281 10.8469L4.35241 8.38248L3.64759 9.09187ZM6.83651 11.5526L12.3561 5.95255L11.6439 5.25057L6.12431 10.8506L6.83651 11.5526Z" fill="#3C9F77"/>
</svg>
