<svg width="30" height="30" viewBox="0 0 30 30" fill="none" xmlns="http://www.w3.org/2000/svg">
<path d="M1.5 15C1.5 7.55579 7.55712 1.49996 15 1.49996C22.4429 1.49996 28.5 7.55579 28.5 15C28.5 22.4441 22.4429 28.5 15 28.5C7.55712 28.5 1.5 22.4441 1.5 15Z" stroke="#193B61"/>
<path d="M23.5008 9.75283C23.4346 9.96133 23.3489 10.1632 23.2449 10.3556C23.3443 10.3141 23.4545 10.3057 23.559 10.3316C23.6636 10.3576 23.757 10.4165 23.8255 10.4997C23.894 10.5829 23.9338 10.6859 23.9392 10.7935C23.9445 10.9012 23.9151 11.0076 23.8552 11.0972C23.4597 11.6897 22.972 12.2151 22.4105 12.6535L22.4114 12.8072C22.4114 17.3569 18.9483 22.0631 13.1546 22.0631C11.3867 22.0638 9.65584 21.5565 8.16801 20.6016C8.07276 20.5403 8.00102 20.4486 7.96443 20.3413C7.92784 20.2341 7.92855 20.1177 7.96645 20.011C8.00591 19.905 8.07941 19.8151 8.17544 19.7554C8.27146 19.6957 8.38458 19.6695 8.49707 19.681C9.59147 19.8097 10.6998 19.6213 11.6902 19.1381C11.208 18.9401 10.7749 18.639 10.4212 18.256C10.0675 17.873 9.80183 17.4174 9.6427 16.921C9.61593 16.8382 9.61119 16.7499 9.62895 16.6647C9.6467 16.5796 9.68634 16.5005 9.74395 16.4353L9.77676 16.4025C9.01364 15.7388 8.5402 14.7619 8.5402 13.6978C8.54027 13.6079 8.56298 13.5195 8.60624 13.4407C8.64949 13.3619 8.7119 13.2952 8.7877 13.2469C8.84956 13.2105 8.91755 13.1857 8.98833 13.1738C8.69976 12.6354 8.55393 12.0322 8.56476 11.4215C8.5756 10.8108 8.74272 10.2131 9.0502 9.68533C9.09109 9.61555 9.14821 9.55667 9.21672 9.5137C9.28523 9.47072 9.3631 9.44492 9.44372 9.43848C9.52434 9.43203 9.60532 9.44515 9.67978 9.4767C9.75425 9.50825 9.82 9.5573 9.87145 9.6197C11.2143 11.2667 13.1396 12.3337 15.248 12.5991C15.2287 12.1173 15.3069 11.6366 15.4778 11.1858C15.6488 10.735 15.909 10.3234 16.2429 9.97554C16.5768 9.62772 16.9775 9.35091 17.4209 9.1617C17.8644 8.97248 18.3415 8.87476 18.8236 8.87439C19.7111 8.87549 20.5667 9.20512 21.2255 9.7997C21.7682 9.66677 22.2882 9.45415 22.7686 9.16876C22.8561 9.11736 22.9571 9.0937 23.0583 9.1009C23.1595 9.10811 23.2562 9.14584 23.3355 9.20911C23.4148 9.27238 23.4731 9.35822 23.5026 9.45529C23.5321 9.55237 23.5315 9.65611 23.5008 9.75283Z" stroke="#193B61"/>
</svg>
