<svg width="24" height="25" viewBox="0 0 24 25" fill="none" xmlns="http://www.w3.org/2000/svg">
<path d="M19 20.5032H5C4.46957 20.5032 3.96086 20.2925 3.58579 19.9174C3.21071 19.5423 3 19.0336 3 18.5032V9.50317C3 8.97274 3.21071 8.46403 3.58579 8.08896C3.96086 7.71389 4.46957 7.50317 5 7.50317H19C19.5304 7.50317 20.0391 7.71389 20.4142 8.08896C20.7893 8.46403 21 8.97274 21 9.50317V18.5032C21 19.0336 20.7893 19.5423 20.4142 19.9174C20.0391 20.2925 19.5304 20.5032 19 20.5032Z" stroke="#E2C29B"/>
<path d="M16.4985 14.5032C16.3659 14.5032 16.2387 14.4505 16.145 14.3567C16.0512 14.263 15.9985 14.1358 15.9985 14.0032C15.9985 13.8706 16.0512 13.7434 16.145 13.6496C16.2387 13.5559 16.3659 13.5032 16.4985 13.5032C16.6311 13.5032 16.7583 13.5559 16.8521 13.6496C16.9459 13.7434 16.9985 13.8706 16.9985 14.0032C16.9985 14.1358 16.9459 14.263 16.8521 14.3567C16.7583 14.4505 16.6311 14.5032 16.4985 14.5032Z" fill="#E2C29B" stroke="#E2C29B" stroke-linecap="round" stroke-linejoin="round"/>
<path d="M18 7.50118V6.10418C17.9999 5.79768 17.9294 5.4953 17.7939 5.2204C17.6583 4.94549 17.4614 4.70541 17.2184 4.51869C16.9753 4.33198 16.6926 4.20362 16.3921 4.14354C16.0915 4.08346 15.7812 4.09326 15.485 4.17218L4.485 7.10518C4.05905 7.21869 3.68254 7.46974 3.41399 7.81931C3.14544 8.16887 2.9999 8.59737 3 9.03818V9.50118" stroke="#E2C29B"/>
</svg>
