<svg width="25" height="25" viewBox="0 0 25 25" fill="none" xmlns="http://www.w3.org/2000/svg">
<circle cx="12.5" cy="12.5" r="12.5" fill="#F7F7F7"/>
<path d="M17.4583 18.1667H7.54167C7.16594 18.1667 6.80561 18.0175 6.53993 17.7518C6.27426 17.4861 6.125 17.1258 6.125 16.75V10.375C6.125 9.99932 6.27426 9.63898 6.53993 9.37331C6.80561 9.10763 7.16594 8.95837 7.54167 8.95837H17.4583C17.8341 8.95837 18.1944 9.10763 18.4601 9.37331C18.7257 9.63898 18.875 9.99932 18.875 10.375V16.75C18.875 17.1258 18.7257 17.4861 18.4601 17.7518C18.1944 18.0175 17.8341 18.1667 17.4583 18.1667Z" stroke="#C0C0C0"/>
<path d="M15.6877 13.9167C15.5937 13.9167 15.5036 13.8794 15.4372 13.813C15.3708 13.7466 15.3335 13.6565 15.3335 13.5625C15.3335 13.4686 15.3708 13.3785 15.4372 13.3121C15.5036 13.2457 15.5937 13.2084 15.6877 13.2084C15.7816 13.2084 15.8717 13.2457 15.9381 13.3121C16.0045 13.3785 16.0418 13.4686 16.0418 13.5625C16.0418 13.6565 16.0045 13.7466 15.9381 13.813C15.8717 13.8794 15.7816 13.9167 15.6877 13.9167Z" fill="#C0C0C0" stroke="#C0C0C0" stroke-linecap="round" stroke-linejoin="round"/>
<path d="M16.75 8.95837V7.96882C16.7499 7.75172 16.7 7.53754 16.604 7.34281C16.508 7.14808 16.3685 6.97803 16.1964 6.84577C16.0242 6.71351 15.8239 6.62259 15.611 6.58004C15.3981 6.53748 15.1783 6.54442 14.9685 6.60032L7.17688 8.67787C6.87516 8.75827 6.60847 8.9361 6.41824 9.1837C6.22802 9.43131 6.12493 9.73483 6.125 10.0471V10.375" stroke="#C0C0C0"/>
</svg>
