<svg width="10" height="10" viewBox="0 0 10 10" fill="none" xmlns="http://www.w3.org/2000/svg">
<path d="M5.28903 6.66007L5.29083 6.66087C5.31011 6.66951 5.33118 6.67343 5.35229 6.67228C5.37271 6.67118 5.39258 6.66538 5.41038 6.65534L6.12413 6.22526C6.58844 5.94549 7.16758 5.93799 7.63897 6.20567L8.5807 6.74042C8.79767 6.86362 8.95773 7.11275 8.92777 7.40492C8.87883 7.88224 8.66403 8.3293 8.31808 8.66656C7.93431 9.0407 7.41953 9.25006 6.88358 9.25M5.28903 6.66007L1.25049 3.11719M5.28903 6.66007C4.42012 6.27496 3.72554 5.58038 3.34042 4.71146L3.34042 4.71146L3.33962 4.70967C3.33098 4.69038 3.32707 4.66931 3.32821 4.6482C3.32931 4.62779 3.33511 4.60792 3.34515 4.59013L5.28903 6.66007ZM6.88358 9.25C6.07794 9.25106 5.28001 9.09318 4.53549 8.7854C3.79083 8.47755 3.11423 8.02581 2.54446 7.45603C1.97469 6.88626 1.52294 6.20967 1.2151 5.46501C0.907258 4.72035 0.749374 3.92227 0.750494 3.11649M6.88358 9.25C6.88343 9.25 6.88329 9.25 6.88315 9.25L6.88331 8.75L6.884 9.25C6.88386 9.25 6.88372 9.25 6.88358 9.25ZM0.750494 3.11649L1.25049 3.11719M0.750494 3.11649C0.750494 3.11678 0.750494 3.11706 0.750494 3.11735L1.25049 3.11719M0.750494 3.11649C0.750547 2.58069 0.959898 2.06609 1.33393 1.68241C1.67119 1.33646 2.11825 1.12166 2.59557 1.07273C2.88775 1.04277 3.13687 1.20283 3.26007 1.4198L2.83239 1.66265L3.26008 1.4198L3.79483 2.36153L3.36003 2.60842L2.82528 1.66669C2.78886 1.60255 2.71995 1.5626 2.64657 1.57012C2.28541 1.60714 1.94714 1.76968 1.69196 2.03144C1.40879 2.3219 1.25037 2.71154 1.25049 3.11719" stroke="#9DBACA"/>
</svg>
