<svg width="18" height="18" viewBox="0 0 18 18" fill="none" xmlns="http://www.w3.org/2000/svg">
<path d="M5.15461 15.5881L5.3342 15.6865C6.35352 16.2452 7.48707 16.5635 8.64822 16.6169C9.80938 16.6704 10.9674 16.4577 12.0337 15.9951C13.1001 15.5324 14.0466 14.8321 14.8008 13.9477C15.5551 13.0633 16.0971 12.0181 16.3855 10.892C16.674 9.76601 16.7011 8.58894 16.465 7.45081C16.2288 6.31267 15.7356 5.24359 15.0229 4.32528C14.3103 3.40697 13.3971 2.66375 12.3533 2.15241C11.3094 1.64108 10.1625 1.37517 9.00009 1.375L5.15461 15.5881ZM5.15461 15.5881L4.95758 15.6439M5.15461 15.5881L4.95758 15.6439M4.95758 15.6439L2.61383 16.308L2.61383 16.308M4.95758 15.6439L2.61383 16.308M2.61383 16.308L2.61084 16.3089M2.61383 16.308L2.61084 16.3089M2.61084 16.3089C2.48323 16.3459 2.34803 16.348 2.21935 16.3149C2.09067 16.2818 1.97322 16.2148 1.87927 16.1209C1.78532 16.0269 1.71832 15.9095 1.68525 15.7808C1.65218 15.6521 1.65426 15.5169 1.69127 15.3893L1.69128 15.3893M2.61084 16.3089L1.69128 15.3893M1.69128 15.3893L1.69213 15.3863M1.69128 15.3893L1.69213 15.3863M1.69213 15.3863L2.35619 13.0426L2.41203 12.8455M1.69213 15.3863L2.41203 12.8455M2.41203 12.8455L2.31355 12.6659M2.41203 12.8455L2.31355 12.6659M2.31355 12.6659C1.67689 11.5047 1.35362 10.1977 1.37556 8.87367C1.3975 7.54959 1.7639 6.25406 2.43868 5.11463C3.11347 3.97519 4.07337 3.03113 5.22388 2.37541C6.37438 1.71969 7.67582 1.3749 9.00006 1.375L2.31355 12.6659Z" stroke="#9DBACA"/>
</svg>
