<svg width="20" height="20" viewBox="0 0 20 20" fill="none" xmlns="http://www.w3.org/2000/svg">
<path d="M3.41154 13.8455L3.3557 14.0426L2.69164 16.3863L2.69079 16.3893L2.69078 16.3893C2.65377 16.5169 2.65169 16.6521 2.68476 16.7808C2.71783 16.9095 2.78484 17.0269 2.87879 17.1209C2.97274 17.2148 3.09018 17.2818 3.21886 17.3149C3.34754 17.348 3.48275 17.3459 3.61035 17.3089L3.61334 17.308L3.61334 17.308L5.95709 16.6439L6.15412 16.5881L6.33371 16.6865C7.35303 17.2452 8.48658 17.5635 9.64774 17.6169C10.8089 17.6704 11.9669 17.4577 13.0333 16.9951C14.0996 16.5324 15.0461 15.8321 15.8003 14.9477C16.5546 14.0633 17.0966 13.0181 17.385 11.892C17.6735 10.766 17.7007 9.58894 17.4645 8.45081C17.2283 7.31267 16.7351 6.24359 16.0224 5.32528C15.3098 4.40697 14.3967 3.66375 13.3528 3.15241C12.3089 2.64108 11.162 2.37517 9.9996 2.375L3.41154 13.8455ZM3.41154 13.8455L3.31306 13.6659M3.41154 13.8455L3.31306 13.6659M3.31306 13.6659C2.6764 12.5047 2.35313 11.1977 2.37507 9.87367C2.39701 8.54959 2.76341 7.25406 3.43819 6.11463C4.11298 4.97519 5.07288 4.03113 6.22339 3.37541C7.37389 2.71969 8.67533 2.3749 9.99957 2.375L3.31306 13.6659Z" stroke="#9DBACA"/>
<path d="M11.8841 14.25C12.42 14.2501 12.9348 14.0407 13.3186 13.6666C13.6645 13.3293 13.8793 12.8822 13.9283 12.4049C13.9582 12.1127 13.7982 11.8636 13.5812 11.7404L12.6395 11.2057C12.1681 10.938 11.5889 10.9455 11.1246 11.2253L10.4109 11.6553L6.25098 8.11719M11.8841 14.25C11.0784 14.2511 10.2805 14.0932 9.53597 13.7854C8.79132 13.4776 8.11472 13.0258 7.54495 12.456C6.97518 11.8863 6.52343 11.2097 6.21559 10.465C5.90775 9.72035 5.74986 8.92227 5.75098 8.11649M11.8841 14.25C11.8839 14.25 11.8838 14.25 11.8836 14.25L11.8838 13.75L11.8845 14.25C11.8843 14.25 11.8842 14.25 11.8841 14.25ZM5.75098 8.11649L6.25098 8.11719M5.75098 8.11649C5.75098 8.11678 5.75098 8.11706 5.75098 8.11735L6.25098 8.11719M5.75098 8.11649C5.75104 7.58069 5.96039 7.06609 6.33442 6.68241C6.67168 6.33646 7.11874 6.12166 7.59606 6.07273C7.88824 6.04277 8.13736 6.20283 8.26056 6.4198L7.83288 6.66265L8.26056 6.4198L8.79531 7.36153L8.36052 7.60842L7.82577 6.66669C7.78935 6.60255 7.72044 6.5626 7.64706 6.57012C7.2859 6.60714 6.94763 6.76968 6.69244 7.03144C6.40928 7.3219 6.25085 7.71154 6.25098 8.11719M10.0869 12.1172C9.10452 11.6818 8.31921 10.8965 7.8838 9.91406L10.665 12.0859C10.5781 12.1368 10.4803 12.1661 10.3798 12.1716C10.2792 12.177 10.1788 12.1584 10.0869 12.1172ZM8.34564 9.59013C8.34597 9.58953 8.34632 9.58893 8.34667 9.58833L7.91505 9.33594L8.34331 9.59399L8.34564 9.59013Z" stroke="#9DBACA"/>
</svg>
