<svg width="24" height="24" viewBox="0 0 24 24" fill="none" xmlns="http://www.w3.org/2000/svg">
<path d="M6.47759 2.35945C8.15866 1.39635 10.0623 0.889407 11.9998 0.888885C13.6977 0.889004 15.3731 1.27822 16.8972 2.02663C18.4213 2.77505 19.7536 3.86276 20.7918 5.20625C21.83 6.54974 22.5464 8.11327 22.8862 9.77677C23.2259 11.4403 23.1799 13.1595 22.7516 14.8025C22.3234 16.4454 21.5243 17.9684 20.4157 19.2544C19.3071 20.5404 17.9185 21.5553 16.3566 22.2211C14.7946 22.8869 13.1008 23.186 11.4053 23.0952C9.70975 23.0045 8.05755 22.5265 6.57557 21.6978L3.23013 22.6536C2.9686 22.7284 2.69184 22.7318 2.42854 22.6636C2.16523 22.5954 1.92496 22.458 1.73264 22.2657C1.54031 22.0733 1.40292 21.8331 1.33471 21.5698C1.26651 21.3065 1.26996 21.0297 1.34472 20.7682L2.30061 17.4232C1.35554 15.732 0.86901 13.8231 0.88928 11.8859C0.90955 9.9487 1.43591 8.05045 2.41617 6.3794C3.39642 4.70834 4.79651 3.32255 6.47759 2.35945Z" stroke="#25D366"/>
</svg>
