<svg width="30" height="30" viewBox="0 0 30 30" fill="none" xmlns="http://www.w3.org/2000/svg">
<path d="M17.7781 15.0001L12.917 17.7779V12.2223L17.7781 15.0001Z" stroke="#193B61" stroke-linecap="round" stroke-linejoin="round"/>
<path d="M1.11133 15.9819V14.0167C1.11133 9.99584 1.11133 7.98473 2.36827 6.69167C3.62661 5.39723 5.60716 5.34167 9.56688 5.22917C11.4419 5.17639 13.3585 5.13889 15.0002 5.13889C16.6405 5.13889 18.5572 5.17639 20.4335 5.22917C24.3933 5.34167 26.3738 5.39723 27.6308 6.69167C28.8891 7.98473 28.8891 9.99723 28.8891 14.0167V15.9819C28.8891 20.0042 28.8891 22.0139 27.6322 23.3083C26.3738 24.6014 24.3947 24.6583 20.4335 24.7695C18.5585 24.8236 16.6419 24.8611 15.0002 24.8611C13.3599 24.8611 11.4433 24.8236 9.56688 24.7695C5.60716 24.6583 3.62661 24.6028 2.36827 23.3083C1.11133 22.0139 1.11133 20.0028 1.11133 15.9833V15.9819Z" stroke="#193B61"/>
</svg>
